<?xml version="1.0" encoding="UTF-8"?>
<svg version="1.1" viewBox="0 0 666.67 666.67" xmlns="http://www.w3.org/2000/svg">
 <defs>
  <clipPath id="clipPath7">
   <path d="m-133.33-133.33h933.33v933.33h-933.33z" style="stroke-width:1.3333"/>
  </clipPath>
 </defs>
 <path d="m333.33 0c-184.09 0-333.33 149.24-333.33 333.33 0 156.33 107.62 287.5 252.81 323.52v-221.66h-68.734v-101.86h68.734v-43.893c0-7.0896 0.20237-13.94 0.60547-20.557 8e-5 -0.00126-8e-5 -0.00265 0-0.00391 4e-5 -6.6e-4 -4e-5 -0.00129 0-0.00195 1.6e-4 -0.00268-1.6e-4 -0.00514 0-0.00782 1.2102-19.848 4.2435-37.577 9.1582-53.238 1.6385-5.2212 3.4862-10.213 5.5449-14.977 2.0546-4.7542 4.3215-9.2793 6.7988-13.582 0.00499-0.00866 0.00869-0.01869 0.01367-0.02734 2.8e-4 -4.9e-4 -2.7e-4 -0.00147 0-0.00196 0.0055-0.00954 0.01208-0.0178 0.01758-0.02734 2.4785-4.2996 5.169-8.3761 8.0742-12.229 2.9122-3.8617 6.0395-7.4996 9.3848-10.916 3.3446-3.4157 6.9057-6.6093 10.688-9.584 4.1e-4 -3.2e-4 0.00154 3.3e-4 0.00195 0 3.7818-2.9746 7.7827-5.732 12.006-8.2695 16.894-10.151 37.339-16.822 61.467-20.141 12.064-1.6596 25.048-2.4805 38.971-2.4805 10.559 0 24.948 1.0349 38.561 2.5879 6.4e-4 7e-5 0.0013-8e-5 0.00195 0 6.8056 0.77645 13.418 1.6818 19.26 2.6523 5.8361 0.9696 10.901 2.0029 14.627 3.0371 0.00395 0.0011 0.00972 0.00281 0.01367 0.00391 4.8e-4 1.3e-4 0.00148-1.3e-4 0.00195 0v92.34c-3.934-0.414-9.3182-0.72643-15.84-0.93359-6.5217-0.20683-14.181-0.3086-22.67-0.3086-3.4161 0-6.7023 0.07937-9.8594 0.24414-28.414 1.483-46.46 9.7624-56.352 27.049-2.1981 3.8414-3.9933 8.1275-5.4102 12.883-0.70844 2.3777-1.3235 4.8731-1.8457 7.4883-0.52223 2.6152-0.95283 5.3501-1.2949 8.209-8e-5 6.6e-4 8e-5 0.00129 0 0.00195-0.68403 5.7172-1.0137 11.928-1.0137 18.656v36.025h108.88 0.00195l-18.705 101.86h-90.174v229.03c165.05-19.935 292.95-160.47 292.95-330.89 0-184.09-149.24-333.33-333.33-333.33z" clip-path="url(#clipPath7)"/>
</svg>
