<?xml version="1.0" encoding="UTF-8"?>
<svg width="300" height="200" version="1.1" viewBox="0 0 79.374 52.918" xml:space="preserve" xmlns="http://www.w3.org/2000/svg"><g transform="matrix(.30087 -.019898 .019897 .30087 -12.038 -19.142)"><g transform="translate(35.983 .32741)"><path d="m95.831 109.44c0.34263 0 0.61846 0.27583 0.61846 0.61846v8.0512c0 0.34263-0.27583 0.61846-0.61846 0.61846s-0.61846-0.27583-0.61846-0.61846v-8.0512c0-0.34263 0.27583-0.61846 0.61846-0.61846z" style="fill:#7c7c7c;paint-order:stroke fill markers;stroke-linecap:round;stroke-linejoin:round;stroke-width:.194"/><circle cx="95.831" cy="107.66" r="2.4997" style="fill:#f00;paint-order:stroke fill markers"/></g><path d="m131.01 117.93c-1.294 0-1.3658 8.0538 0 8.0538l1.8748-0.73898a0.88527 3.2879 0 0 0 0.88522-3.2876 0.88527 3.2879 0 0 0-0.88522-3.2882z" style="fill:#991515;paint-order:stroke fill markers"/><path d="m128.39 116.45c-1.7704 0-1.8685 11.018 0 11.018l2.5652-1.0108a1.2111 4.4982 0 0 0 1.2113-4.4979 1.2111 4.4982 0 0 0-1.2113-4.4984z" style="fill:#590000;paint-order:stroke fill markers"/><g transform="translate(-.44539 -.35249)"><path d="m132.13 192.38v4.1277l3.623 3.623v8.1261h-13.801v-8.7635l3.7823-3.7823v-3.331z" style="fill:#686888;paint-order:stroke fill markers"/><path d="m119.17 192.38v1.4119l-3.1512 3.1512v11.184h5.9976l-0.0655-8.6337 3.7823-3.7823v-3.331z" style="fill:#1c1c25;paint-order:stroke fill markers"/><g transform="translate(23.283)"><path d="m97.235 246.26 19.849-1.1607s0.8729-8.3502-1.0342-11.757c-1.2072-2.1564-5.521-2.5872-5.521-2.5872l-18.381-0.19874-3.029 3.7079v7.0866z" style="fill:#991515;paint-order:stroke fill markers"/><path d="m97.235 246.26s0.10888-9.2684-0.96037-11.485c-1.0693-2.2164-2.7058-4.2171-4.0614-4.2171-2.233 0-3.0943 3.0637-3.0943 3.0637v7.7291l8.1161 4.909" style="fill:#590000;paint-order:stroke fill markers"/></g><path d="m135.75 217.43v14.4l-13.801 0.0345v-14.246z" style="fill:#686888;paint-order:stroke fill markers"/><path d="m121.95 231.86-5.5616-1.1667v-15.962l5.5616 3.4249v13.704" style="fill:#1c1c25;paint-order:stroke fill markers"/><path d="m119.99 205.31v13.857h14.863c2.7537-9e-5 4.986-3.1022 4.9859-6.9288-1.3e-4 -3.8264-2.2323-6.9282-4.9859-6.9283z" style="fill:#5b5b77;paint-order:stroke fill markers;stroke-linecap:round;stroke-linejoin:round;stroke-width:.18772"/><ellipse cx="120.57" cy="212.27" rx="6.0401" ry="7.0045" style="fill:#1c1c25;paint-order:stroke fill markers"/><path d="m109.37 192.38v4.1277l3.623 3.623v8.1261h-13.801v-8.7635l3.7823-3.7823v-3.331z" style="fill:#686888;paint-order:stroke fill markers"/><path d="m96.414 192.38v1.4119l-3.1511 3.1512v11.184h5.9976l-0.0655-8.6337 3.7823-3.7823v-3.331z" style="fill:#1c1c25;paint-order:stroke fill markers"/><path d="m97.235 246.26 19.849-1.1607s0.8729-8.3502-1.0342-11.757c-1.2072-2.1564-5.521-2.5872-5.521-2.5872l-18.381-0.19874-3.029 3.7079v7.0866z" style="fill:#991515;paint-order:stroke fill markers"/><path d="m97.235 246.26s0.10888-9.2684-0.96037-11.485c-1.0693-2.2164-2.7058-4.2171-4.0614-4.2171-2.233 0-3.0943 3.0637-3.0943 3.0637v7.7291l8.1161 4.909" style="fill:#590000;paint-order:stroke fill markers"/><path d="m113 217.43v14.4l-13.801 0.0345v-14.246z" style="fill:#686888;paint-order:stroke fill markers"/><path d="m99.194 231.86-5.5616-1.1667v-15.962l5.5616 3.4249v13.704" style="fill:#1c1c25;paint-order:stroke fill markers"/><path d="m97.235 205.31v13.857h14.863c2.7537-9e-5 4.986-3.1022 4.9859-6.9288-1.3e-4 -3.8264-2.2323-6.9282-4.9859-6.9283z" style="fill:#5b5b77;paint-order:stroke fill markers;stroke-linecap:round;stroke-linejoin:round;stroke-width:.18772"/><ellipse cx="97.816" cy="212.27" rx="6.0401" ry="7.0045" style="fill:#1c1c25;paint-order:stroke fill markers"/></g><g transform="translate(-.44539 .17668)"><path d="m111.6 100.39h5.9131c1.1471 0 2.0705 0.99894 2.0705 2.2398v3.9834c0 1.2408-0.92346 2.2398-2.0705 2.2398h-5.9131c-1.1471 0-2.0705-0.99894-2.0705-2.2398v-3.9834c0-1.2408 0.92346-2.2398 2.0705-2.2398z" style="fill:#f00;paint-order:stroke fill markers;stroke-linecap:round;stroke-linejoin:round;stroke-width:.18653"/><path d="m98.204 138.2h26.164l6.8598-1.1891h-26.228z" style="fill:#190923;paint-order:stroke fill markers"/><path d="m104.3 137.8c0-0.67128 20.1-0.78372 20.1 0v5.3219h-20.1z" style="fill:#4f4f69;paint-order:stroke fill markers;stroke-linecap:round;stroke-linejoin:round;stroke-width:.16518"/><path d="m108.55 107.21v3.2989h12.011v-3.2989c0-0.56761-2.2286-0.55132-5.5434-0.55132s-6.4672 2e-3 -6.4672 0.55132z" style="fill:#4f4f69;paint-order:stroke fill markers"/><path d="m105 108.58h26.228v28.433h-26.228z" style="fill:#717194;paint-order:stroke fill markers;stroke-linecap:round;stroke-linejoin:round;stroke-width:.194"/><path d="m105 108.58-6.796 3.2453v26.377l6.796-1.1891v-28.433" style="fill:#190923;paint-order:stroke fill markers"/><path d="m110.79 112.62a4.8777 4.8777 0 0 0-4.8777 4.8777 4.8777 4.8777 0 0 0 4.8777 4.8777 4.8777 4.8777 0 0 0 4.8772-4.8777 4.8777 4.8777 0 0 0-4.8772-4.8777zm0 1.1415a3.7362 3.7362 0 0 1 3.7362 3.7362 3.7362 3.7362 0 0 1-3.7362 3.7362 3.7362 3.7362 0 0 1-3.7362-3.7362 3.7362 3.7362 0 0 1 3.7362-3.7362z" style="fill:#510b0b;paint-order:stroke fill markers;stroke-linecap:round;stroke-linejoin:round;stroke-width:.194"/><path d="m111.32 112.62a4.8777 4.8777 0 0 0-4.8777 4.8777 4.8777 4.8777 0 0 0 4.8777 4.8777 4.8777 4.8777 0 0 0 4.8772-4.8777 4.8777 4.8777 0 0 0-4.8772-4.8777zm0 1.1415a3.7362 3.7362 0 0 1 3.7362 3.7362 3.7362 3.7362 0 0 1-3.7362 3.7362 3.7362 3.7362 0 0 1-3.7362-3.7362 3.7362 3.7362 0 0 1 3.7362-3.7362z" style="fill:#991515;paint-order:stroke fill markers;stroke-linecap:round;stroke-linejoin:round;stroke-width:.194"/><path d="m125.08 113.15a4.8777 4.8777 0 0 0-4.8777 4.8777 4.8777 4.8777 0 0 0 4.8777 4.8777 4.8777 4.8777 0 0 0 4.8777-4.8777 4.8777 4.8777 0 0 0-4.8777-4.8777zm0 1.1415a3.7362 3.7362 0 0 1 3.7362 3.7362 3.7362 3.7362 0 0 1-3.7362 3.7362 3.7362 3.7362 0 0 1-3.7362-3.7362 3.7362 3.7362 0 0 1 3.7362-3.7362z" style="fill:#510b0b;paint-order:stroke fill markers;stroke-linecap:round;stroke-linejoin:round;stroke-width:.194"/><path d="m113.17 117.5a1.8476 1.8476 0 0 1-1.8476 1.8476 1.8476 1.8476 0 0 1-1.8476-1.8476 1.8476 1.8476 0 0 1 1.8476-1.8476 1.8476 1.8476 0 0 1 1.8476 1.8476z" style="fill:#f90000;paint-order:stroke fill markers;stroke-linecap:round;stroke-linejoin:round;stroke-width:.073483"/><path d="m125.61 113.15a4.8777 4.8777 0 0 0-4.8777 4.8777 4.8777 4.8777 0 0 0 4.8777 4.8777 4.8777 4.8777 0 0 0 4.8777-4.8777 4.8777 4.8777 0 0 0-4.8777-4.8777zm0 1.1415a3.7362 3.7362 0 0 1 3.7362 3.7362 3.7362 3.7362 0 0 1-3.7362 3.7362 3.7362 3.7362 0 0 1-3.7362-3.7362 3.7362 3.7362 0 0 1 3.7362-3.7362z" style="fill:#991515;paint-order:stroke fill markers;stroke-linecap:round;stroke-linejoin:round;stroke-width:.194"/><path d="m127.46 118.03a1.8476 1.8476 0 0 1-1.8476 1.8476 1.8476 1.8476 0 0 1-1.8476-1.8476 1.8476 1.8476 0 0 1 1.8476-1.8476 1.8476 1.8476 0 0 1 1.8476 1.8476z" style="fill:#f00;paint-order:stroke fill markers;stroke-linecap:round;stroke-linejoin:round;stroke-width:.073483"/><path d="m109.48 127.74v2.8686h17.983v-2.8686zm0 3.175v2.868h17.983v-2.868z" style="fill:#333339;paint-order:stroke fill markers"/><path d="m110 127.74v2.8686h17.983v-2.8686zm0 3.175v2.868h17.983v-2.868z" style="fill:#ebebff;paint-order:stroke fill markers"/></g><ellipse transform="rotate(239.65)" cx="-203.09" cy="48.511" rx="2.7525" ry="9.0649" style="fill:#f00;paint-order:stroke fill markers"/><path d="m136.64 155.31c0.17312 0.29567 0.2511-0.11625 0.54678-0.28936l14.578-8.5351c0.29568-0.17311 0.48863-0.38967 0.48863-0.38967l-2.896-4.9465c-0.76829-1.3116-4.8932-0.32448-9.2135 2.2049-4.3201 2.5293-7.1996 5.6431-6.4319 6.955 0.87916 1.4333 2.0509 3.503 2.9278 5.0008z" style="fill:#991515;paint-order:stroke fill markers;stroke-linecap:round;stroke-linejoin:round;stroke-width:.194"/><path d="m147.57 150.8 8.8792-3.6342 4.8006-5.0001-15.044 5.6663z" style="fill:#1c1c25;paint-order:stroke fill markers"/><path d="m151.74 145.75 9.5122-3.5828 5.0575-6.7066-1.9441-3.3206-5.2431 6.359-9.3411 3.4946z" style="fill:#717194;paint-order:stroke fill markers"/><path d="m143.08 148.38a2.7525 9.0649 59.652 0 1 9.2135-2.2047 2.7525 9.0649 59.652 0 1-6.4322 6.9553 2.7525 9.0649 59.652 0 1-9.2135 2.2047 2.7525 9.0649 59.652 0 1 6.4322-6.9553z" style="fill:#590000;paint-order:stroke fill markers;stroke-linecap:round;stroke-linejoin:round;stroke-width:.194"/><path d="m166.31 135.46c0.12802 0.21867 0.40691 0.29187 0.62558 0.16384l10.781-6.3122c0.21868-0.12803 0.29167-0.40724 0.16365-0.62591l-1.7129-2.9257c-0.0384-0.0656-0.0905-0.11767-0.15039-0.15553a2.0356 6.704 59.652 0 0-0.0807-0.23925 2.0356 6.704 59.652 0 0-6.8139 1.6307 2.0356 6.704 59.652 0 0-4.7568 5.1436 2.0356 6.704 59.652 0 0 0.1692 0.18746c4e-3 0.0708 0.0235 0.14171 0.0619 0.20732z" style="fill:#991515;paint-order:stroke fill markers;stroke-linecap:round;stroke-linejoin:round;stroke-width:.14347"/><path d="m167.88 140.19 5.474-5.9642-7.0448 1.2358-5.0576 6.7065z" style="fill:#1c1c25;paint-order:stroke fill markers"/><path d="m171.3 130.71a2.0356 6.704 59.652 0 1 6.8139-1.6305 2.0356 6.704 59.652 0 1-4.7569 5.1438 2.0356 6.704 59.652 0 1-6.8139 1.6305 2.0356 6.704 59.652 0 1 4.7569-5.1438z" style="fill:#590000;paint-order:stroke fill markers;stroke-linecap:round;stroke-linejoin:round;stroke-width:.14347"/><path d="m161.25 142.17a2.0356 6.704 59.652 0 1 6.8139-1.6305 2.0356 6.704 59.652 0 1-4.7569 5.1438 2.0356 6.704 59.652 0 1-6.8139 1.6305 2.0356 6.704 59.652 0 1 4.7569-5.1439z" style="fill:#590000;paint-order:stroke fill markers;stroke-linecap:round;stroke-linejoin:round;stroke-width:.14347"/><g transform="rotate(242.39 112.71 131.34)"><path d="m88.669 172.83c-0.43341 0-0.03399 0.34839-0.03399 0.78181l-2.0081 5.7773h12.519c-0.55843-3.8768-1.7574-6.5588-3.1468-6.5591-2.1265 0.0436-5.1344 0-7.3298 0zm-2.0421 16.375 2.0081 5.776c0.14233 0.40938 0.11309 0.78246 0.11309 0.78246h7.2507c1.3895-2.8e-4 2.5884-2.6817 3.1468-6.5584z" style="fill:#991515;paint-order:stroke fill markers;stroke-linecap:round;stroke-linejoin:round;stroke-width:.2454"/><path d="m88.669 172.83a3.4817 11.467 0 0 0-3.1449 6.5591h1.5061a2.2155 7.2964 0 0 1 0.05753-0.19545 2.2155 7.2964 0 0 1 0.05557-0.18172 2.2155 7.2964 0 0 1 0.06341-0.19153 2.2155 7.2964 0 0 1 0.05883-0.16277 2.2155 7.2964 0 0 1 0.06994-0.18369 2.2155 7.2964 0 0 1 0.05883-0.13858 2.2155 7.2964 0 0 1 0.10524-0.23009 2.2155 7.2964 0 0 1 0.0987-0.1935 2.2155 7.2964 0 0 1 0.05883-0.10006 2.2155 7.2964 0 0 1 0.08498-0.13793 2.2155 7.2964 0 0 1 0.06668-0.0974 2.2155 7.2964 0 0 1 0.09871-0.12612 2.2155 7.2964 0 0 1 0.05621-0.0687 2.2155 7.2964 0 0 1 0.151-0.14773 2.2155 7.2964 0 0 1 0.05099-0.0386 2.2155 7.2964 0 0 1 0.11113-0.0765 2.2155 7.2964 0 0 1 0.06275-0.0334 2.2155 7.2964 0 0 1 0.10917-0.0452 2.2155 7.2964 0 0 1 0.05557-0.0177 2.2155 7.2964 0 0 1 0.16473-0.0223 2.2155 7.2964 0 0 1 0.13662 0.0144 2.2155 7.2964 0 0 1 0.01176 3e-3 2.2155 7.2964 0 0 1 0.12943 0.0412 2.2155 7.2964 0 0 1 0.0099 4e-3 2.2155 7.2964 0 0 1 0.13531 0.0726 2.2155 7.2964 0 0 1 0.0013 6.5e-4 2.2155 7.2964 0 0 1 0.13727 0.10334 2.2155 7.2964 0 0 1 0.13335 0.13075 2.2155 7.2964 0 0 1 0.0027 3e-3 2.2155 7.2964 0 0 1 2e-3 3e-3 2.2155 7.2964 0 0 1 0.13139 0.1582 2.2155 7.2964 0 0 1 0.0027 4e-3 2.2155 7.2964 0 0 1 0.12682 0.1863 2.2155 7.2964 0 0 1 0.12289 0.20983 2.2155 7.2964 0 0 1 0.0033 6e-3 2.2155 7.2964 0 0 1 0.0033 6e-3 2.2155 7.2964 0 0 1 0.34514 0.79423 2.2155 7.2964 0 0 1 0.10524 0.31442 2.2155 7.2964 0 0 1 0.0987 0.33534h1.5074a3.4817 11.467 0 0 0-3.1462-6.5591zm-3.1449 16.375a3.4817 11.467 0 0 0 3.1449 6.5591 3.4817 11.467 0 0 0 3.1462-6.5591h-1.5074a2.2155 7.2964 0 0 1-0.0987 0.33534 2.2155 7.2964 0 0 1-0.10524 0.31443 2.2155 7.2964 0 0 1-0.11113 0.29089 2.2155 7.2964 0 0 1-0.11635 0.26735 2.2155 7.2964 0 0 1-0.11374 0.22749 2.2155 7.2964 0 0 1-0.01503 0.0287 2.2155 7.2964 0 0 1-0.11832 0.20199 2.2155 7.2964 0 0 1-0.12551 0.18433 2.2155 7.2964 0 0 1-0.0013 1e-3 2.2155 7.2964 0 0 1-0.0027 4e-3 2.2155 7.2964 0 0 1-0.0066 9e-3 2.2155 7.2964 0 0 1-0.12485 0.14968 2.2155 7.2964 0 0 1-2e-3 3e-3 2.2155 7.2964 0 0 1-0.0027 3e-3 2.2155 7.2964 0 0 1-0.12878 0.12611 2.2155 7.2964 0 0 1-0.0046 5e-3 2.2155 7.2964 0 0 1-0.0033 3e-3 2.2155 7.2964 0 0 1-0.134 0.10069 2.2155 7.2964 0 0 1-0.0013 6.6e-4 2.2155 7.2964 0 0 1-0.13531 0.0726 2.2155 7.2964 0 0 1-0.0099 4e-3 2.2155 7.2964 0 0 1-0.12943 0.0411 2.2155 7.2964 0 0 1-0.01176 3e-3 2.2155 7.2964 0 0 1-0.13662 0.0144 2.2155 7.2964 0 0 1-0.16473-0.0223 2.2155 7.2964 0 0 1-0.0536-0.0176 2.2155 7.2964 0 0 1-0.11571-0.0477 2.2155 7.2964 0 0 1-0.05425-0.0287 2.2155 7.2964 0 0 1-0.12551-0.0869 2.2155 7.2964 0 0 1-0.03791-0.0281 2.2155 7.2964 0 0 1-0.15362-0.15035 2.2155 7.2964 0 0 1-0.05621-0.0679 2.2155 7.2964 0 0 1-0.0987-0.12611 2.2155 7.2964 0 0 1-0.06537-0.0961 2.2155 7.2964 0 0 1-0.09152-0.14839 2.2155 7.2964 0 0 1-0.05099-0.0863 2.2155 7.2964 0 0 1-0.11571-0.22618 2.2155 7.2964 0 0 1-0.07844-0.17388 2.2155 7.2964 0 0 1-0.07387-0.17322 2.2155 7.2964 0 0 1-0.06472-0.16996 2.2155 7.2964 0 0 1-0.0621-0.17258 2.2155 7.2964 0 0 1-0.06276-0.18891 2.2155 7.2964 0 0 1-0.05557-0.18173 2.2155 7.2964 0 0 1-0.05753-0.19546z" style="fill:#590000;paint-order:stroke fill markers;stroke-linecap:round;stroke-linejoin:round;stroke-width:.2454"/></g><path d="m95.831 109.44c0.34263 0 0.61846 0.27583 0.61846 0.61846v8.0512c0 0.34263-0.27583 0.61846-0.61846 0.61846s-0.61846-0.27583-0.61846-0.61846v-8.0512c0-0.34263 0.27583-0.61846 0.61846-0.61846z" style="fill:#7c7c7c;paint-order:stroke fill markers;stroke-linecap:round;stroke-linejoin:round;stroke-width:.194"/><circle cx="95.831" cy="107.66" r="2.4997" style="fill:#f00;paint-order:stroke fill markers"/><path d="m98.176 115.91 3.4628-1.3645c2.3897 0 2.5221 14.872 0 14.872l-3.4628-1.3645" style="fill:#991515;paint-order:stroke fill markers"/><ellipse cx="98.176" cy="121.98" rx="1.6348" ry="6.0717" style="fill:#590000;paint-order:stroke fill markers"/><path d="m95.502 117.48 2.5654-1.0109c1.7704 0 1.8685 11.018 0 11.018l-2.5654-1.0109" style="fill:#991515;paint-order:stroke fill markers"/><ellipse cx="95.502" cy="121.98" rx="1.2111" ry="4.4982" style="fill:#590000;paint-order:stroke fill markers"/><path d="m93.574 118.7 1.8751-0.73889c1.294 0 1.3658 8.0536 0 8.0536l-1.8751-0.73888" style="fill:#991515;paint-order:stroke fill markers"/><ellipse cx="93.574" cy="121.98" rx=".88527" ry="3.2879" style="fill:#590000;paint-order:stroke fill markers"/><g transform="translate(-.44539 .17668)"><rect x="95.633" y="141.65" width="47.069" height="50.732" style="fill:#717194;paint-order:stroke fill markers"/><path d="m95.633 141.65-7.0602 1.491v49.134l7.0602 0.10686-2e-6 -50.732" style="fill:#1c1c25;paint-order:stroke fill markers"/></g><path transform="translate(13.077,14.319)" d="m105.45 133.92-4.9382 10.03-11.062 1.6185 8.0135 7.7959-1.879 11.021 9.8909-5.2121 9.9012 5.193-1.9012-11.017 7.9985-7.8119-11.065-1.5968zm3e-3 2.512 4.2178 8.5256 9.4144 1.3586-6.8048 6.6461 1.617 9.3736-8.4232-4.4183-8.415 4.4349 1.5984-9.3767-6.8177-6.6327 9.4118-1.3772z" style="fill:#f00;paint-order:stroke fill markers;stroke-linecap:round;stroke-linejoin:round;stroke-width:.194"/><path transform="matrix(.71612 0 0 .71612 43.019 57.114)" d="m105.45 133.92-4.938 10.031-11.062 1.6186 8.0136 7.7964-1.8791 11.021 9.8905-5.2123 9.9013 5.1928-1.9008-11.018 7.9984-7.8115-11.065-1.597zm4e-3 3.6269 3.8902 7.862 8.6818 1.2527-6.2752 6.1294 1.4909 8.6443-7.7682-4.0743-7.7603 4.0894 1.4743-8.6472-6.2875-6.1164 8.6796-1.27z" style="fill:#fff;paint-order:stroke fill markers;stroke-linecap:round;stroke-linejoin:round;stroke-width:.194"/><path transform="matrix(.4209 0 0 .4209 74.155 101.62)" d="m105.46 133.92-4.938 10.031-11.063 1.6194 8.0136 7.795-1.8785 11.022 9.8908-5.2118 9.9006 5.1922-1.9006-11.017 7.9976-7.8122-11.065-1.5973zm4e-3 4.9184 3.5102 7.094 7.8343 1.1295-5.6624 5.531 1.3456 7.7987-7.0093-3.6759-7.0019 3.6894 1.3297-7.8012-5.6722-5.52 7.8306-1.1455z" style="fill:#0013ff;paint-order:stroke fill markers;stroke-linecap:round;stroke-linejoin:round;stroke-width:.194"/><ellipse transform="rotate(32)" cx="150.06" cy="78.901" rx="2.7525" ry="9.0649" style="fill:#f00;paint-order:stroke fill markers"/><path d="m90.274 138.76c-0.29056-0.18156-0.16847 0.2195-0.35003 0.51007l-8.9519 14.326c-0.18156 0.29057-0.25197 0.57195-0.25197 0.57195l4.861 3.0375c1.2893 0.80526 4.4849-1.9836 7.1378-6.2292 2.6527-4.2454 3.7583-8.3399 2.4694-9.1457-1.444-0.8616-3.4425-2.1511-4.9143-3.0708z" style="fill:#991515;paint-order:stroke fill markers;stroke-linecap:round;stroke-linejoin:round;stroke-width:.194"/><path d="m82.678 147.83-6.1783 7.34-1.9317 6.657 10.695-12.001z" style="fill:#1c1c25;paint-order:stroke fill markers"/><path d="m81.33 154.23-6.7629 7.5883-1.3673 8.2878 3.2631 2.039 1.693-8.066 6.6523-7.4308z" style="fill:#717194;paint-order:stroke fill markers"/><path d="m87.782 147.89a2.7525 9.0649 32 0 1-7.1379 6.2289 2.7525 9.0649 32 0 1 2.4695-9.1461 2.7525 9.0649 32 0 1 7.1379-6.2289 2.7525 9.0649 32 0 1-2.4695 9.1461z" style="fill:#590000;paint-order:stroke fill markers;stroke-linecap:round;stroke-linejoin:round;stroke-width:.194"/><path d="m73.2 170.11c-0.21489-0.13427-0.49589-0.0697-0.63017 0.14521l-6.6204 10.595c-0.13428 0.21489-0.06935 0.49609 0.14554 0.63037l2.8751 1.7966c0.06447 0.0403 0.13473 0.0623 0.20539 0.068a2.0356 6.704 32 0 0 0.18256 0.17446 2.0356 6.704 32 0 0 5.2788-4.6068 2.0356 6.704 32 0 0 1.8263-6.7637 2.0356 6.704 32 0 0-0.23688-0.0875c-0.03617-0.0609-0.0866-0.11461-0.15107-0.15489z" style="fill:#991515;paint-order:stroke fill markers;stroke-linecap:round;stroke-linejoin:round;stroke-width:.14347"/><path d="m69.614 166.65-2.0808 7.8235 5.6666-4.3642 1.3673-8.2877z" style="fill:#1c1c25;paint-order:stroke fill markers"/><path d="m70.986 176.63a2.0356 6.704 32 0 1-5.2789 4.6066 2.0356 6.704 32 0 1 1.8263-6.764 2.0356 6.704 32 0 1 5.2789-4.6066 2.0356 6.704 32 0 1-1.8263 6.764z" style="fill:#590000;paint-order:stroke fill markers;stroke-linecap:round;stroke-linejoin:round;stroke-width:.14347"/><path d="m74.571 161.82a2.0356 6.704 32 0 1-5.2789 4.6066 2.0356 6.704 32 0 1 1.8263-6.764 2.0356 6.704 32 0 1 5.2789-4.6066 2.0356 6.704 32 0 1-1.8263 6.764z" style="fill:#590000;paint-order:stroke fill markers;stroke-linecap:round;stroke-linejoin:round;stroke-width:.14347"/><g transform="rotate(34.737,89.609,155.9)"><path d="m88.669 172.83c-0.43341 0-0.03399 0.34839-0.03399 0.78181l-2.0081 5.7773h12.519c-0.55843-3.8768-1.7574-6.5588-3.1468-6.5591-2.1265 0.0436-5.1344 0-7.3298 0zm-2.0421 16.375 2.0081 5.776c0.14233 0.40938 0.11309 0.78246 0.11309 0.78246h7.2507c1.3895-2.8e-4 2.5884-2.6817 3.1468-6.5584z" style="fill:#991515;paint-order:stroke fill markers;stroke-linecap:round;stroke-linejoin:round;stroke-width:.2454"/><path d="m88.669 172.83a3.4817 11.467 0 0 0-3.1449 6.5591h1.5061a2.2155 7.2964 0 0 1 0.05753-0.19545 2.2155 7.2964 0 0 1 0.05557-0.18172 2.2155 7.2964 0 0 1 0.06341-0.19153 2.2155 7.2964 0 0 1 0.05883-0.16277 2.2155 7.2964 0 0 1 0.06994-0.18369 2.2155 7.2964 0 0 1 0.05883-0.13858 2.2155 7.2964 0 0 1 0.10524-0.23009 2.2155 7.2964 0 0 1 0.0987-0.1935 2.2155 7.2964 0 0 1 0.05883-0.10006 2.2155 7.2964 0 0 1 0.08498-0.13793 2.2155 7.2964 0 0 1 0.06668-0.0974 2.2155 7.2964 0 0 1 0.09871-0.12612 2.2155 7.2964 0 0 1 0.05621-0.0687 2.2155 7.2964 0 0 1 0.151-0.14773 2.2155 7.2964 0 0 1 0.05099-0.0386 2.2155 7.2964 0 0 1 0.11113-0.0765 2.2155 7.2964 0 0 1 0.06275-0.0334 2.2155 7.2964 0 0 1 0.10917-0.0452 2.2155 7.2964 0 0 1 0.05557-0.0177 2.2155 7.2964 0 0 1 0.16473-0.0223 2.2155 7.2964 0 0 1 0.13662 0.0144 2.2155 7.2964 0 0 1 0.01176 3e-3 2.2155 7.2964 0 0 1 0.12943 0.0412 2.2155 7.2964 0 0 1 0.0099 4e-3 2.2155 7.2964 0 0 1 0.13531 0.0726 2.2155 7.2964 0 0 1 0.0013 6.5e-4 2.2155 7.2964 0 0 1 0.13727 0.10334 2.2155 7.2964 0 0 1 0.13335 0.13075 2.2155 7.2964 0 0 1 0.0027 3e-3 2.2155 7.2964 0 0 1 2e-3 3e-3 2.2155 7.2964 0 0 1 0.13139 0.1582 2.2155 7.2964 0 0 1 0.0027 4e-3 2.2155 7.2964 0 0 1 0.12682 0.1863 2.2155 7.2964 0 0 1 0.12289 0.20983 2.2155 7.2964 0 0 1 0.0033 6e-3 2.2155 7.2964 0 0 1 0.0033 6e-3 2.2155 7.2964 0 0 1 0.34514 0.79423 2.2155 7.2964 0 0 1 0.10524 0.31442 2.2155 7.2964 0 0 1 0.0987 0.33534h1.5074a3.4817 11.467 0 0 0-3.1462-6.5591zm-3.1449 16.375a3.4817 11.467 0 0 0 3.1449 6.5591 3.4817 11.467 0 0 0 3.1462-6.5591h-1.5074a2.2155 7.2964 0 0 1-0.0987 0.33534 2.2155 7.2964 0 0 1-0.10524 0.31443 2.2155 7.2964 0 0 1-0.11113 0.29089 2.2155 7.2964 0 0 1-0.11635 0.26735 2.2155 7.2964 0 0 1-0.11374 0.22749 2.2155 7.2964 0 0 1-0.01503 0.0287 2.2155 7.2964 0 0 1-0.11832 0.20199 2.2155 7.2964 0 0 1-0.12551 0.18433 2.2155 7.2964 0 0 1-0.0013 1e-3 2.2155 7.2964 0 0 1-0.0027 4e-3 2.2155 7.2964 0 0 1-0.0066 9e-3 2.2155 7.2964 0 0 1-0.12485 0.14968 2.2155 7.2964 0 0 1-2e-3 3e-3 2.2155 7.2964 0 0 1-0.0027 3e-3 2.2155 7.2964 0 0 1-0.12878 0.12611 2.2155 7.2964 0 0 1-0.0046 5e-3 2.2155 7.2964 0 0 1-0.0033 3e-3 2.2155 7.2964 0 0 1-0.134 0.10069 2.2155 7.2964 0 0 1-0.0013 6.6e-4 2.2155 7.2964 0 0 1-0.13531 0.0726 2.2155 7.2964 0 0 1-0.0099 4e-3 2.2155 7.2964 0 0 1-0.12943 0.0411 2.2155 7.2964 0 0 1-0.01176 3e-3 2.2155 7.2964 0 0 1-0.13662 0.0144 2.2155 7.2964 0 0 1-0.16473-0.0223 2.2155 7.2964 0 0 1-0.0536-0.0176 2.2155 7.2964 0 0 1-0.11571-0.0477 2.2155 7.2964 0 0 1-0.05425-0.0287 2.2155 7.2964 0 0 1-0.12551-0.0869 2.2155 7.2964 0 0 1-0.03791-0.0281 2.2155 7.2964 0 0 1-0.15362-0.15035 2.2155 7.2964 0 0 1-0.05621-0.0679 2.2155 7.2964 0 0 1-0.0987-0.12611 2.2155 7.2964 0 0 1-0.06537-0.0961 2.2155 7.2964 0 0 1-0.09152-0.14839 2.2155 7.2964 0 0 1-0.05099-0.0863 2.2155 7.2964 0 0 1-0.11571-0.22618 2.2155 7.2964 0 0 1-0.07844-0.17388 2.2155 7.2964 0 0 1-0.07387-0.17322 2.2155 7.2964 0 0 1-0.06472-0.16996 2.2155 7.2964 0 0 1-0.0621-0.17258 2.2155 7.2964 0 0 1-0.06276-0.18891 2.2155 7.2964 0 0 1-0.05557-0.18173 2.2155 7.2964 0 0 1-0.05753-0.19546z" style="fill:#590000;paint-order:stroke fill markers;stroke-linecap:round;stroke-linejoin:round;stroke-width:.2454"/></g></g></svg>
