<?xml version="1.0" encoding="UTF-8" standalone="no"?>
<!-- Created with Inkscape (http://www.inkscape.org/) -->

<svg
   width="2980"
   height="600"
   viewBox="0 0 788.45833 158.75"
   version="1.1"
   id="svg1"
   inkscape:version="1.3.2 (091e20ef0f, 2023-11-25, custom)"
   sodipodi:docname="wordMark-border.svg"
   xmlns:inkscape="http://www.inkscape.org/namespaces/inkscape"
   xmlns:sodipodi="http://sodipodi.sourceforge.net/DTD/sodipodi-0.dtd"
   xmlns="http://www.w3.org/2000/svg"
   xmlns:svg="http://www.w3.org/2000/svg">
  <sodipodi:namedview
     id="namedview1"
     pagecolor="#505050"
     bordercolor="#ffffff"
     borderopacity="1"
     inkscape:showpageshadow="0"
     inkscape:pageopacity="0"
     inkscape:pagecheckerboard="1"
     inkscape:deskcolor="#505050"
     inkscape:document-units="px"
     inkscape:zoom="0.28908179"
     inkscape:cx="1006.6355"
     inkscape:cy="1138.0862"
     inkscape:window-width="2560"
     inkscape:window-height="1564"
     inkscape:window-x="0"
     inkscape:window-y="0"
     inkscape:window-maximized="1"
     inkscape:current-layer="layer1" />
  <defs
     id="defs1" />
  <g
     inkscape:label="Layer 1"
     inkscape:groupmode="layer"
     id="layer1">
    <g
       id="g150"
       transform="matrix(0.61924215,0,0,0.61896535,-23.178107,-40.478363)">
      <g
         id="g149"
         inkscape:label="logo &amp; tagline"
         transform="translate(17.737794,-19.49277)"
         style="fill:#000000;fill-opacity:1;stroke:none">
        <path
           d="m 795,94.933 c -5.8961,-0.03379 -11.553,1.1849 -16.956,3.6585 -5.4298,2.4858 -10.172,6.096 -14.212,10.828 -4.0056,4.678 -7.0819,10.405 -9.2257,17.176 -2.0992,6.7145 -2.8248,14.309 -2.1922,22.776 0.20245,2.7098 0.57283,5.3154 1.0588,7.8494 l 35.885,-5.3005 c -0.68056,-0.9151 -1.1074,-2.0411 -1.2448,-3.4026 -0.14313,-1.3415 0.0457,-2.5125 0.56516,-3.5122 0.51971,-0.99931 1.2389,-1.7887 2.1591,-2.3694 0.91474,-0.65083 1.9717,-1.1631 3.1692,-1.5343 1.1961,-0.37089 2.3725,-0.63416 3.5274,-0.79154 1.2019,-0.22824 2.3297,-0.34944 3.3848,-0.36357 1.1021,-0.0851 1.995,-0.13236 2.6788,-0.14092 3.7281,-0.0474 7.557,0.46951 11.482,1.5466 3.9594,1.003 7.7384,2.2884 11.336,3.8531 0.15567,-14.096 0.32212,-28.192 0.49728,-42.287 -2.3688,-1.4796 -4.8613,-2.7194 -7.4769,-3.7162 -2.6217,-0.99886 -5.3184,-1.8231 -8.0922,-2.4737 -2.7278,-0.65173 -5.4776,-1.0927 -8.247,-1.3221 -2.7809,-0.30029 -5.481,-0.45731 -8.0977,-0.47143 z m 159.38,5.4364 c -1.6696,-0.003 -3.3231,0.027 -4.9614,0.0906 -3.2421,0.066 -6.4636,0.36853 -9.6638,0.90634 -3.165,0.47516 -6.3301,1.2197 -9.4938,2.2354 -3.1732,1.0188 -6.391,2.3411 -9.6517,3.97 -0.0135,7.6447 0.0693,15.227 0.2451,22.747 0.002,0.0825 0.0413,1.7604 0.0502,2.1762 l 72.01,-10.635 c -1.6075,-2.9126 -3.4153,-5.5632 -5.4708,-7.893 -3.7348,-4.2325 -8.0359,-7.4659 -12.905,-9.6918 -4.8466,-2.2988 -9.8838,-3.5643 -15.101,-3.7891 -1.7003,-0.0733 -3.3859,-0.11245 -5.0554,-0.11643 z m -238.37,0.26796 c -16.149,1.2635 -32.289,2.6086 -48.424,4.0324 -3.2736,22.212 -6.4499,44.429 -9.5838,66.652 l 38.48,-5.6816 c 0.16306,-2.0718 0.3205,-4.144 0.48503,-6.2159 0.51248,1.9726 1.0183,3.9456 1.5298,5.9184 l 35.751,-5.2797 c -6.0347,-19.815 -12.09,-39.628 -18.239,-59.426 z m 117.55,0.26965 c 0.54657,14.748 1.0961,29.496 1.6481,44.245 l 80.207,-11.845 c -0.20983,-10.3 -0.42055,-20.6 -0.62758,-30.901 -27.057,-0.75746 -54.133,-1.2522 -81.227,-1.4979 z m -187.17,1.4126 c -34.454,1.0438 -68.913,2.4393 -103.37,4.1595 1.73,18.404 3.4652,36.806 5.203,55.213 9.5254,-1.2847 19.053,-2.5448 28.586,-3.7784 0.90559,8.3325 1.8113,16.664 2.7172,24.997 l 44.422,-6.5601 c -0.29113,-7.8944 -0.60529,-15.788 -0.89171,-23.682 8.9959,-0.93333 17.994,-1.8426 26.993,-2.7278 -1.2234,-15.873 -2.4433,-31.746 -3.6611,-47.621 z m -112.67,4.8466 c -15.47,0.28615 -30.944,0.63742 -46.42,1.0508 3.5654,28.912 7.1328,57.82 10.7,86.729 l 46.712,-6.8979 c -3.6659,-26.961 -7.3149,-53.925 -10.996,-80.884 z m 598.79,4.4884 -37.382,6.1167 c -0.2257,6.6648 -0.3616,13.297 -0.3703,19.881 -0.01,7.4985 -0.077,14.992 -0.2051,22.485 -0.1706,14.19 -0.3196,28.262 -0.4484,42.21 -0.1299,13.949 -0.2388,27.96 -0.3289,42.036 8.9504,0.0635 17.899,0.16129 26.844,0.2938 l 0.5892,-42.354 c 3.0597,0.0531 6.1712,-0.19095 9.3353,-0.72895 3.1546,-0.59645 6.1917,-1.5515 9.1181,-2.8652 2.9558,-1.3679 5.728,-3.1566 8.3183,-5.3636 2.5837,-2.2007 4.8419,-4.9173 6.7781,-8.1502 1.9692,-3.2242 3.5471,-7.0306 4.7321,-11.419 1.1835,-4.3833 1.8505,-9.4507 1.994,-15.206 v -0.002 c 0.1313,-5.2816 -0.2328,-10.065 -1.1004,-14.355 -0.8294,-4.3514 -2.0292,-8.2614 -3.6055,-11.729 -1.5787,-3.4733 -3.4984,-6.501 -5.7596,-9.0845 -2.2268,-2.6461 -4.6816,-4.8965 -7.3674,-6.7481 -2.6549,-1.8535 -5.4658,-3.2705 -8.4296,-4.2481 -0.9007,-0.31544 -1.8063,-0.52385 -2.7101,-0.76721 z m -751.43,1.2856 c -1.9776,0.0168 -3.9319,0.097 -5.8656,0.24172 -13.772,1.0313 -25.677,4.7559 -35.632,11.167 -9.9554,6.4555 -17.902,14.855 -23.8,25.181 -5.9311,10.383 -9.8025,22.255 -11.611,35.598 -1.6844,12.253 -1.5802,25.069 0.24156,38.418 l 55.319,-8.1694 c -0.12985,-0.65842 -0.26694,-1.3053 -0.37023,-1.9971 -1.0095,-6.7741 -0.7623,-12.795 0.74755,-18.056 1.5823,-5.2597 4.0387,-9.7526 7.3674,-13.479 3.3939,-3.723 7.47,-6.6181 12.22,-8.6807 4.7199,-2.1382 9.8037,-3.4615 15.243,-3.9735 2.1255,-0.19996 4.2664,-0.27536 6.4199,-0.22621 2.1501,0.0491 4.3243,0.30398 6.5246,0.76542 -0.39428,-17.458 -0.7716,-34.916 -1.1318,-52.378 -4.8831,-2.1315 -10.084,-3.4559 -15.602,-3.9666 -3.4168,-0.32385 -6.7747,-0.47109 -10.071,-0.44189 z m 86.902,2.9539 c -17.054,0.17137 -34.115,0.41685 -51.177,0.73412 3.3584,29.608 6.7562,59.213 10.135,88.819 l 48.7,-7.192 c -2.5664,-27.452 -5.1211,-54.908 -7.6596,-82.36 z m 699.22,3.608 c -1.8064,41.595 -3.5856,83.191 -5.3423,124.79 8.0033,0.22017 16.003,0.4691 24.002,0.74622 0.6653,-12.794 1.3335,-25.589 2.0045,-38.384 4.0657,0.22592 8.1309,0.45877 12.195,0.6993 -0.4192,13.417 -0.8411,26.834 -1.2621,40.25 8.5797,-0.36654 17.164,-0.69914 25.749,-0.99854 1.266,-40.87 2.5098,-81.74 3.7358,-122.61 -8.0553,-1.2485 -16.115,-2.4681 -24.182,-3.6601 -0.8591,22.403 -1.7169,44.807 -2.5746,67.208 -3.9399,-0.27565 -7.882,-0.54524 -11.823,-0.80731 1.2327,-20.92 2.4749,-41.841 3.7274,-62.761 -8.7343,-1.5227 -17.477,-3.013 -26.23,-4.4707 z m -874.96,2.4998 c -38.119,3.3674 -76.202,7.0511 -114.24,11.015 5.3721,35.607 10.78,71.207 16.173,106.81 l 92.879,-13.717 c -1.1129,-11.848 -2.224,-23.697 -3.3291,-35.546 -11.99,1.3779 -23.979,2.7871 -35.962,4.2257 -0.4933,-5.5104 -0.98645,-11.021 -1.4777,-16.533 16.844,-2.8752 33.703,-5.6917 50.575,-8.4461 -0.62994,-8.0759 -1.3633,-16.052 -2.1991,-23.927 -0.83579,-7.8739 -1.6434,-15.833 -2.4234,-23.881 z m 775.67,0.22455 -43.014,7.0387 c -1.1238,1.4446 -2.2053,2.9719 -3.223,4.6257 -2.3719,3.8543 -4.3914,8.1162 -6.0552,12.783 -1.6232,4.6762 -2.8469,9.6927 -3.6733,15.047 -0.8283,5.294 -1.1953,10.729 -1.1073,16.304 0.09,5.7028 0.6498,11.188 1.6759,16.45 1.0679,5.2576 2.4929,10.194 4.2644,14.805 1.81,4.5397 3.9453,8.6894 6.4008,12.451 2.4906,3.6883 5.2344,6.8607 8.2299,9.5193 2.986,2.5873 6.157,4.6004 9.5164,6.042 3.389,1.4365 6.9216,2.1476 10.599,2.1398 3.7857,-0.007 7.3497,-0.76097 10.702,-2.2562 3.3404,-1.5525 6.4098,-3.6861 9.2175,-6.4037 2.8392,-2.7092 5.3796,-5.9379 7.6213,-9.6864 2.2763,-3.801 4.1982,-7.971 5.7663,-12.508 1.6053,-4.5286 2.8413,-9.3681 3.7013,-14.521 0.8594,-5.2098 1.3031,-10.616 1.3333,-16.22 0.047,-8.9934 -0.8461,-17.167 -2.7033,-24.536 -1.8202,-7.4425 -4.4498,-13.83 -7.8978,-19.164 -3.129,-4.9526 -6.9316,-8.8916 -11.354,-11.908 z m 168.38,1.2908 c -2.4499,41.099 -4.8792,82.195 -7.2895,123.29 14.144,0.11805 28.288,0.32891 42.431,0.63318 0.515,-6.0621 1.045,-12.094 1.5907,-18.095 0.5807,-6.0536 1.1497,-12.135 1.7036,-18.243 -2.8504,-0.23609 -5.7022,-0.46909 -8.5529,-0.69767 -4.0653,-0.32581 -8.1334,-0.6444 -12.2,-0.95501 0.3812,-4.0992 0.7651,-8.1986 1.1475,-12.298 4.9409,0.13133 9.8824,0.27299 14.824,0.42616 0.8524,-8.6202 1.7059,-17.24 2.5641,-25.86 -4.92,-0.50613 -9.8417,-1.0016 -14.765,-1.4856 0.3545,-3.5288 0.7116,-7.0571 1.0674,-10.586 7.0281,0.11717 14.055,0.25583 21.085,0.41753 0.5718,-5.1971 1.0924,-10.343 1.5611,-15.438 0.4689,-5.0938 0.9591,-10.239 1.4689,-15.438 -15.529,-1.9974 -31.076,-3.8879 -46.638,-5.6709 z m -230.05,8.7992 -31.888,5.2173 c 0.56235,0.61228 1.094,1.2712 1.5525,2.0337 1.0773,1.6555 1.89,3.6279 2.439,5.9184 0.59393,2.2902 0.92285,4.8008 0.98748,7.5328 0.0767,3.2522 -0.37392,6.0413 -1.3474,8.3661 -0.92979,2.3279 -2.1824,4.2304 -3.7603,5.7078 -1.5355,1.4805 -3.3055,2.5692 -5.3144,3.267 -1.9677,0.69973 -3.9276,1.0422 -5.876,1.0264 -0.54465,-0.003 -1.0893,-0.0101 -1.6341,-0.0135 0.0162,-10.576 0.0339,-21.153 0.0546,-31.727 l -31.33,5.1267 c 0.0885,3.7289 0.18755,7.9943 0.19463,8.3084 0.26237,15.177 0.54864,30.291 0.85896,45.343 0.35665,15.053 0.69501,30.176 1.0152,45.371 9.7432,-0.33806 19.484,-0.63953 29.223,-0.9047 0.0101,-13.665 0.0207,-27.331 0.0369,-40.997 2.7812,-0.15007 5.5632,-0.29748 8.3444,-0.44195 3.7936,13.841 7.5517,27.687 11.272,41.537 9.6443,-3.0392 19.30803,-6.0413 28.99103,-9.0061 -5.333,-13.647 -10.72203,-27.283 -16.16503,-40.905 2.7874,-2.6297 5.1564,-5.381 7.10863,-8.2581 1.9481,-2.8715 3.5225,-5.999 4.7249,-9.3837 1.2008,-3.3805 2.0531,-7.0853 2.5519,-11.115 0.5409,-4.09 0.771,-8.6344 0.6901,-13.635 -0.1106,-6.8263 -1.0482,-12.919 -2.7293,-18.367 z m -838.31,3.3818 c -49.517,5.3504 -98.941,11.172 -148.24,17.378 3.6288,21.99 7.2619,43.978 10.898,65.966 13.702,-2.7452 27.415,-5.4617 41.137,-8.1468 2.8221,15.253 5.6455,30.507 8.4678,45.762 l 62.69,-9.2567 c -1.6298,-16.186 -3.289,-32.366 -4.9042,-48.555 12.822,-2.2242 25.651,-4.418 38.488,-6.5809 -2.8488,-18.854 -5.6947,-37.708 -8.5374,-56.565 z m 959.86,11.224 c 0.2078,-0.001 0.411,0.007 0.6137,0.0202 2.4299,0.16255 4.3764,1.4108 5.8341,3.7402 1.4951,2.2686 2.2034,5.3565 2.1332,9.2655 -0.041,2.285 -0.3829,4.3408 -1.0257,6.1688 -0.604,1.7713 -1.4132,3.3215 -2.4286,4.65 -1.0156,1.2698 -2.1803,2.231 -3.4924,2.8844 -1.2757,0.65635 -2.6039,0.94911 -3.9863,0.87681 -0.5194,-0.0266 -1.0385,-0.0546 -1.5576,-0.0812 -0.5005,-0.0266 -1.0213,-0.11362 -1.5594,-0.26266 0.356,-8.8277 0.7149,-17.654 1.0742,-26.483 0.7802,-0.25214 1.5963,-0.44023 2.4513,-0.5654 0.6702,-0.13738 1.3198,-0.20874 1.9435,-0.21242 z m -224.6,2.2546 -36.06,5.8991 c 1.4911,30.151 2.9819,60.299 4.4748,90.449 10.097,-1.2423 20.198,-2.4477 30.302,-3.6152 0.38661,-30.911 0.81808,-61.822 1.283,-92.735 z m 147.55,8.4653 v 0.002 c 0.1225,5.8e-4 0.2424,0.003 0.365,0.0101 1.9163,0.0741 3.6038,0.76825 5.0607,2.0788 1.4959,1.2478 2.7396,2.8907 3.7358,4.93 0.995,1.9751 1.74,4.2527 2.2391,6.8315 0.5399,2.5167 0.8104,5.1156 0.817,7.8008 0.01,2.7473 -0.273,5.3932 -0.8396,7.938 -0.567,2.5463 -1.3796,4.8071 -2.4374,6.7831 -1.0592,1.9152 -2.3681,3.4526 -3.9218,4.6117 -1.5157,1.099 -3.2383,1.6325 -5.1751,1.5987 -1.9407,-0.0339 -3.6616,-0.72467 -5.1632,-2.0719 -1.4621,-1.3486 -2.7014,-3.1026 -3.7186,-5.266 -1.0181,-2.1656 -1.7911,-4.5818 -2.3156,-7.2458 -0.5247,-2.6652 -0.7987,-5.3252 -0.8223,-7.9797 -0.025,-2.7812 0.2485,-5.3963 0.817,-7.8442 0.5677,-2.5091 1.3893,-4.6612 2.4686,-6.456 1.1195,-1.8542 2.452,-3.289 3.9967,-4.3041 1.3493,-0.88659 2.8596,-1.3564 4.5304,-1.4091 0.1195,-0.003 0.242,-0.007 0.3633,-0.007 z m -218.32,3.114 -65.35,10.692 c 1.5138,3.1233 3.2438,5.9626 5.231,8.4598 3.0321,3.6754 6.5004,6.5033 10.405,8.4877 3.9446,1.976 8.1941,2.8687 12.751,2.6877 0.84523,-0.0339 1.6912,-0.0649 2.5364,-0.0989 1.0548,-0.0413 2.1928,-0.0134 3.4128,0.0812 1.2186,0.0944 2.468,0.29365 3.7497,0.59851 1.2758,0.23403 2.4324,0.64927 3.4665,1.2456 1.0286,0.52532 1.8844,1.2695 2.5729,2.2302 0.68394,0.89009 1.0672,2.0031 1.1544,3.3384 0.12542,1.9679 -0.21854,3.4978 -1.0344,4.5892 -0.8163,1.0925 -1.8566,1.9477 -3.1221,2.5677 -1.2196,0.54819 -2.5304,0.92432 -3.9325,1.1291 -1.4086,0.13428 -2.6105,0.22562 -3.607,0.27136 -5.2597,0.242 -10.713,-0.42409 -16.37,-2.0024 -5.6371,-1.6599 -10.886,-4.1978 -15.746,-7.6235 -0.0989,14.837 -0.18903,29.675 -0.26605,44.51 2.4138,1.2754 5.149,2.635 8.202,4.0795 3.0927,1.3655 6.2737,2.6526 9.5442,3.8602 3.2561,1.1333 6.4334,2.0573 9.5317,2.773 3.1423,0.71022 5.9821,0.97966 8.5255,0.80908 6.5638,-0.44047 12.573,-2.0281 18.05,-4.7614 5.4998,-2.7222 10.174,-6.5628 14.04,-11.525 3.9009,-4.9457 6.8304,-11.005 8.7912,-18.182 2.0026,-7.232 2.7451,-15.584 2.2131,-25.063 -0.31062,-5.5368 -1.1994,-10.573 -2.6737,-15.113 -1.429,-4.6168 -3.3855,-8.5674 -5.8743,-11.852 -1.8005,-2.4266 -3.8688,-4.4866 -6.1973,-6.1896 z m -84.784,13.872 -36.276,5.9358 c 1.4473,5.6052 2.9039,11.209 4.3444,16.816 -4.2772,0.24879 -8.5574,0.50348 -12.835,0.76363 0.41996,-5.4674 0.85497,-10.935 1.2811,-16.401 l -39.591,6.4785 c -3.154,22.614 -6.2616,45.229 -9.2745,67.847 14.995,0.43973 29.974,0.94735 44.931,1.5256 0.67288,-8.4588 1.3531,-16.918 2.0411,-25.378 6.4494,-0.49197 12.898,-0.96962 19.347,-1.4352 2.3774,8.1274 4.7453,16.257 7.1048,24.387 13.329,-3.4047 26.678,-6.7505 40.045,-10.036 -6.9552,-23.515 -14,-47.016 -21.119,-70.505 z m -114.11,18.669 -43.165,7.0611 c 2.4327,22.375 4.8661,44.752 7.2998,67.127 12.798,-2.2372 25.602,-4.4274 38.412,-6.5672 -0.87932,-22.538 -1.7057,-45.083 -2.5469,-67.623 z m -77.436,12.668 -117.98,19.304 c 2.4356,21.312 4.85,42.626 7.2962,63.937 15.423,-2.1231 30.846,-4.1875 46.271,-6.188 -1.8166,-17.635 -3.6265,-35.272 -5.4344,-52.907 7.7884,-0.84302 15.578,-1.6698 23.368,-2.4806 2.4467,18.358 4.8905,36.716 7.3345,55.077 16.121,-2.9892 32.252,-5.9092 48.39,-8.7539 -3.0678,-22.664 -6.1664,-45.325 -9.245,-67.986 z m -127.84,20.917 -13.068,2.138 c -0.59659,0.33438 -1.1802,0.68867 -1.7871,1.0073 -2.6722,1.403 -5.4149,2.6087 -8.2283,3.6167 -2.8192,1.0102 -5.5819,1.6794 -8.2886,2.0077 -3.5928,0.43575 -6.9737,0.34219 -10.142,-0.28524 -1.2919,-0.25587 -2.517,-0.63599 -3.7029,-1.0872 l -64.605,10.572 c 1.5575,4.2334 3.4026,8.2999 5.565,12.176 5.1016,8.9353 11.284,16.434 18.526,22.5 7.2101,6.04 15.233,10.428 24.054,13.178 8.7662,2.7334 17.791,3.4107 27.091,2.058 3.2065,-0.46629 6.5144,-1.1992 9.9232,-2.1972 3.3992,-0.99516 6.7605,-2.1917 10.085,-3.589 3.3036,-1.476 6.4734,-3.053 9.5146,-4.7338 3.093,-1.7682 5.9109,-3.6602 8.4504,-5.6765 -1.1395,-17.228 -2.2651,-34.457 -3.3831,-51.686 z m -115.27,22.109 c -6.9056,0.93347 -13.808,1.8779 -20.712,2.8323 -9.9084,1.3697 -19.817,2.7609 -29.722,4.1717 -0.0649,-0.65694 -0.12985,-1.3142 -0.19655,-1.9711 l -55.747,9.1213 c 3.12,20.579 6.2243,41.164 9.3511,61.741 34.332,-6.7792 68.696,-13.333 103.08,-19.627 -1.0912,-9.3738 -2.1362,-18.709 -3.1326,-28.004 -0.93185,-9.3878 -1.9059,-18.81 -2.9241,-28.267 z m -158.75,22.72 -60.524,9.9039 c 3.6845,19.912 7.3679,39.827 11.053,59.739 18.382,-4.4087 36.777,-8.7641 55.185,-13.058 -1.9269,-18.855 -3.8068,-37.721 -5.7142,-56.582 z"
           style="fill:#000000;fill-opacity:1;stroke:none;stroke-width:6.41026;stroke-linecap:round;stroke-linejoin:round;stroke-dasharray:none;stroke-opacity:1;paint-order:stroke fill markers"
           id="path5"
           inkscape:label="headline" />
        <path
           d="m 616.2,313.81 q 0,2.1712 -0.38942,3.9527 -0.36167,1.7536 -1.1682,3.2289 -0.80657,1.4753 -2.0861,2.728 -1.27953,1.2527 -3.0874,2.3939 l 6.6199,11.802 -12.517,2.4495 -4.2834,-11.858 -3.4491,0.11067 -0.50068,11.58 h -11.96 q 0.13871,-6.3466 0.25026,-12.637 0.13871,-6.2911 0.30575,-12.637 0.0561,-3.2012 0.11067,-6.3466 0.0561,-3.1456 0.22252,-6.3466 1.9471,-0.72378 3.8384,-1.197 1.8914,-0.47323 3.7829,-0.72364 1.9192,-0.2783 3.8662,-0.36182 1.9748,-0.11067 4.0333,-0.11067 3.1708,0 6.1192,0.89082 2.9763,0.86279 5.257,2.6166 2.2808,1.7536 3.6437,4.3705 1.3908,2.6167 1.3908,6.0959 z m -12.461,0.89083 q 0,-1.1691 -0.33378,-2.1435 -0.30575,-0.9742 -0.94572,-1.6701 -0.61194,-0.72364 -1.5577,-1.1134 -0.91798,-0.4176 -2.1696,-0.4176 -0.55631,0 -1.0849,0.0841 -0.52856,0.0561 -1.0291,0.19478 l -0.44505,10.355 h 0.66772 q 1.196,0 2.42,-0.30619 1.2518,-0.30619 2.2252,-0.94646 1.0014,-0.64026 1.6131,-1.6424 0.63968,-1.0021 0.63968,-2.3939 z m 48.759,4.6206 q 0,2.533 -0.58405,4.8992 -0.58404,2.3383 -1.6968,4.3979 -1.0849,2.0598 -2.6703,3.7858 -1.5576,1.698 -3.5325,2.9228 -1.9471,1.2248 -4.2558,1.9206 -2.3086,0.66801 -4.8953,0.66801 -2.5034,0 -4.7842,-0.64027 -2.253,-0.64026 -4.2279,-1.7815 -1.9748,-1.169 -3.5881,-2.7834 -1.5854,-1.6422 -2.7258,-3.6186 -1.1126,-2.0043 -1.7523,-4.2866 -0.61194,-2.2825 -0.61194,-4.7599 0,-2.4216 0.58405,-4.7318 0.58419,-2.3382 1.6689,-4.3979 1.1126,-2.0598 2.6703,-3.7858 1.5577,-1.7259 3.4767,-2.9785 1.9471,-1.2526 4.2,-1.9485 2.2531,-0.6959 4.7563,-0.6959 4.0333,0 7.3429,1.2526 3.3377,1.2526 5.6743,3.5906 2.3642,2.3105 3.6437,5.6231 1.3074,3.2847 1.3074,7.3486 z m -12.35,0.72364 q 0,-1.197 -0.36167,-2.3102 -0.33378,-1.1412 -1.0014,-2.0043 -0.66771,-0.89082 -1.6689,-1.4197 -0.97346,-0.5566 -2.253,-0.5566 -1.3074,0 -2.3365,0.47322 -1.0291,0.47323 -1.7802,1.3083 -0.7232,0.80716 -1.1126,1.9207 -0.38942,1.0856 -0.38942,2.3105 0,1.1691 0.33379,2.3382 0.33378,1.1693 1.0014,2.1154 0.66771,0.94646 1.6412,1.5311 1.0014,0.58463 2.3086,0.58463 1.3074,0 2.3365,-0.50097 1.0571,-0.52886 1.7802,-1.3918 0.72319,-0.89083 1.1126,-2.0321 0.38941,-1.1412 0.38941,-2.366 z m 47.732,18.205 -13.796,1.7815 -1.6689,-6.2911 h -6.3417 l -1.3908,6.2911 -14.186,-1.3918 11.07,-37.076 15.464,-0.77942 z m -16.466,-13.027 -2.114,-9.6869 -2.0583,9.6869 z m 51.57,1.336 q 0,3.1456 -0.0826,6.2352 -0.0561,3.0619 -0.19464,6.1797 l -16.021,-0.27845 q 0.83446,-4.9271 1.4462,-9.8262 0.61193,-4.9271 0.61193,-9.9374 0,-0.36182 -0.0266,-1.1691 -0.0266,-0.80715 -0.11067,-1.8092 -0.0826,-1.0298 -0.25026,-2.0877 -0.13871,-1.0856 -0.41716,-1.9763 -0.25056,-0.89083 -0.63968,-1.4474 -0.36152,-0.58464 -0.88994,-0.58464 -0.94572,0 -1.6134,0.5566 -0.63968,0.5566 -1.0849,1.4474 -0.41716,0.86279 -0.66742,1.9485 -0.25026,1.0856 -0.38941,2.1712 -0.11067,1.0856 -0.1669,2.0598 -0.0266,0.94646 -0.0266,1.5588 -0.1387,4.9271 -0.22252,9.7984 -0.0826,4.8432 -0.22252,9.7984 l -14.186,0.61238 q 0.5563,-9.8262 1.0568,-19.54 0.52856,-9.7148 0.83446,-19.54 l 13.129,-0.66801 -0.11067,4.4538 q 0.77883,-0.94645 1.6689,-1.7815 0.91798,-0.83505 1.9471,-1.4197 1.0291,-0.61238 2.1696,-0.94645 1.1682,-0.36182 2.4477,-0.36182 2.3642,0 4.1443,0.77941 1.78,0.77942 3.0597,2.1154 1.2794,1.336 2.1417,3.1733 0.8622,1.8092 1.3908,3.8692 0.52856,2.0598 0.80656,4.3145 0.2783,2.2268 0.36168,4.3979 0.11067,2.1712 0.11067,4.2031 0,2.0321 0,3.702 z m 36.992,-7.2371 q 0,2.533 -0.58405,4.8992 -0.58405,2.3383 -1.6968,4.3979 -1.0849,2.0598 -2.6703,3.7858 -1.5577,1.698 -3.5325,2.9227 -1.9471,1.2248 -4.2558,1.9206 -2.3086,0.66801 -4.8953,0.66801 -2.5034,0 -4.7842,-0.64026 -2.2531,-0.64027 -4.2279,-1.7815 -1.9748,-1.169 -3.5882,-2.7834 -1.5854,-1.6422 -2.7259,-3.6186 -1.1126,-2.0043 -1.7523,-4.2866 -0.61194,-2.2825 -0.61194,-4.7599 0,-2.4216 0.58405,-4.7318 0.58405,-2.3383 1.6689,-4.3979 1.1126,-2.0598 2.6703,-3.7858 1.5577,-1.7259 3.4767,-2.9785 1.9471,-1.2526 4.2,-1.9485 2.253,-0.6959 4.7563,-0.6959 4.0333,0 7.3432,1.2526 3.3377,1.2526 5.6743,3.5906 2.3642,2.3105 3.6437,5.6231 1.3074,3.2847 1.3074,7.3485 z m -12.35,0.72364 q 0,-1.197 -0.36167,-2.3105 -0.33379,-1.1412 -1.0014,-2.0043 -0.66742,-0.89083 -1.6689,-1.4197 -0.97346,-0.5566 -2.2531,-0.5566 -1.3074,0 -2.3365,0.47323 -1.0291,0.47323 -1.7802,1.3083 -0.7232,0.80731 -1.1126,1.9207 -0.38942,1.0856 -0.38942,2.3102 0,1.1693 0.33379,2.3383 0.33378,1.169 1.0014,2.1154 0.66741,0.94646 1.6412,1.5308 1.0014,0.58464 2.3086,0.58464 1.3074,0 2.3365,-0.50097 1.0568,-0.52886 1.7802,-1.3918 0.72319,-0.89082 1.1126,-2.0321 0.38941,-1.1412 0.38941,-2.3661 z m 48.205,-15.366 -12.294,14.642 11.293,19.15 -12.906,2.2825 -8.4558,-11.468 -0.44504,10.912 -11.571,0.44549 0.88994,-39.862 12.962,0.72379 -1.0014,11.468 8.0663,-11.635 z m 28.956,13.473 q 0,2.4216 -0.33378,4.8432 -4.7563,0.30619 -9.457,1.0021 -4.7007,0.66801 -9.4014,1.336 0.7232,2.0043 2.2531,3.2012 1.5576,1.197 3.6992,1.197 1.1126,0 2.42,-0.41759 1.3351,-0.4176 2.6425,-1.0298 1.3074,-0.64027 2.5034,-1.3641 1.196,-0.72383 2.0583,-1.3083 l -1.3351,12.637 q -1.0849,0.83505 -2.3642,1.4197 -1.2516,0.58464 -2.6145,0.94646 -1.3629,0.36182 -2.7536,0.52886 -1.3908,0.16689 -2.7259,0.16689 -2.7536,0 -5.0345,-0.75168 -2.2809,-0.75152 -4.1443,-2.0877 -1.8357,-1.3641 -3.2266,-3.2012 -1.3908,-1.8373 -2.3086,-4.0084 -0.91797,-2.1712 -1.3908,-4.593 -0.47279,-2.4216 -0.47279,-4.8992 0,-2.5887 0.47279,-5.1773 0.47293,-2.5887 1.4185,-4.9826 0.97346,-2.3939 2.42,-4.426 1.4743,-2.0598 3.4214,-3.5906 1.9471,-1.5311 4.3947,-2.3939 2.4755,-0.86279 5.4516,-0.86279 2.4755,0 4.5058,0.6959 2.0583,0.66801 3.6437,1.8929 1.6131,1.197 2.7814,2.8671 1.196,1.6701 1.9471,3.6744 0.77883,1.9763 1.1405,4.2031 0.38942,2.1991 0.38942,4.4816 z m -11.126,-1.4474 q 0,-0.77942 -0.16689,-1.5866 -0.1669,-0.83504 -0.55631,-1.503 -0.36167,-0.66801 -0.97346,-1.0856 -0.61194,-0.44549 -1.5298,-0.44549 -1.1126,0 -1.9748,0.61238 -0.8346,0.58464 -1.4462,1.5031 -0.61193,0.89082 -1.0014,1.9485 -0.38941,1.0579 -0.58404,1.9484 l 8.2333,-0.77942 z m 25.255,-21.044 -3.1153,16.924 -8.5671,0.27845 -1.7246,-16.924 z m 29.428,30.73 q 0,3.8134 -1.3351,6.597 -1.3074,2.7557 -3.616,4.5651 -2.2808,1.7815 -5.3684,2.6443 -3.0597,0.83505 -6.5922,0.83505 -1.3629,0 -3.004,-0.36182 -1.6131,-0.36182 -3.2822,-0.89083 -1.6689,-0.5566 -3.2266,-1.1693 -1.5298,-0.64026 -2.7259,-1.197 l 1.2237,-10.912 q 2.3642,1.4197 5.2291,2.1712 2.8928,0.72378 5.6742,0.72378 0.52856,0 1.2795,-0.028 0.75109,-0.0561 1.4185,-0.25056 0.69546,-0.22267 1.1682,-0.64027 0.47293,-0.4176 0.47293,-1.197 0,-0.52885 -0.33378,-0.89082 -0.33379,-0.38986 -0.86235,-0.61238 -0.52857,-0.25041 -1.196,-0.36182 -0.66742,-0.13871 -1.3074,-0.19478 -0.63967,-0.0561 -1.196,-0.0561 -0.5563,0 -0.89009,0 -2.392,0 -4.3671,-0.75167 -1.9471,-0.75153 -3.3654,-2.1154 -1.3908,-1.3918 -2.1696,-3.3403 -0.77883,-1.9763 -0.77883,-4.3705 0,-3.2847 1.3074,-5.8732 1.3351,-2.6166 3.5325,-4.4259 2.2252,-1.8373 5.09,-2.8115 2.8648,-0.9742 5.9246,-0.9742 1.3629,0 2.8094,0.11068 1.4462,0.0841 2.865,0.33407 1.4462,0.25041 2.8094,0.64027 1.3629,0.38986 2.5867,0.9742 l -1.0568,11.301 q -1.8914,-0.64026 -3.9774,-1.0579 -2.0583,-0.44549 -4.0333,-0.44549 -0.36167,0 -0.94572,0.028 -0.55631,0 -1.196,0.0841 -0.61194,0.0561 -1.2518,0.19478 -0.63967,0.13871 -1.1405,0.38985 -0.50052,0.22267 -0.80656,0.61238 -0.30575,0.38986 -0.27816,0.91857 0.0266,0.61238 0.4449,0.94646 0.44504,0.33408 1.1126,0.50097 0.69546,0.13871 1.502,0.13871 0.8346,0 1.6412,-0.028 0.80657,-0.0561 1.502,-0.0841 0.69545,-0.0561 1.1405,-0.028 2.2252,0.13871 4.0054,0.94646 1.7802,0.80716 3.004,2.1435 1.2516,1.336 1.8914,3.2012 0.66772,1.8373 0.66772,4.0638 z m 42.363,-24.997 -0.2783,11.802 -8.2888,0.33408 -1.0014,25.832 -11.738,0.61237 -1.0568,-25.832 -8.2888,0.44549 0.33378,-13.139 z m 32.071,16.757 q 0,2.4216 -0.33378,4.8432 -4.7563,0.30619 -9.457,1.0021 -4.7007,0.66801 -9.4014,1.336 0.7232,2.0043 2.2531,3.2012 1.5576,1.1969 3.6992,1.1969 1.1126,0 2.42,-0.4176 1.3351,-0.4176 2.6424,-1.0298 1.3074,-0.64027 2.5034,-1.364 1.196,-0.72379 2.0583,-1.3083 l -1.3351,12.637 q -1.0849,0.83505 -2.3642,1.4197 -1.2516,0.58463 -2.6145,0.94645 -1.3629,0.36182 -2.7536,0.52886 -1.3908,0.1669 -2.7259,0.1669 -2.7536,0 -5.0345,-0.75168 -2.2809,-0.75168 -4.1443,-2.0877 -1.8357,-1.364 -3.2266,-3.201 -1.3906,-1.8373 -2.3086,-4.0084 -0.91798,-2.1712 -1.3908,-4.593 -0.47278,-2.4216 -0.47278,-4.8992 0,-2.5887 0.47278,-5.1773 0.47294,-2.5887 1.4185,-4.9826 0.97346,-2.3939 2.42,-4.426 1.4743,-2.0598 3.4214,-3.5906 1.9471,-1.5311 4.3947,-2.3939 2.4755,-0.86279 5.4516,-0.86279 2.4756,0 4.5059,0.6959 2.0583,0.66801 3.6437,1.8929 1.6131,1.197 2.7814,2.8671 1.196,1.6701 1.9471,3.6744 0.77883,1.9763 1.1404,4.2031 0.38942,2.1991 0.38942,4.4817 z m -11.126,-1.4474 q 0,-0.77941 -0.16689,-1.5867 -0.1669,-0.83505 -0.55631,-1.5031 -0.36167,-0.66801 -0.97346,-1.0856 -0.61194,-0.44534 -1.5299,-0.44534 -1.1126,0 -1.9748,0.61238 -0.83431,0.58464 -1.4462,1.5031 -0.61194,0.89083 -1.0014,1.9484 -0.38942,1.0579 -0.58405,1.9485 l 8.2333,-0.77942 z m 39.468,-14.085 -1.0014,11.747 q -0.80657,-0.22267 -1.5854,-0.30619 -0.77883,-0.0841 -1.5854,-0.0841 -1.9748,0 -3.7829,0.50097 -1.7802,0.50097 -3.1708,1.5311 -1.3629,1.0298 -2.1973,2.6166 -0.80657,1.5588 -0.80657,3.702 0,1.5588 0.44504,2.728 0.47279,1.1412 1.3074,1.9207 0.8622,0.75153 2.0583,1.1412 1.2237,0.38985 2.698,0.38985 1.0291,0 2.114,-0.19478 1.0849,-0.22267 2.1696,-0.58463 1.0849,-0.36182 2.0861,-0.83505 1.0014,-0.47323 1.8637,-1.0021 l -0.44505,13.083 q -1.0849,0.5566 -2.3365,1.0021 -1.2516,0.4176 -2.5868,0.72364 -1.3074,0.33408 -2.6424,0.50097 -1.3074,0.16689 -2.5034,0.16689 -3.9496,0 -7.2042,-1.4753 -3.2266,-1.4753 -5.5629,-4.0084 -2.3086,-2.5609 -3.5884,-5.929 -1.2795,-3.3681 -1.2795,-7.1817 0,-4.5651 1.2795,-8.5178 1.3074,-3.9527 3.8108,-6.8477 2.5311,-2.9227 6.2305,-4.5651 3.7271,-1.6701 8.5394,-1.6701 1.9192,0 3.8941,0.30619 1.9749,0.30619 3.783,1.1412 z m 35.689,36.909 -13.907,0.66801 -0.11067,-11.747 h -6.3975 l -0.38941,12.192 h -12.461 l 1.0568,-39.135 13.24,0.61238 -0.83446,19.987 h 6.175 l 0.0561,-20.933 12.68404,0.33408 z m 43.224,-38.134 -0.2783,11.802 -8.2888,0.33408 -1.0013,25.832 -11.738,0.61237 -1.0571,-25.832 -8.2888,0.44534 0.3338,-13.139 z m 33.043,36.855 -13.796,1.7815 -1.6689,-6.2911 h -6.3417 l -1.3908,6.2911 -14.186,-1.3918 11.07,-37.076 15.464,-0.77941 z m -16.466,-13.027 -2.1139,-9.687 -2.0584,9.687 z m 51.238,-20.543 -12.294,14.642 11.293,19.15 -12.906,2.2825 -8.4559,-11.468 -0.445,10.912 -11.571,0.44549 0.8901,-39.862 12.962,0.72364 -1.0013,11.468 8.0662,-11.635 z m 28.956,13.473 q 0,2.4216 -0.3338,4.8433 -4.7563,0.30618 -9.457,1.0021 -4.7007,0.66801 -9.4014,1.336 0.7232,2.0043 2.2529,3.2012 1.5577,1.1969 3.6992,1.1969 1.1127,0 2.42,-0.4176 1.3352,-0.41759 2.6426,-1.0298 1.3074,-0.64026 2.5033,-1.364 1.196,-0.72379 2.0584,-1.3083 l -1.3352,12.637 q -1.0848,0.83505 -2.3642,1.4197 -1.2517,0.58464 -2.6146,0.94646 -1.3629,0.36182 -2.7537,0.52886 -1.3907,0.16689 -2.7259,0.16689 -2.7536,0 -5.0344,-0.75168 -2.2809,-0.75167 -4.1447,-2.0877 -1.8357,-1.3641 -3.2266,-3.2012 -1.3908,-1.8373 -2.3086,-4.0084 -0.918,-2.1714 -1.3908,-4.593 -0.4728,-2.4216 -0.4728,-4.8992 0,-2.5887 0.4728,-5.1773 0.4728,-2.5887 1.4185,-4.9826 0.9735,-2.3939 2.42,-4.426 1.4743,-2.0598 3.4214,-3.5906 1.9471,-1.5311 4.3947,-2.3939 2.4756,-0.86279 5.4516,-0.86279 2.4755,0 4.5059,0.6959 2.0584,0.66801 3.6438,1.8929 1.6131,1.197 2.7813,2.8671 1.196,1.6702 1.9471,3.6744 0.7788,1.9763 1.1404,4.2031 0.3894,2.1991 0.3894,4.4817 z m -11.126,-1.4474 q 0,-0.77942 -0.1669,-1.5866 -0.1669,-0.83505 -0.5563,-1.5031 -0.3616,-0.66801 -0.9735,-1.0856 -0.6119,-0.44548 -1.5298,-0.44548 -1.1126,0 -1.9748,0.61237 -0.8344,0.58464 -1.4462,1.5031 -0.612,0.89083 -1.0014,1.9486 -0.3894,1.0579 -0.584,1.9484 l 8.2333,-0.77941 z m 47.314,2.6166 q 0,2.533 -0.5841,4.8992 -0.584,2.3382 -1.6968,4.3979 -1.0849,2.0598 -2.6703,3.7858 -1.5576,1.6978 -3.5324,2.9227 -1.9471,1.2248 -4.2558,1.9207 -2.3086,0.66801 -4.8954,0.66801 -2.5034,0 -4.7842,-0.64027 -2.2531,-0.64027 -4.2279,-1.7815 -1.9748,-1.1693 -3.5881,-2.7834 -1.5854,-1.6424 -2.7259,-3.6186 -1.1126,-2.0042 -1.7523,-4.2866 -0.6119,-2.2825 -0.6119,-4.7599 0,-2.4216 0.584,-4.732 0.584,-2.3382 1.6689,-4.3979 1.1126,-2.0598 2.6703,-3.7858 1.5576,-1.7259 3.4767,-2.9785 1.947,-1.2526 4.2,-1.9485 2.2531,-0.6959 4.7563,-0.6959 4.0333,0 7.343,1.2526 3.3377,1.2526 5.6743,3.5906 2.3642,2.3102 3.6437,5.6228 1.3074,3.2847 1.3074,7.3485 z m -12.35,0.72364 q 0,-1.197 -0.3617,-2.3105 -0.3338,-1.1412 -1.0014,-2.0042 -0.6674,-0.89082 -1.6689,-1.4197 -0.9734,-0.5566 -2.2531,-0.5566 -1.3074,0 -2.3365,0.47322 -1.0291,0.47323 -1.7801,1.3083 -0.7232,0.80716 -1.1127,1.9207 -0.3894,1.0856 -0.3894,2.3105 0,1.169 0.3338,2.3382 0.3338,1.1693 1.0014,2.1154 0.6677,0.94646 1.6411,1.5311 1.0014,0.58464 2.3086,0.58464 1.3074,0 2.3365,-0.50097 1.0569,-0.52886 1.7801,-1.3918 0.7231,-0.89083 1.1126,-2.0321 0.3894,-1.1412 0.3894,-2.3661 z m 47.367,-18.427 -10.18,37.635 -13.796,0.77941 -12.517,-36.355 13.184,-1.2248 5.3406,21.154 5.1735,-22.825 z m 30.486,16.534 q 0,2.4216 -0.3337,4.8432 -4.7564,0.30619 -9.4571,1.0021 -4.7009,0.66801 -9.4014,1.336 0.7232,2.0043 2.2531,3.2012 1.5577,1.197 3.6992,1.197 1.1126,0 2.42,-0.4176 1.3351,-0.4176 2.6424,-1.0298 1.3074,-0.64027 2.5034,-1.3641 1.1959,-0.72378 2.0583,-1.3083 l -1.3351,12.637 q -1.0849,0.83505 -2.3643,1.4197 -1.2517,0.58464 -2.6144,0.94646 -1.3629,0.36182 -2.7537,0.52886 -1.3908,0.16689 -2.7259,0.16689 -2.7536,0 -5.0345,-0.75167 -2.2808,-0.75168 -4.1442,-2.0877 -1.8357,-1.364 -3.2266,-3.2012 -1.3908,-1.8373 -2.3086,-4.0084 -0.918,-2.1712 -1.3908,-4.593 -0.4727,-2.4216 -0.4727,-4.8992 0,-2.5887 0.4727,-5.1773 0.4728,-2.5887 1.4185,-4.9826 0.9735,-2.3939 2.42,-4.426 1.4743,-2.0598 3.4214,-3.5906 1.9471,-1.5311 4.3947,-2.3939 2.4755,-0.86279 5.4516,-0.86279 2.4756,0 4.5059,0.6959 2.0584,0.66801 3.6438,1.8929 1.6134,1.197 2.7813,2.8671 1.196,1.6701 1.9471,3.6744 0.7788,1.9763 1.1404,4.2031 0.3894,2.1991 0.3894,4.4817 z m -11.126,-1.4474 q 0,-0.77941 -0.1669,-1.5867 -0.1669,-0.83505 -0.5563,-1.5031 -0.3616,-0.66801 -0.9735,-1.0856 -0.6119,-0.44534 -1.5298,-0.44534 -1.1126,0 -1.9748,0.61238 -0.8346,0.58464 -1.4464,1.5031 -0.6119,0.89083 -1.0013,1.9485 -0.3894,1.0579 -0.5841,1.9486 l 8.2334,-0.77942 z m 45.533,-2.8948 q 0,2.1712 -0.3894,3.9527 -0.3615,1.7536 -1.1682,3.2289 -0.8066,1.4753 -2.0863,2.728 -1.2795,1.2526 -3.0874,2.3939 l 6.6199,11.802 -12.517,2.4495 -4.2834,-11.858 -3.4491,0.11067 -0.5007,11.58 h -11.96 q 0.1387,-6.3466 0.2505,-12.637 0.1388,-6.2911 0.3058,-12.637 0.056,-3.2012 0.1107,-6.3466 0.056,-3.1454 0.2225,-6.3466 1.9471,-0.72364 3.8383,-1.197 1.8915,-0.47323 3.7829,-0.72364 1.9192,-0.27845 3.8663,-0.36182 1.9748,-0.11067 4.0333,-0.11067 3.1708,0 6.1192,0.89083 2.9763,0.86279 5.257,2.6166 2.2808,1.7536 3.6437,4.3705 1.3908,2.6166 1.3908,6.0959 z m -12.461,0.89083 q 0,-1.1693 -0.3338,-2.1435 -0.3057,-0.9742 -0.9457,-1.6701 -0.6119,-0.72364 -1.5576,-1.1133 -0.918,-0.4176 -2.1696,-0.4176 -0.5563,0 -1.0849,0.0841 -0.5286,0.0561 -1.0291,0.19478 l -0.445,10.355 h 0.6677 q 1.196,0 2.42,-0.30618 1.2516,-0.30619 2.2252,-0.94646 1.0014,-0.64027 1.6131,-1.6424 0.6397,-1.0021 0.6397,-2.3939 z"
           style="fill:#000000;fill-opacity:1;stroke:none;stroke-width:6.41026;stroke-linecap:round;stroke-linejoin:round;stroke-dasharray:none;stroke-opacity:1;paint-order:stroke fill markers"
           id="path149"
           inkscape:label="logo" />
      </g>
      <g
         id="g2"
         inkscape:label="logo &amp; tagline"
         transform="translate(24.575402,-26.330378)">
        <path
           d="m 795,94.933 c -5.8961,-0.03379 -11.553,1.1849 -16.956,3.6585 -5.4298,2.4858 -10.172,6.096 -14.212,10.828 -4.0056,4.678 -7.0819,10.405 -9.2257,17.176 -2.0992,6.7145 -2.8248,14.309 -2.1922,22.776 0.20245,2.7098 0.57283,5.3154 1.0588,7.8494 l 35.885,-5.3005 c -0.68056,-0.9151 -1.1074,-2.0411 -1.2448,-3.4026 -0.14313,-1.3415 0.0457,-2.5125 0.56516,-3.5122 0.51971,-0.99931 1.2389,-1.7887 2.1591,-2.3694 0.91474,-0.65083 1.9717,-1.1631 3.1692,-1.5343 1.1961,-0.37089 2.3725,-0.63416 3.5274,-0.79154 1.2019,-0.22824 2.3297,-0.34944 3.3848,-0.36357 1.1021,-0.0851 1.995,-0.13236 2.6788,-0.14092 3.7281,-0.0474 7.557,0.46951 11.482,1.5466 3.9594,1.003 7.7384,2.2884 11.336,3.8531 0.15567,-14.096 0.32212,-28.192 0.49728,-42.287 -2.3688,-1.4796 -4.8613,-2.7194 -7.4769,-3.7162 -2.6217,-0.99886 -5.3184,-1.8231 -8.0922,-2.4737 -2.7278,-0.65173 -5.4776,-1.0927 -8.247,-1.3221 -2.7809,-0.30029 -5.481,-0.45731 -8.0977,-0.47143 z m 159.38,5.4364 c -1.6696,-0.003 -3.3231,0.027 -4.9614,0.0906 -3.2421,0.066 -6.4636,0.36853 -9.6638,0.90634 -3.165,0.47516 -6.3301,1.2197 -9.4938,2.2354 -3.1732,1.0188 -6.391,2.3411 -9.6517,3.97 -0.0135,7.6447 0.0693,15.227 0.2451,22.747 0.002,0.0825 0.0413,1.7604 0.0502,2.1762 l 72.01,-10.635 c -1.6075,-2.9126 -3.4153,-5.5632 -5.4708,-7.893 -3.7348,-4.2325 -8.0359,-7.4659 -12.905,-9.6918 -4.8466,-2.2988 -9.8838,-3.5643 -15.101,-3.7891 -1.7003,-0.0733 -3.3859,-0.11245 -5.0554,-0.11643 z m -238.37,0.26796 c -16.149,1.2635 -32.289,2.6086 -48.424,4.0324 -3.2736,22.212 -6.4499,44.429 -9.5838,66.652 l 38.48,-5.6816 c 0.16306,-2.0718 0.3205,-4.144 0.48503,-6.2159 0.51248,1.9726 1.0183,3.9456 1.5298,5.9184 l 35.751,-5.2797 c -6.0347,-19.815 -12.09,-39.628 -18.239,-59.426 z m 117.55,0.26965 c 0.54657,14.748 1.0961,29.496 1.6481,44.245 l 80.207,-11.845 c -0.20983,-10.3 -0.42055,-20.6 -0.62758,-30.901 -27.057,-0.75746 -54.133,-1.2522 -81.227,-1.4979 z m -187.17,1.4126 c -34.454,1.0438 -68.913,2.4393 -103.37,4.1595 1.73,18.404 3.4652,36.806 5.203,55.213 9.5254,-1.2847 19.053,-2.5448 28.586,-3.7784 0.90559,8.3325 1.8113,16.664 2.7172,24.997 l 44.422,-6.5601 c -0.29113,-7.8944 -0.60529,-15.788 -0.89171,-23.682 8.9959,-0.93333 17.994,-1.8426 26.993,-2.7278 -1.2234,-15.873 -2.4433,-31.746 -3.6611,-47.621 z m -112.67,4.8466 c -15.47,0.28615 -30.944,0.63742 -46.42,1.0508 3.5654,28.912 7.1328,57.82 10.7,86.729 l 46.712,-6.8979 c -3.6659,-26.961 -7.3149,-53.925 -10.996,-80.884 z m 598.79,4.4884 -37.382,6.1167 c -0.2257,6.6648 -0.3616,13.297 -0.3703,19.881 -0.01,7.4985 -0.077,14.992 -0.2051,22.485 -0.1706,14.19 -0.3196,28.262 -0.4484,42.21 -0.1299,13.949 -0.2388,27.96 -0.3289,42.036 8.9504,0.0635 17.899,0.16129 26.844,0.2938 l 0.5892,-42.354 c 3.0597,0.0531 6.1712,-0.19095 9.3353,-0.72895 3.1546,-0.59645 6.1917,-1.5515 9.1181,-2.8652 2.9558,-1.3679 5.728,-3.1566 8.3183,-5.3636 2.5837,-2.2007 4.8419,-4.9173 6.7781,-8.1502 1.9692,-3.2242 3.5471,-7.0306 4.7321,-11.419 1.1835,-4.3833 1.8505,-9.4507 1.994,-15.206 v -0.002 c 0.1313,-5.2816 -0.2328,-10.065 -1.1004,-14.355 -0.8294,-4.3514 -2.0292,-8.2614 -3.6055,-11.729 -1.5787,-3.4733 -3.4984,-6.501 -5.7596,-9.0845 -2.2268,-2.6461 -4.6816,-4.8965 -7.3674,-6.7481 -2.6549,-1.8535 -5.4658,-3.2705 -8.4296,-4.2481 -0.9007,-0.31544 -1.8063,-0.52385 -2.7101,-0.76721 z m -751.43,1.2856 c -1.9776,0.0168 -3.9319,0.097 -5.8656,0.24172 -13.772,1.0313 -25.677,4.7559 -35.632,11.167 -9.9554,6.4555 -17.902,14.855 -23.8,25.181 -5.9311,10.383 -9.8025,22.255 -11.611,35.598 -1.6844,12.253 -1.5802,25.069 0.24156,38.418 l 55.319,-8.1694 c -0.12985,-0.65842 -0.26694,-1.3053 -0.37023,-1.9971 -1.0095,-6.7741 -0.7623,-12.795 0.74755,-18.056 1.5823,-5.2597 4.0387,-9.7526 7.3674,-13.479 3.3939,-3.723 7.47,-6.6181 12.22,-8.6807 4.7199,-2.1382 9.8037,-3.4615 15.243,-3.9735 2.1255,-0.19996 4.2664,-0.27536 6.4199,-0.22621 2.1501,0.0491 4.3243,0.30398 6.5246,0.76542 -0.39428,-17.458 -0.7716,-34.916 -1.1318,-52.378 -4.8831,-2.1315 -10.084,-3.4559 -15.602,-3.9666 -3.4168,-0.32385 -6.7747,-0.47109 -10.071,-0.44189 z m 86.902,2.9539 c -17.054,0.17137 -34.115,0.41685 -51.177,0.73412 3.3584,29.608 6.7562,59.213 10.135,88.819 l 48.7,-7.192 c -2.5664,-27.452 -5.1211,-54.908 -7.6596,-82.36 z m 699.22,3.608 c -1.8064,41.595 -3.5856,83.191 -5.3423,124.79 8.0033,0.22017 16.003,0.4691 24.002,0.74622 0.6653,-12.794 1.3335,-25.589 2.0045,-38.384 4.0657,0.22592 8.1309,0.45877 12.195,0.6993 -0.4192,13.417 -0.8411,26.834 -1.2621,40.25 8.5797,-0.36654 17.164,-0.69914 25.749,-0.99854 1.266,-40.87 2.5098,-81.74 3.7358,-122.61 -8.0553,-1.2485 -16.115,-2.4681 -24.182,-3.6601 -0.8591,22.403 -1.7169,44.807 -2.5746,67.208 -3.9399,-0.27565 -7.882,-0.54524 -11.823,-0.80731 1.2327,-20.92 2.4749,-41.841 3.7274,-62.761 -8.7343,-1.5227 -17.477,-3.013 -26.23,-4.4707 z m -874.96,2.4998 c -38.119,3.3674 -76.202,7.0511 -114.24,11.015 5.3721,35.607 10.78,71.207 16.173,106.81 l 92.879,-13.717 c -1.1129,-11.848 -2.224,-23.697 -3.3291,-35.546 -11.99,1.3779 -23.979,2.7871 -35.962,4.2257 -0.4933,-5.5104 -0.98645,-11.021 -1.4777,-16.533 16.844,-2.8752 33.703,-5.6917 50.575,-8.4461 -0.62994,-8.0759 -1.3633,-16.052 -2.1991,-23.927 -0.83579,-7.8739 -1.6434,-15.833 -2.4234,-23.881 z m 775.67,0.22455 -43.014,7.0387 c -1.1238,1.4446 -2.2053,2.9719 -3.223,4.6257 -2.3719,3.8543 -4.3914,8.1162 -6.0552,12.783 -1.6232,4.6762 -2.8469,9.6927 -3.6733,15.047 -0.8283,5.294 -1.1953,10.729 -1.1073,16.304 0.09,5.7028 0.6498,11.188 1.6759,16.45 1.0679,5.2576 2.4929,10.194 4.2644,14.805 1.81,4.5397 3.9453,8.6894 6.4008,12.451 2.4906,3.6883 5.2344,6.8607 8.2299,9.5193 2.986,2.5873 6.157,4.6004 9.5164,6.042 3.389,1.4365 6.9216,2.1476 10.599,2.1398 3.7857,-0.007 7.3497,-0.76097 10.702,-2.2562 3.3404,-1.5525 6.4098,-3.6861 9.2175,-6.4037 2.8392,-2.7092 5.3796,-5.9379 7.6213,-9.6864 2.2763,-3.801 4.1982,-7.971 5.7663,-12.508 1.6053,-4.5286 2.8413,-9.3681 3.7013,-14.521 0.8594,-5.2098 1.3031,-10.616 1.3333,-16.22 0.047,-8.9934 -0.8461,-17.167 -2.7033,-24.536 -1.8202,-7.4425 -4.4498,-13.83 -7.8978,-19.164 -3.129,-4.9526 -6.9316,-8.8916 -11.354,-11.908 z m 168.38,1.2908 c -2.4499,41.099 -4.8792,82.195 -7.2895,123.29 14.144,0.11805 28.288,0.32891 42.431,0.63318 0.515,-6.0621 1.045,-12.094 1.5907,-18.095 0.5807,-6.0536 1.1497,-12.135 1.7036,-18.243 -2.8504,-0.23609 -5.7022,-0.46909 -8.5529,-0.69767 -4.0653,-0.32581 -8.1334,-0.6444 -12.2,-0.95501 0.3812,-4.0992 0.7651,-8.1986 1.1475,-12.298 4.9409,0.13133 9.8824,0.27299 14.824,0.42616 0.8524,-8.6202 1.7059,-17.24 2.5641,-25.86 -4.92,-0.50613 -9.8417,-1.0016 -14.765,-1.4856 0.3545,-3.5288 0.7116,-7.0571 1.0674,-10.586 7.0281,0.11717 14.055,0.25583 21.085,0.41753 0.5718,-5.1971 1.0924,-10.343 1.5611,-15.438 0.4689,-5.0938 0.9591,-10.239 1.4689,-15.438 -15.529,-1.9974 -31.076,-3.8879 -46.638,-5.6709 z m -230.05,8.7992 -31.888,5.2173 c 0.56235,0.61228 1.094,1.2712 1.5525,2.0337 1.0773,1.6555 1.89,3.6279 2.439,5.9184 0.59393,2.2902 0.92285,4.8008 0.98748,7.5328 0.0767,3.2522 -0.37392,6.0413 -1.3474,8.3661 -0.92979,2.3279 -2.1824,4.2304 -3.7603,5.7078 -1.5355,1.4805 -3.3055,2.5692 -5.3144,3.267 -1.9677,0.69973 -3.9276,1.0422 -5.876,1.0264 -0.54465,-0.003 -1.0893,-0.0101 -1.6341,-0.0135 0.0162,-10.576 0.0339,-21.153 0.0546,-31.727 l -31.33,5.1267 c 0.0885,3.7289 0.18755,7.9943 0.19463,8.3084 0.26237,15.177 0.54864,30.291 0.85896,45.343 0.35665,15.053 0.69501,30.176 1.0152,45.371 9.7432,-0.33806 19.484,-0.63953 29.223,-0.9047 0.0101,-13.665 0.0207,-27.331 0.0369,-40.997 2.7812,-0.15007 5.5632,-0.29748 8.3444,-0.44195 3.7936,13.841 7.5517,27.687 11.272,41.537 9.6443,-3.0392 19.30803,-6.0413 28.99103,-9.0061 -5.333,-13.647 -10.72203,-27.283 -16.16503,-40.905 2.7874,-2.6297 5.1564,-5.381 7.10863,-8.2581 1.9481,-2.8715 3.5225,-5.999 4.7249,-9.3837 1.2008,-3.3805 2.0531,-7.0853 2.5519,-11.115 0.5409,-4.09 0.771,-8.6344 0.6901,-13.635 -0.1106,-6.8263 -1.0482,-12.919 -2.7293,-18.367 z m -838.31,3.3818 c -49.517,5.3504 -98.941,11.172 -148.24,17.378 3.6288,21.99 7.2619,43.978 10.898,65.966 13.702,-2.7452 27.415,-5.4617 41.137,-8.1468 2.8221,15.253 5.6455,30.507 8.4678,45.762 l 62.69,-9.2567 c -1.6298,-16.186 -3.289,-32.366 -4.9042,-48.555 12.822,-2.2242 25.651,-4.418 38.488,-6.5809 -2.8488,-18.854 -5.6947,-37.708 -8.5374,-56.565 z m 959.86,11.224 c 0.2078,-0.001 0.411,0.007 0.6137,0.0202 2.4299,0.16255 4.3764,1.4108 5.8341,3.7402 1.4951,2.2686 2.2034,5.3565 2.1332,9.2655 -0.041,2.285 -0.3829,4.3408 -1.0257,6.1688 -0.604,1.7713 -1.4132,3.3215 -2.4286,4.65 -1.0156,1.2698 -2.1803,2.231 -3.4924,2.8844 -1.2757,0.65635 -2.6039,0.94911 -3.9863,0.87681 -0.5194,-0.0266 -1.0385,-0.0546 -1.5576,-0.0812 -0.5005,-0.0266 -1.0213,-0.11362 -1.5594,-0.26266 0.356,-8.8277 0.7149,-17.654 1.0742,-26.483 0.7802,-0.25214 1.5963,-0.44023 2.4513,-0.5654 0.6702,-0.13738 1.3198,-0.20874 1.9435,-0.21242 z m -224.6,2.2546 -36.06,5.8991 c 1.4911,30.151 2.9819,60.299 4.4748,90.449 10.097,-1.2423 20.198,-2.4477 30.302,-3.6152 0.38661,-30.911 0.81808,-61.822 1.283,-92.735 z m 147.55,8.4653 v 0.002 c 0.1225,5.8e-4 0.2424,0.003 0.365,0.0101 1.9163,0.0741 3.6038,0.76825 5.0607,2.0788 1.4959,1.2478 2.7396,2.8907 3.7358,4.93 0.995,1.9751 1.74,4.2527 2.2391,6.8315 0.5399,2.5167 0.8104,5.1156 0.817,7.8008 0.01,2.7473 -0.273,5.3932 -0.8396,7.938 -0.567,2.5463 -1.3796,4.8071 -2.4374,6.7831 -1.0592,1.9152 -2.3681,3.4526 -3.9218,4.6117 -1.5157,1.099 -3.2383,1.6325 -5.1751,1.5987 -1.9407,-0.0339 -3.6616,-0.72467 -5.1632,-2.0719 -1.4621,-1.3486 -2.7014,-3.1026 -3.7186,-5.266 -1.0181,-2.1656 -1.7911,-4.5818 -2.3156,-7.2458 -0.5247,-2.6652 -0.7987,-5.3252 -0.8223,-7.9797 -0.025,-2.7812 0.2485,-5.3963 0.817,-7.8442 0.5677,-2.5091 1.3893,-4.6612 2.4686,-6.456 1.1195,-1.8542 2.452,-3.289 3.9967,-4.3041 1.3493,-0.88659 2.8596,-1.3564 4.5304,-1.4091 0.1195,-0.003 0.242,-0.007 0.3633,-0.007 z m -218.32,3.114 -65.35,10.692 c 1.5138,3.1233 3.2438,5.9626 5.231,8.4598 3.0321,3.6754 6.5004,6.5033 10.405,8.4877 3.9446,1.976 8.1941,2.8687 12.751,2.6877 0.84523,-0.0339 1.6912,-0.0649 2.5364,-0.0989 1.0548,-0.0413 2.1928,-0.0134 3.4128,0.0812 1.2186,0.0944 2.468,0.29365 3.7497,0.59851 1.2758,0.23403 2.4324,0.64927 3.4665,1.2456 1.0286,0.52532 1.8844,1.2695 2.5729,2.2302 0.68394,0.89009 1.0672,2.0031 1.1544,3.3384 0.12542,1.9679 -0.21854,3.4978 -1.0344,4.5892 -0.8163,1.0925 -1.8566,1.9477 -3.1221,2.5677 -1.2196,0.54819 -2.5304,0.92432 -3.9325,1.1291 -1.4086,0.13428 -2.6105,0.22562 -3.607,0.27136 -5.2597,0.242 -10.713,-0.42409 -16.37,-2.0024 -5.6371,-1.6599 -10.886,-4.1978 -15.746,-7.6235 -0.0989,14.837 -0.18903,29.675 -0.26605,44.51 2.4138,1.2754 5.149,2.635 8.202,4.0795 3.0927,1.3655 6.2737,2.6526 9.5442,3.8602 3.2561,1.1333 6.4334,2.0573 9.5317,2.773 3.1423,0.71022 5.9821,0.97966 8.5255,0.80908 6.5638,-0.44047 12.573,-2.0281 18.05,-4.7614 5.4998,-2.7222 10.174,-6.5628 14.04,-11.525 3.9009,-4.9457 6.8304,-11.005 8.7912,-18.182 2.0026,-7.232 2.7451,-15.584 2.2131,-25.063 -0.31062,-5.5368 -1.1994,-10.573 -2.6737,-15.113 -1.429,-4.6168 -3.3855,-8.5674 -5.8743,-11.852 -1.8005,-2.4266 -3.8688,-4.4866 -6.1973,-6.1896 z m -84.784,13.872 -36.276,5.9358 c 1.4473,5.6052 2.9039,11.209 4.3444,16.816 -4.2772,0.24879 -8.5574,0.50348 -12.835,0.76363 0.41996,-5.4674 0.85497,-10.935 1.2811,-16.401 l -39.591,6.4785 c -3.154,22.614 -6.2616,45.229 -9.2745,67.847 14.995,0.43973 29.974,0.94735 44.931,1.5256 0.67288,-8.4588 1.3531,-16.918 2.0411,-25.378 6.4494,-0.49197 12.898,-0.96962 19.347,-1.4352 2.3774,8.1274 4.7453,16.257 7.1048,24.387 13.329,-3.4047 26.678,-6.7505 40.045,-10.036 -6.9552,-23.515 -14,-47.016 -21.119,-70.505 z m -114.11,18.669 -43.165,7.0611 c 2.4327,22.375 4.8661,44.752 7.2998,67.127 12.798,-2.2372 25.602,-4.4274 38.412,-6.5672 -0.87932,-22.538 -1.7057,-45.083 -2.5469,-67.623 z m -77.436,12.668 -117.98,19.304 c 2.4356,21.312 4.85,42.626 7.2962,63.937 15.423,-2.1231 30.846,-4.1875 46.271,-6.188 -1.8166,-17.635 -3.6265,-35.272 -5.4344,-52.907 7.7884,-0.84302 15.578,-1.6698 23.368,-2.4806 2.4467,18.358 4.8905,36.716 7.3345,55.077 16.121,-2.9892 32.252,-5.9092 48.39,-8.7539 -3.0678,-22.664 -6.1664,-45.325 -9.245,-67.986 z m -127.84,20.917 -13.068,2.138 c -0.59659,0.33438 -1.1802,0.68867 -1.7871,1.0073 -2.6722,1.403 -5.4149,2.6087 -8.2283,3.6167 -2.8192,1.0102 -5.5819,1.6794 -8.2886,2.0077 -3.5928,0.43575 -6.9737,0.34219 -10.142,-0.28524 -1.2919,-0.25587 -2.517,-0.63599 -3.7029,-1.0872 l -64.605,10.572 c 1.5575,4.2334 3.4026,8.2999 5.565,12.176 5.1016,8.9353 11.284,16.434 18.526,22.5 7.2101,6.04 15.233,10.428 24.054,13.178 8.7662,2.7334 17.791,3.4107 27.091,2.058 3.2065,-0.46629 6.5144,-1.1992 9.9232,-2.1972 3.3992,-0.99516 6.7605,-2.1917 10.085,-3.589 3.3036,-1.476 6.4734,-3.053 9.5146,-4.7338 3.093,-1.7682 5.9109,-3.6602 8.4504,-5.6765 -1.1395,-17.228 -2.2651,-34.457 -3.3831,-51.686 z m -115.27,22.109 c -6.9056,0.93347 -13.808,1.8779 -20.712,2.8323 -9.9084,1.3697 -19.817,2.7609 -29.722,4.1717 -0.0649,-0.65694 -0.12985,-1.3142 -0.19655,-1.9711 l -55.747,9.1213 c 3.12,20.579 6.2243,41.164 9.3511,61.741 34.332,-6.7792 68.696,-13.333 103.08,-19.627 -1.0912,-9.3738 -2.1362,-18.709 -3.1326,-28.004 -0.93185,-9.3878 -1.9059,-18.81 -2.9241,-28.267 z m -158.75,22.72 -60.524,9.9039 c 3.6845,19.912 7.3679,39.827 11.053,59.739 18.382,-4.4087 36.777,-8.7641 55.185,-13.058 -1.9269,-18.855 -3.8068,-37.721 -5.7142,-56.582 z"
           style="fill:#ffffff;stroke:#000000;stroke-width:6.41026;stroke-linecap:round;stroke-linejoin:round;stroke-dasharray:none;stroke-opacity:1;paint-order:stroke fill markers"
           id="path1"
           inkscape:label="headline" />
        <path
           d="m 616.2,313.81 q 0,2.1712 -0.38942,3.9527 -0.36167,1.7536 -1.1682,3.2289 -0.80657,1.4753 -2.0861,2.728 -1.27953,1.2527 -3.0874,2.3939 l 6.6199,11.802 -12.517,2.4495 -4.2834,-11.858 -3.4491,0.11067 -0.50068,11.58 h -11.96 q 0.13871,-6.3466 0.25026,-12.637 0.13871,-6.2911 0.30575,-12.637 0.0561,-3.2012 0.11067,-6.3466 0.0561,-3.1456 0.22252,-6.3466 1.9471,-0.72378 3.8384,-1.197 1.8914,-0.47323 3.7829,-0.72364 1.9192,-0.2783 3.8662,-0.36182 1.9748,-0.11067 4.0333,-0.11067 3.1708,0 6.1192,0.89082 2.9763,0.86279 5.257,2.6166 2.2808,1.7536 3.6437,4.3705 1.3908,2.6167 1.3908,6.0959 z m -12.461,0.89083 q 0,-1.1691 -0.33378,-2.1435 -0.30575,-0.9742 -0.94572,-1.6701 -0.61194,-0.72364 -1.5577,-1.1134 -0.91798,-0.4176 -2.1696,-0.4176 -0.55631,0 -1.0849,0.0841 -0.52856,0.0561 -1.0291,0.19478 l -0.44505,10.355 h 0.66772 q 1.196,0 2.42,-0.30619 1.2518,-0.30619 2.2252,-0.94646 1.0014,-0.64026 1.6131,-1.6424 0.63968,-1.0021 0.63968,-2.3939 z m 48.759,4.6206 q 0,2.533 -0.58405,4.8992 -0.58404,2.3383 -1.6968,4.3979 -1.0849,2.0598 -2.6703,3.7858 -1.5576,1.698 -3.5325,2.9228 -1.9471,1.2248 -4.2558,1.9206 -2.3086,0.66801 -4.8953,0.66801 -2.5034,0 -4.7842,-0.64027 -2.253,-0.64026 -4.2279,-1.7815 -1.9748,-1.169 -3.5881,-2.7834 -1.5854,-1.6422 -2.7258,-3.6186 -1.1126,-2.0043 -1.7523,-4.2866 -0.61194,-2.2825 -0.61194,-4.7599 0,-2.4216 0.58405,-4.7318 0.58419,-2.3382 1.6689,-4.3979 1.1126,-2.0598 2.6703,-3.7858 1.5577,-1.7259 3.4767,-2.9785 1.9471,-1.2526 4.2,-1.9485 2.2531,-0.6959 4.7563,-0.6959 4.0333,0 7.3429,1.2526 3.3377,1.2526 5.6743,3.5906 2.3642,2.3105 3.6437,5.6231 1.3074,3.2847 1.3074,7.3486 z m -12.35,0.72364 q 0,-1.197 -0.36167,-2.3102 -0.33378,-1.1412 -1.0014,-2.0043 -0.66771,-0.89082 -1.6689,-1.4197 -0.97346,-0.5566 -2.253,-0.5566 -1.3074,0 -2.3365,0.47322 -1.0291,0.47323 -1.7802,1.3083 -0.7232,0.80716 -1.1126,1.9207 -0.38942,1.0856 -0.38942,2.3105 0,1.1691 0.33379,2.3382 0.33378,1.1693 1.0014,2.1154 0.66771,0.94646 1.6412,1.5311 1.0014,0.58463 2.3086,0.58463 1.3074,0 2.3365,-0.50097 1.0571,-0.52886 1.7802,-1.3918 0.72319,-0.89083 1.1126,-2.0321 0.38941,-1.1412 0.38941,-2.366 z m 47.732,18.205 -13.796,1.7815 -1.6689,-6.2911 h -6.3417 l -1.3908,6.2911 -14.186,-1.3918 11.07,-37.076 15.464,-0.77942 z m -16.466,-13.027 -2.114,-9.6869 -2.0583,9.6869 z m 51.57,1.336 q 0,3.1456 -0.0826,6.2352 -0.0561,3.0619 -0.19464,6.1797 l -16.021,-0.27845 q 0.83446,-4.9271 1.4462,-9.8262 0.61193,-4.9271 0.61193,-9.9374 0,-0.36182 -0.0266,-1.1691 -0.0266,-0.80715 -0.11067,-1.8092 -0.0826,-1.0298 -0.25026,-2.0877 -0.13871,-1.0856 -0.41716,-1.9763 -0.25056,-0.89083 -0.63968,-1.4474 -0.36152,-0.58464 -0.88994,-0.58464 -0.94572,0 -1.6134,0.5566 -0.63968,0.5566 -1.0849,1.4474 -0.41716,0.86279 -0.66742,1.9485 -0.25026,1.0856 -0.38941,2.1712 -0.11067,1.0856 -0.1669,2.0598 -0.0266,0.94646 -0.0266,1.5588 -0.1387,4.9271 -0.22252,9.7984 -0.0826,4.8432 -0.22252,9.7984 l -14.186,0.61238 q 0.5563,-9.8262 1.0568,-19.54 0.52856,-9.7148 0.83446,-19.54 l 13.129,-0.66801 -0.11067,4.4538 q 0.77883,-0.94645 1.6689,-1.7815 0.91798,-0.83505 1.9471,-1.4197 1.0291,-0.61238 2.1696,-0.94645 1.1682,-0.36182 2.4477,-0.36182 2.3642,0 4.1443,0.77941 1.78,0.77942 3.0597,2.1154 1.2794,1.336 2.1417,3.1733 0.8622,1.8092 1.3908,3.8692 0.52856,2.0598 0.80656,4.3145 0.2783,2.2268 0.36168,4.3979 0.11067,2.1712 0.11067,4.2031 0,2.0321 0,3.702 z m 36.992,-7.2371 q 0,2.533 -0.58405,4.8992 -0.58405,2.3383 -1.6968,4.3979 -1.0849,2.0598 -2.6703,3.7858 -1.5577,1.698 -3.5325,2.9227 -1.9471,1.2248 -4.2558,1.9206 -2.3086,0.66801 -4.8953,0.66801 -2.5034,0 -4.7842,-0.64026 -2.2531,-0.64027 -4.2279,-1.7815 -1.9748,-1.169 -3.5882,-2.7834 -1.5854,-1.6422 -2.7259,-3.6186 -1.1126,-2.0043 -1.7523,-4.2866 -0.61194,-2.2825 -0.61194,-4.7599 0,-2.4216 0.58405,-4.7318 0.58405,-2.3383 1.6689,-4.3979 1.1126,-2.0598 2.6703,-3.7858 1.5577,-1.7259 3.4767,-2.9785 1.9471,-1.2526 4.2,-1.9485 2.253,-0.6959 4.7563,-0.6959 4.0333,0 7.3432,1.2526 3.3377,1.2526 5.6743,3.5906 2.3642,2.3105 3.6437,5.6231 1.3074,3.2847 1.3074,7.3485 z m -12.35,0.72364 q 0,-1.197 -0.36167,-2.3105 -0.33379,-1.1412 -1.0014,-2.0043 -0.66742,-0.89083 -1.6689,-1.4197 -0.97346,-0.5566 -2.2531,-0.5566 -1.3074,0 -2.3365,0.47323 -1.0291,0.47323 -1.7802,1.3083 -0.7232,0.80731 -1.1126,1.9207 -0.38942,1.0856 -0.38942,2.3102 0,1.1693 0.33379,2.3383 0.33378,1.169 1.0014,2.1154 0.66741,0.94646 1.6412,1.5308 1.0014,0.58464 2.3086,0.58464 1.3074,0 2.3365,-0.50097 1.0568,-0.52886 1.7802,-1.3918 0.72319,-0.89082 1.1126,-2.0321 0.38941,-1.1412 0.38941,-2.3661 z m 48.205,-15.366 -12.294,14.642 11.293,19.15 -12.906,2.2825 -8.4558,-11.468 -0.44504,10.912 -11.571,0.44549 0.88994,-39.862 12.962,0.72379 -1.0014,11.468 8.0663,-11.635 z m 28.956,13.473 q 0,2.4216 -0.33378,4.8432 -4.7563,0.30619 -9.457,1.0021 -4.7007,0.66801 -9.4014,1.336 0.7232,2.0043 2.2531,3.2012 1.5576,1.197 3.6992,1.197 1.1126,0 2.42,-0.41759 1.3351,-0.4176 2.6425,-1.0298 1.3074,-0.64027 2.5034,-1.3641 1.196,-0.72383 2.0583,-1.3083 l -1.3351,12.637 q -1.0849,0.83505 -2.3642,1.4197 -1.2516,0.58464 -2.6145,0.94646 -1.3629,0.36182 -2.7536,0.52886 -1.3908,0.16689 -2.7259,0.16689 -2.7536,0 -5.0345,-0.75168 -2.2809,-0.75152 -4.1443,-2.0877 -1.8357,-1.3641 -3.2266,-3.2012 -1.3908,-1.8373 -2.3086,-4.0084 -0.91797,-2.1712 -1.3908,-4.593 -0.47279,-2.4216 -0.47279,-4.8992 0,-2.5887 0.47279,-5.1773 0.47293,-2.5887 1.4185,-4.9826 0.97346,-2.3939 2.42,-4.426 1.4743,-2.0598 3.4214,-3.5906 1.9471,-1.5311 4.3947,-2.3939 2.4755,-0.86279 5.4516,-0.86279 2.4755,0 4.5058,0.6959 2.0583,0.66801 3.6437,1.8929 1.6131,1.197 2.7814,2.8671 1.196,1.6701 1.9471,3.6744 0.77883,1.9763 1.1405,4.2031 0.38942,2.1991 0.38942,4.4816 z m -11.126,-1.4474 q 0,-0.77942 -0.16689,-1.5866 -0.1669,-0.83504 -0.55631,-1.503 -0.36167,-0.66801 -0.97346,-1.0856 -0.61194,-0.44549 -1.5298,-0.44549 -1.1126,0 -1.9748,0.61238 -0.8346,0.58464 -1.4462,1.5031 -0.61193,0.89082 -1.0014,1.9485 -0.38941,1.0579 -0.58404,1.9484 l 8.2333,-0.77942 z m 25.255,-21.044 -3.1153,16.924 -8.5671,0.27845 -1.7246,-16.924 z m 29.428,30.73 q 0,3.8134 -1.3351,6.597 -1.3074,2.7557 -3.616,4.5651 -2.2808,1.7815 -5.3684,2.6443 -3.0597,0.83505 -6.5922,0.83505 -1.3629,0 -3.004,-0.36182 -1.6131,-0.36182 -3.2822,-0.89083 -1.6689,-0.5566 -3.2266,-1.1693 -1.5298,-0.64026 -2.7259,-1.197 l 1.2237,-10.912 q 2.3642,1.4197 5.2291,2.1712 2.8928,0.72378 5.6742,0.72378 0.52856,0 1.2795,-0.028 0.75109,-0.0561 1.4185,-0.25056 0.69546,-0.22267 1.1682,-0.64027 0.47293,-0.4176 0.47293,-1.197 0,-0.52885 -0.33378,-0.89082 -0.33379,-0.38986 -0.86235,-0.61238 -0.52857,-0.25041 -1.196,-0.36182 -0.66742,-0.13871 -1.3074,-0.19478 -0.63967,-0.0561 -1.196,-0.0561 -0.5563,0 -0.89009,0 -2.392,0 -4.3671,-0.75167 -1.9471,-0.75153 -3.3654,-2.1154 -1.3908,-1.3918 -2.1696,-3.3403 -0.77883,-1.9763 -0.77883,-4.3705 0,-3.2847 1.3074,-5.8732 1.3351,-2.6166 3.5325,-4.4259 2.2252,-1.8373 5.09,-2.8115 2.8648,-0.9742 5.9246,-0.9742 1.3629,0 2.8094,0.11068 1.4462,0.0841 2.865,0.33407 1.4462,0.25041 2.8094,0.64027 1.3629,0.38986 2.5867,0.9742 l -1.0568,11.301 q -1.8914,-0.64026 -3.9774,-1.0579 -2.0583,-0.44549 -4.0333,-0.44549 -0.36167,0 -0.94572,0.028 -0.55631,0 -1.196,0.0841 -0.61194,0.0561 -1.2518,0.19478 -0.63967,0.13871 -1.1405,0.38985 -0.50052,0.22267 -0.80656,0.61238 -0.30575,0.38986 -0.27816,0.91857 0.0266,0.61238 0.4449,0.94646 0.44504,0.33408 1.1126,0.50097 0.69546,0.13871 1.502,0.13871 0.8346,0 1.6412,-0.028 0.80657,-0.0561 1.502,-0.0841 0.69545,-0.0561 1.1405,-0.028 2.2252,0.13871 4.0054,0.94646 1.7802,0.80716 3.004,2.1435 1.2516,1.336 1.8914,3.2012 0.66772,1.8373 0.66772,4.0638 z m 42.363,-24.997 -0.2783,11.802 -8.2888,0.33408 -1.0014,25.832 -11.738,0.61237 -1.0568,-25.832 -8.2888,0.44549 0.33378,-13.139 z m 32.071,16.757 q 0,2.4216 -0.33378,4.8432 -4.7563,0.30619 -9.457,1.0021 -4.7007,0.66801 -9.4014,1.336 0.7232,2.0043 2.2531,3.2012 1.5576,1.1969 3.6992,1.1969 1.1126,0 2.42,-0.4176 1.3351,-0.4176 2.6424,-1.0298 1.3074,-0.64027 2.5034,-1.364 1.196,-0.72379 2.0583,-1.3083 l -1.3351,12.637 q -1.0849,0.83505 -2.3642,1.4197 -1.2516,0.58463 -2.6145,0.94645 -1.3629,0.36182 -2.7536,0.52886 -1.3908,0.1669 -2.7259,0.1669 -2.7536,0 -5.0345,-0.75168 -2.2809,-0.75168 -4.1443,-2.0877 -1.8357,-1.364 -3.2266,-3.201 -1.3906,-1.8373 -2.3086,-4.0084 -0.91798,-2.1712 -1.3908,-4.593 -0.47278,-2.4216 -0.47278,-4.8992 0,-2.5887 0.47278,-5.1773 0.47294,-2.5887 1.4185,-4.9826 0.97346,-2.3939 2.42,-4.426 1.4743,-2.0598 3.4214,-3.5906 1.9471,-1.5311 4.3947,-2.3939 2.4755,-0.86279 5.4516,-0.86279 2.4756,0 4.5059,0.6959 2.0583,0.66801 3.6437,1.8929 1.6131,1.197 2.7814,2.8671 1.196,1.6701 1.9471,3.6744 0.77883,1.9763 1.1404,4.2031 0.38942,2.1991 0.38942,4.4817 z m -11.126,-1.4474 q 0,-0.77941 -0.16689,-1.5867 -0.1669,-0.83505 -0.55631,-1.5031 -0.36167,-0.66801 -0.97346,-1.0856 -0.61194,-0.44534 -1.5299,-0.44534 -1.1126,0 -1.9748,0.61238 -0.83431,0.58464 -1.4462,1.5031 -0.61194,0.89083 -1.0014,1.9484 -0.38942,1.0579 -0.58405,1.9485 l 8.2333,-0.77942 z m 39.468,-14.085 -1.0014,11.747 q -0.80657,-0.22267 -1.5854,-0.30619 -0.77883,-0.0841 -1.5854,-0.0841 -1.9748,0 -3.7829,0.50097 -1.7802,0.50097 -3.1708,1.5311 -1.3629,1.0298 -2.1973,2.6166 -0.80657,1.5588 -0.80657,3.702 0,1.5588 0.44504,2.728 0.47279,1.1412 1.3074,1.9207 0.8622,0.75153 2.0583,1.1412 1.2237,0.38985 2.698,0.38985 1.0291,0 2.114,-0.19478 1.0849,-0.22267 2.1696,-0.58463 1.0849,-0.36182 2.0861,-0.83505 1.0014,-0.47323 1.8637,-1.0021 l -0.44505,13.083 q -1.0849,0.5566 -2.3365,1.0021 -1.2516,0.4176 -2.5868,0.72364 -1.3074,0.33408 -2.6424,0.50097 -1.3074,0.16689 -2.5034,0.16689 -3.9496,0 -7.2042,-1.4753 -3.2266,-1.4753 -5.5629,-4.0084 -2.3086,-2.5609 -3.5884,-5.929 -1.2795,-3.3681 -1.2795,-7.1817 0,-4.5651 1.2795,-8.5178 1.3074,-3.9527 3.8108,-6.8477 2.5311,-2.9227 6.2305,-4.5651 3.7271,-1.6701 8.5394,-1.6701 1.9192,0 3.8941,0.30619 1.9749,0.30619 3.783,1.1412 z m 35.689,36.909 -13.907,0.66801 -0.11067,-11.747 h -6.3975 l -0.38941,12.192 h -12.461 l 1.0568,-39.135 13.24,0.61238 -0.83446,19.987 h 6.175 l 0.0561,-20.933 12.68404,0.33408 z m 43.224,-38.134 -0.2783,11.802 -8.2888,0.33408 -1.0013,25.832 -11.738,0.61237 -1.0571,-25.832 -8.2888,0.44534 0.3338,-13.139 z m 33.043,36.855 -13.796,1.7815 -1.6689,-6.2911 h -6.3417 l -1.3908,6.2911 -14.186,-1.3918 11.07,-37.076 15.464,-0.77941 z m -16.466,-13.027 -2.1139,-9.687 -2.0584,9.687 z m 51.238,-20.543 -12.294,14.642 11.293,19.15 -12.906,2.2825 -8.4559,-11.468 -0.445,10.912 -11.571,0.44549 0.8901,-39.862 12.962,0.72364 -1.0013,11.468 8.0662,-11.635 z m 28.956,13.473 q 0,2.4216 -0.3338,4.8433 -4.7563,0.30618 -9.457,1.0021 -4.7007,0.66801 -9.4014,1.336 0.7232,2.0043 2.2529,3.2012 1.5577,1.1969 3.6992,1.1969 1.1127,0 2.42,-0.4176 1.3352,-0.41759 2.6426,-1.0298 1.3074,-0.64026 2.5033,-1.364 1.196,-0.72379 2.0584,-1.3083 l -1.3352,12.637 q -1.0848,0.83505 -2.3642,1.4197 -1.2517,0.58464 -2.6146,0.94646 -1.3629,0.36182 -2.7537,0.52886 -1.3907,0.16689 -2.7259,0.16689 -2.7536,0 -5.0344,-0.75168 -2.2809,-0.75167 -4.1447,-2.0877 -1.8357,-1.3641 -3.2266,-3.2012 -1.3908,-1.8373 -2.3086,-4.0084 -0.918,-2.1714 -1.3908,-4.593 -0.4728,-2.4216 -0.4728,-4.8992 0,-2.5887 0.4728,-5.1773 0.4728,-2.5887 1.4185,-4.9826 0.9735,-2.3939 2.42,-4.426 1.4743,-2.0598 3.4214,-3.5906 1.9471,-1.5311 4.3947,-2.3939 2.4756,-0.86279 5.4516,-0.86279 2.4755,0 4.5059,0.6959 2.0584,0.66801 3.6438,1.8929 1.6131,1.197 2.7813,2.8671 1.196,1.6702 1.9471,3.6744 0.7788,1.9763 1.1404,4.2031 0.3894,2.1991 0.3894,4.4817 z m -11.126,-1.4474 q 0,-0.77942 -0.1669,-1.5866 -0.1669,-0.83505 -0.5563,-1.5031 -0.3616,-0.66801 -0.9735,-1.0856 -0.6119,-0.44548 -1.5298,-0.44548 -1.1126,0 -1.9748,0.61237 -0.8344,0.58464 -1.4462,1.5031 -0.612,0.89083 -1.0014,1.9486 -0.3894,1.0579 -0.584,1.9484 l 8.2333,-0.77941 z m 47.314,2.6166 q 0,2.533 -0.5841,4.8992 -0.584,2.3382 -1.6968,4.3979 -1.0849,2.0598 -2.6703,3.7858 -1.5576,1.6978 -3.5324,2.9227 -1.9471,1.2248 -4.2558,1.9207 -2.3086,0.66801 -4.8954,0.66801 -2.5034,0 -4.7842,-0.64027 -2.2531,-0.64027 -4.2279,-1.7815 -1.9748,-1.1693 -3.5881,-2.7834 -1.5854,-1.6424 -2.7259,-3.6186 -1.1126,-2.0042 -1.7523,-4.2866 -0.6119,-2.2825 -0.6119,-4.7599 0,-2.4216 0.584,-4.732 0.584,-2.3382 1.6689,-4.3979 1.1126,-2.0598 2.6703,-3.7858 1.5576,-1.7259 3.4767,-2.9785 1.947,-1.2526 4.2,-1.9485 2.2531,-0.6959 4.7563,-0.6959 4.0333,0 7.343,1.2526 3.3377,1.2526 5.6743,3.5906 2.3642,2.3102 3.6437,5.6228 1.3074,3.2847 1.3074,7.3485 z m -12.35,0.72364 q 0,-1.197 -0.3617,-2.3105 -0.3338,-1.1412 -1.0014,-2.0042 -0.6674,-0.89082 -1.6689,-1.4197 -0.9734,-0.5566 -2.2531,-0.5566 -1.3074,0 -2.3365,0.47322 -1.0291,0.47323 -1.7801,1.3083 -0.7232,0.80716 -1.1127,1.9207 -0.3894,1.0856 -0.3894,2.3105 0,1.169 0.3338,2.3382 0.3338,1.1693 1.0014,2.1154 0.6677,0.94646 1.6411,1.5311 1.0014,0.58464 2.3086,0.58464 1.3074,0 2.3365,-0.50097 1.0569,-0.52886 1.7801,-1.3918 0.7231,-0.89083 1.1126,-2.0321 0.3894,-1.1412 0.3894,-2.3661 z m 47.367,-18.427 -10.18,37.635 -13.796,0.77941 -12.517,-36.355 13.184,-1.2248 5.3406,21.154 5.1735,-22.825 z m 30.486,16.534 q 0,2.4216 -0.3337,4.8432 -4.7564,0.30619 -9.4571,1.0021 -4.7009,0.66801 -9.4014,1.336 0.7232,2.0043 2.2531,3.2012 1.5577,1.197 3.6992,1.197 1.1126,0 2.42,-0.4176 1.3351,-0.4176 2.6424,-1.0298 1.3074,-0.64027 2.5034,-1.3641 1.1959,-0.72378 2.0583,-1.3083 l -1.3351,12.637 q -1.0849,0.83505 -2.3643,1.4197 -1.2517,0.58464 -2.6144,0.94646 -1.3629,0.36182 -2.7537,0.52886 -1.3908,0.16689 -2.7259,0.16689 -2.7536,0 -5.0345,-0.75167 -2.2808,-0.75168 -4.1442,-2.0877 -1.8357,-1.364 -3.2266,-3.2012 -1.3908,-1.8373 -2.3086,-4.0084 -0.918,-2.1712 -1.3908,-4.593 -0.4727,-2.4216 -0.4727,-4.8992 0,-2.5887 0.4727,-5.1773 0.4728,-2.5887 1.4185,-4.9826 0.9735,-2.3939 2.42,-4.426 1.4743,-2.0598 3.4214,-3.5906 1.9471,-1.5311 4.3947,-2.3939 2.4755,-0.86279 5.4516,-0.86279 2.4756,0 4.5059,0.6959 2.0584,0.66801 3.6438,1.8929 1.6134,1.197 2.7813,2.8671 1.196,1.6701 1.9471,3.6744 0.7788,1.9763 1.1404,4.2031 0.3894,2.1991 0.3894,4.4817 z m -11.126,-1.4474 q 0,-0.77941 -0.1669,-1.5867 -0.1669,-0.83505 -0.5563,-1.5031 -0.3616,-0.66801 -0.9735,-1.0856 -0.6119,-0.44534 -1.5298,-0.44534 -1.1126,0 -1.9748,0.61238 -0.8346,0.58464 -1.4464,1.5031 -0.6119,0.89083 -1.0013,1.9485 -0.3894,1.0579 -0.5841,1.9486 l 8.2334,-0.77942 z m 45.533,-2.8948 q 0,2.1712 -0.3894,3.9527 -0.3615,1.7536 -1.1682,3.2289 -0.8066,1.4753 -2.0863,2.728 -1.2795,1.2526 -3.0874,2.3939 l 6.6199,11.802 -12.517,2.4495 -4.2834,-11.858 -3.4491,0.11067 -0.5007,11.58 h -11.96 q 0.1387,-6.3466 0.2505,-12.637 0.1388,-6.2911 0.3058,-12.637 0.056,-3.2012 0.1107,-6.3466 0.056,-3.1454 0.2225,-6.3466 1.9471,-0.72364 3.8383,-1.197 1.8915,-0.47323 3.7829,-0.72364 1.9192,-0.27845 3.8663,-0.36182 1.9748,-0.11067 4.0333,-0.11067 3.1708,0 6.1192,0.89083 2.9763,0.86279 5.257,2.6166 2.2808,1.7536 3.6437,4.3705 1.3908,2.6166 1.3908,6.0959 z m -12.461,0.89083 q 0,-1.1693 -0.3338,-2.1435 -0.3057,-0.9742 -0.9457,-1.6701 -0.6119,-0.72364 -1.5576,-1.1133 -0.918,-0.4176 -2.1696,-0.4176 -0.5563,0 -1.0849,0.0841 -0.5286,0.0561 -1.0291,0.19478 l -0.445,10.355 h 0.6677 q 1.196,0 2.42,-0.30618 1.2516,-0.30619 2.2252,-0.94646 1.0014,-0.64027 1.6131,-1.6424 0.6397,-1.0021 0.6397,-2.3939 z"
           style="fill:#ffffff;stroke:#000000;stroke-width:6.41026;stroke-linecap:round;stroke-linejoin:round;stroke-dasharray:none;stroke-opacity:1;paint-order:stroke fill markers"
           id="path2"
           inkscape:label="logo" />
      </g>
    </g>
  </g>
</svg>
