<?xml version="1.0" encoding="UTF-8"?>
<svg width="300" height="200" version="1.1" viewBox="0 0 79.374 52.918" xml:space="preserve" xmlns="http://www.w3.org/2000/svg"><g transform="matrix(.40538 0 0 .40538 -25.37 -96.966)"><path d="m148.15 306.49 0.0185-1.1442 6.0242-6.8114 6.2653 6.7585v1.6481z" style="fill:#6d3034;paint-order:stroke fill markers;stroke-width:.26042"/><path d="m154.2 298.54 0.11136 5.9963v2.185l1.5338 0.22553v-2.4122l-1.6451-5.9945" style="fill:#190923;paint-order:stroke fill markers;stroke-width:.26042"/><path d="m154.61 298.54a0.41396 0.41396 0 0 1-0.41396 0.41395 0.41396 0.41396 0 0 1-0.41395-0.41395 0.41396 0.41396 0 0 1 0.41395-0.41396 0.41396 0.41396 0 0 1 0.41396 0.41396z" style="fill:#190923;paint-order:stroke fill markers;stroke-linecap:round;stroke-linejoin:round;stroke-width:.28651"/><path d="m154.19 291.04a0.14326 0.14326 0 0 0-0.14134 0.14429v7.621a0.14326 0.14326 0 0 0 0.14134 0.14429 0.14326 0.14326 0 0 0 0.14429-0.14429v-7.621a0.14326 0.14326 0 0 0-0.14429-0.14429z" style="-inkscape-stroke:none;color:#000000;fill:#190923;paint-order:stroke fill markers;stroke-linecap:round;stroke-linejoin:round;stroke-width:1.4769"/><path d="m154.18 305.34 2.158 0.0213 4.7908 0.84137v0.76021l1.6784-0.31235v13.229h-19.175v-10.025c0.79934-0.98421 2.0729-2.0727 2.9635-2.0627l0.87338-0.12229v-1.416z" style="fill:#e0c5a7;paint-order:stroke fill markers;stroke-width:.26042"/><path d="m157.95 315.49-7.8e-4 1.1502h1.8714v-1.1502z" style="paint-order:stroke fill markers;stroke-width:.26042"/><path d="m151.69 315.49-7.8e-4 1.1502h1.8714v-1.1502z" style="paint-order:stroke fill markers;stroke-width:.26042"/><path d="m148 306.55c-0.13425-1e-3 -0.27333 4e-3 -0.41596 0.0183-1.216 0.11786-3.0453 2.0393-3.0453 2.0393v8.4281l-2.4529 0.17249v16.947l-1.2372-0.0641v11.518h25.745v-28.565l-1.4425-0.11372-0.0443-8.2257s-0.76939-2.1545-2.3629-2.1545c-1.7604 0-2.3369 1.644-2.3369 1.644l0.0756 8.3684-1.486-0.11756h-6.0338l-1.8737 0.1313v-8.3822s-1.0749-1.6232-3.0896-1.6439z" style="fill:#734c52;paint-order:stroke fill markers;stroke-width:.26042"/><path d="m154.17 309.97v6.4986h-1.0807v27.013h6.0338v-27.013h-1.5867v-6.4986z" style="fill:#ab8573;paint-order:stroke fill markers;stroke-width:.26042"/><path d="m154.7 315.49v1.1502h2.2011v-1.1502z" style="paint-order:stroke fill markers;stroke-width:.26042"/><path d="m157.95 313.59-7.8e-4 1.1502h1.8706v-1.1502z" style="paint-order:stroke fill markers;stroke-width:.26042"/><path d="m154.7 313.59v1.1502h2.2011v-1.1502z" style="paint-order:stroke fill markers;stroke-width:.26042"/><path d="m151.69 313.59-7.8e-4 1.1502h1.8706v-1.1502z" style="paint-order:stroke fill markers;stroke-width:.26042"/><path d="m157.95 310.8-7.8e-4 1.911h1.8699v-1.911z" style="paint-order:stroke fill markers;stroke-width:.26042"/><path d="m154.7 310.8v1.911h2.2011v-1.911z" style="paint-order:stroke fill markers;stroke-width:.26042"/><path d="m151.7 310.8-7.8e-4 1.911h1.8698v-1.911z" style="paint-order:stroke fill markers;stroke-width:.26042"/><path d="m158.51 317.37-0.94332 0.0648v1.2272l0.94332-0.0518zm-6.0484 0.0648-1.3096 0.0764v1.1586l1.3096-0.0656zm1.0349 0-4e-3 1.1868 0.67848 0.0405-9e-3 -1.2272zm1.1998 0v1.2272h2.2042v-1.2272zm5.0424 0v1.1692l0.92728 0.0656v-1.1586zm-9.2171 0.11372-1.0853 0.0634v29.021h1.0853zm10.591 0v15.799h0.76853v-15.736zm-12.38 0.10457-1.6936 0.1v27.268h1.6936zm13.647 0v14.083h1.1998v-13.983zm-16.007 0.13897-1.0853 0.0641v28.778h1.0853zm17.68 0v15.556h0.76853v-15.492zm-19.432 0.10309-1.3096 0.0771v1.0922l1.3096-0.0657zm20.673 0v1.1035l0.92729 0.0657v-1.0922zm-6.7825 1.4661-0.94332 0.0648v1.2272l0.94332-0.0518zm-6.0484 0.0244-1.3096 0.0763v1.1585l1.3096-0.0656zm7.277 0v1.1692l0.92728 0.0656v-1.1585zm-6.2421 0.0405-4e-3 1.1868 0.67849 0.0405-9e-3 -1.2272zm1.1998 0v1.2272h2.2042v-1.2272zm-10.076 0.41977-1.3096 0.0771v1.0929l1.3096-0.0656zm20.673 0v1.1044l0.92728 0.0656v-1.0929zm-6.7825 1.4318-0.94333 0.0648v1.2272l0.94333-0.0518zm-6.0484 0.0648-1.3096 0.0763v1.1586l1.3096-0.0656zm1.0349 0-4e-3 1.1868 0.67848 0.0405-9e-3 -1.2272zm1.1998 0v1.2272h2.2042v-1.2272zm5.0424 0v1.1692l0.92728 0.0656v-1.1585zm-15.119 0.4602-1.3096 0.0771v1.0922l1.3096-0.0656zm20.673 0v1.1036l0.92728 0.0656v-1.0922zm-6.7825 1.4257-0.94332 0.0648v1.2272l0.94332-0.0518zm-6.0484 0.0648-1.3096 0.0764v1.1585l1.3096-0.0656zm1.0349 0-4e-3 1.1868 0.67848 0.0405-9e-3 -1.2272zm1.1998 0v1.2272h2.2042v-1.2272zm5.0424 0v1.1692l0.92728 0.0656v-1.1586zm-15.119 0.4602-1.3096 0.0771v1.0929l1.3096-0.0656zm20.673 0v1.1043l0.92729 0.0656v-1.0929zm-6.7825 1.4936-0.94332 0.0648v1.2272l0.94332-0.0518zm-6.0484 3e-3 -1.3096 0.0763v1.1585l1.3096-0.0656zm7.277 0v1.1692l0.92728 0.0656v-1.1585zm-6.2421 0.0619-4e-3 1.1868 0.67848 0.0405-9e-3 -1.2272zm1.1998 0v1.2272h2.2042v-1.2272zm-10.076 0.39838-1.3097 0.0771v1.0922l1.3097-0.0656zm20.673 0v1.1036l0.92728 0.0656v-1.0922zm-6.7825 1.4257-0.94333 0.0648v1.2272l0.94333-0.0518zm-6.0484 0.0648-1.3096 0.0764v1.1585l1.3096-0.0656zm1.0349 0-4e-3 1.1868 0.67848 0.0405-9e-3 -1.2272zm1.1998 0v1.2272h2.2042v-1.2272zm5.0424 0v1.1692l0.92728 0.0656v-1.1585zm-15.119 0.46021-1.3096 0.0771v1.0929l1.3096-0.0656zm20.673 0v1.1044l0.92729 0.0656v-1.0929zm-6.7825 1.3974-0.94332 0.0648v1.2272l0.94332-0.0518zm-5.0135 0.0648-4e-3 1.1868 0.67849 0.0405-9e-3 -1.2272zm1.1998 0v1.2272h2.2042v-1.2272zm-2.2346 0.0344-1.3096 0.0764v1.1586l1.3096-0.0656zm7.277 0v1.1692l0.92728 0.0656v-1.1586zm-15.119 0.46021-1.3096 0.0771v1.0922l1.3096-0.0657zm20.673 0v1.1036l0.92729 0.0657v-1.0922zm-6.7825 1.357-0.94332 0.0648v1.2272l0.94332-0.0518zm-5.0135 0.0648-4e-3 1.1868 0.67849 0.0405-9e-3 -1.2272zm1.1998 0v1.2272h2.2042v-1.2272zm-2.2346 0.0687-1.3096 0.0763v1.1586l1.3096-0.0656zm-7.8419 0.4602-1.3096 0.0771v1.0929l1.3096-0.0656zm20.673 0v1.1044l0.92729 0.0656v-1.0929zm-12.831 1.3089-1.3096 0.0763v1.1586l1.3096-0.0656zm-7.8419 0.4602-1.3096 0.0771v1.0929l1.3096-0.0656z" style="paint-order:stroke fill markers;stroke-width:.26042"/><path d="m143.31 335.18 1.31-0.0787v9.1286h-1.31z" style="paint-order:stroke fill markers;stroke-linecap:round;stroke-linejoin:round;stroke-width:.19571"/><path d="m141.66 335.28 1.31-0.0787v7.4111h-1.31z" style="paint-order:stroke fill markers;stroke-linecap:round;stroke-linejoin:round;stroke-width:.19571"/><path d="m150.52 310.86-1.0982 0.11225v5.7234l1.0982-0.0771zm-1.7889 0.18317-1.6981 0.17324v5.6463l1.6981-0.11904zm-2.3606 0.24117-1.1036 0.11299v5.5898l1.1036-0.0778z" style="paint-order:stroke fill markers;stroke-width:.26042"/><path d="m145.27 310.54 5.2533-0.57184v-1.2097s-0.90015-1.099-2.6265-1.099c-1.691 0-2.6268 1.7055-2.6268 1.7055z" style="paint-order:stroke fill markers;stroke-width:.26042"/><path d="m161.11 310.96 0.77705 0.11225v5.7234l-0.77705-0.0771zm1.2657 0.18317 1.2015 0.17323v5.6463l-1.2015-0.11903zm1.6702 0.24117 0.78085 0.11299v5.5898l-0.78085-0.0778z" style="paint-order:stroke fill markers;stroke-width:.26042"/><path d="m164.83 310.64-3.7169-0.57184v-1.2097s0.63692-1.099 1.8584-1.099c1.1965 0 1.8585 1.7055 1.8585 1.7055z" style="paint-order:stroke fill markers;stroke-width:.26042"/><path d="m96.131 335.39v11.235h-16.059v-11.478l9.5945 0.49033z" style="fill:#e3823d;paint-order:stroke fill markers;stroke-linecap:square;stroke-width:1.1723"/><path d="m80.071 335.14 4.9026-2.521 6.0437 0.18203 5.113 2.5815-6.4648 0.24778z" style="paint-order:stroke fill markers;stroke-linecap:square;stroke-width:1.1723"/><path d="m148.04 345.5v-12.377l7.5596 0.26531 5.3104-0.39702-2.0081-0.0739v-2.1641h6.7953v1.0177h1.1574v2.5785l9.751-0.77931v3.6294l1.0776-0.13484v11.475z" style="fill:#e3823d;paint-order:stroke fill markers;stroke-width:.26042"/><path d="m160.91 332.99-7.9072-0.41349-4.9627 0.54523 7.5596 0.26531 5.3104-0.39703" style="paint-order:stroke fill markers;stroke-width:.26042"/><path d="m148.96 334.12v1.3242l0.69833 0.0434v-1.3356zm9.6859 0.026-0.69833 0.0626v1.4898l0.69833-0.039zm-7.8426 0.0588v1.3532l0.69833 0.0434v-1.3638zm0.99523 0.0458v1.3692l0.69833 0.0427v-1.3791zm5.1677 0.0458-0.69833 0.0626v1.4318l0.69833-0.0381zm-8.0059 1.9988v1.3242l0.69833 0.0434v-1.3356zm9.6859 0.0253-0.69833 0.0634v1.4898l0.69833-0.039zm-7.8426 0.0595v1.3532l0.69833 0.0436v-1.3638zm0.99523 0.0458v1.3692l0.69833 0.0427v-1.3791zm5.1677 0.0458-0.69833 0.0626v1.4318l0.69833-0.0381zm-8.0059 2.0713v1.3242l0.69833 0.0434v-1.3356zm9.6859 0.0251-0.69832 0.0634v1.4898l0.69832-0.039zm-7.8426 0.0595v1.3532l0.69832 0.0434v-1.3638zm0.99522 0.0458v1.3692l0.69833 0.0427v-1.3791zm5.1677 0.0458-0.69833 0.0626v1.4318l0.69833-0.0381zm-8.0059 2.0713v1.3242l0.69833 0.0434v-1.3356zm9.6859 0.0253-0.69833 0.0634v1.4898l0.69833-0.039zm-7.8426 0.0595v1.3532l0.69833 0.0436v-1.3638zm0.99523 0.0458v1.3692l0.69832 0.0427v-1.3791zm5.1677 0.0458-0.69833 0.0626v1.4318l0.69833-0.0381z" style="paint-order:stroke fill markers;stroke-width:.26042"/><path d="m163.3 342.41-0.69833 0.0434v1.399l0.69833-0.058z" style="paint-order:stroke fill markers;stroke-width:.26042"/><path d="m164.28 342.35-0.69833 0.0427v1.3784l0.69833-0.0571z" style="paint-order:stroke fill markers;stroke-width:.26042"/><path d="m165.19 342.29-0.69833 0.0427v1.3593l0.69833-0.0572z" style="paint-order:stroke fill markers;stroke-width:.26042"/><path d="m166.11 342.24-0.69833 0.0434v1.3394l0.69833-0.0572z" style="paint-order:stroke fill markers;stroke-width:.26042"/><path d="m163.3 340.34-0.69833 0.0436v1.399l0.69833-0.058z" style="paint-order:stroke fill markers;stroke-width:.26042"/><path d="m164.28 340.28-0.69833 0.0427v1.3784l0.69833-0.0573z" style="paint-order:stroke fill markers;stroke-width:.26042"/><path d="m165.19 340.22-0.69833 0.0427v1.3593l0.69833-0.0573z" style="paint-order:stroke fill markers;stroke-width:.26042"/><path d="m166.11 340.17-0.69833 0.0436v1.3394l0.69833-0.0572z" style="paint-order:stroke fill markers;stroke-width:.26042"/><path d="m163.3 338.23-0.69833 0.0436v1.399l0.69833-0.058z" style="paint-order:stroke fill markers;stroke-width:.26042"/><path d="m164.28 338.17-0.69833 0.0427v1.3784l0.69833-0.0573z" style="paint-order:stroke fill markers;stroke-width:.26042"/><path d="m165.19 338.11-0.69833 0.0427v1.3593l0.69833-0.0573z" style="paint-order:stroke fill markers;stroke-width:.26042"/><path d="m166.11 338.05-0.69833 0.0434v1.3394l0.69833-0.0573z" style="paint-order:stroke fill markers;stroke-width:.26042"/><path d="m163.3 336.1-0.69833 0.0434v1.3989l0.69833-0.058z" style="paint-order:stroke fill markers;stroke-width:.26042"/><path d="m164.28 336.04-0.69833 0.0427v1.3784l0.69833-0.0573z" style="paint-order:stroke fill markers;stroke-width:.26042"/><path d="m165.19 335.99-0.69833 0.0427v1.3593l0.69833-0.0573z" style="paint-order:stroke fill markers;stroke-width:.26042"/><path d="m166.11 335.93-0.69833 0.0436v1.3394l0.69833-0.0573z" style="paint-order:stroke fill markers;stroke-width:.26042"/><path d="m163.3 333.98-0.69833 0.0436v1.3982l0.69833-0.0573z" style="paint-order:stroke fill markers;stroke-width:.26042"/><path d="m164.28 333.92-0.69833 0.0427v1.3776l0.69833-0.0573z" style="paint-order:stroke fill markers;stroke-width:.26042"/><path d="m165.19 333.87-0.69833 0.0427v1.3593l0.69833-0.0581z" style="paint-order:stroke fill markers;stroke-width:.26042"/><path d="m166.11 333.81-0.69833 0.0434v1.3394l0.69833-0.058z" style="paint-order:stroke fill markers;stroke-width:.26042"/><path d="m163.3 331.64-0.69833 0.0436v1.3982l0.69833-0.058z" style="paint-order:stroke fill markers;stroke-width:.26042"/><path d="m164.28 331.58-0.69833 0.0427v1.3776l0.69833-0.0572z" style="paint-order:stroke fill markers;stroke-width:.26042"/><path d="m168.65 334.82-0.69833 0.0619v5.8354l0.69833-0.0328zm-1.0082 0.0893-0.69833 0.0619v5.7934l0.69833-0.0328z" style="paint-order:stroke fill markers;stroke-width:.26042"/><path d="m176.15 335.62-0.69832 0.0496v0.50143l0.69832-0.045zm-1.1242 0.0802-0.69832 0.0504v0.49228l0.69832-0.045zm-1.0807 0.0771-0.69833 0.0504v0.48463l0.69833-0.045zm-1.0799 0.0778-0.69833 0.0496v0.47701l0.69833-0.0451zm-1.125 0.0802-0.69833 0.0504v0.46859l0.69833-0.045zm-1.1242 0.0809-0.69833 0.0496v0.46096l0.69833-0.045zm5.5341 0.87004-0.69833 0.0496v0.50143l0.69833-0.0451zm-1.1242 0.0802-0.69833 0.0504v0.49226l0.69833-0.045zm-1.0807 0.0778-0.69833 0.0496v0.48463l0.69833-0.0451zm-1.0799 0.0771-0.69833 0.0504v0.47624l0.69833-0.045zm-1.125 0.0809-0.69832 0.0504v0.46783l0.69832-0.045zm-1.1242 0.0809-0.69833 0.0496v0.4602l0.69833-0.045z" style="paint-order:stroke fill markers;stroke-width:.26042"/><path d="m73.493 344.67-10.912 0.91785v4.4841l8.3475 2.1436 14.213-0.8972 6.2184-4.6925-17.867-1.9558z" style="paint-order:stroke fill markers;stroke-linecap:square;stroke-width:1.1723"/><path d="m62.582 347.33v10.09h25.255l-3.5291-9.0496-6.106 0.77061s-1.7775 0.21673-2.6694 0.19351c-0.85372-0.0222-2.5424-0.3178-2.5424-0.3178l-10.408-1.6869z" style="fill:#b3b3b3;paint-order:stroke fill markers;stroke-linecap:square;stroke-width:1.1723"/><path d="m62.582 348.27v1.2689l1.332 0.26044v-1.3079l-1.332-0.22143zm1.9458 0.32354v1.3255l2.2981 0.45052v-1.3936l-2.2981-0.38243zm2.8962 0.48149v1.4112l2.5493 0.49908v-1.4858l-2.5493-0.4245zm14.982 0.4528-2.0124 0.29065v1.4926l2.0124-0.26082v-1.5225zm-11.799 0.0876v1.4934l2.7027 0.52891v-1.5837l-2.6388-0.43865h-0.06387zm9.463 0.24973-2.544 0.36676s-0.13209 0.0119-0.30901 0.0268v1.4632c0.0074-1e-3 0.04283-6e-3 0.04283-6e-3l2.8101-0.36408v-1.4865zm-6.1075 0.28989v1.5814c0.44573 0.051 1.1892 0.12839 1.6479 0.12736 0.28919-5.2e-4 0.72152-0.0401 1.0739-0.0784v-1.4862c-0.37164 0.0248-0.78671 0.0451-1.0746 0.036-0.45713-0.0148-1.1737-0.11107-1.6472-0.18013zm-11.381 0.25394v1.2682l1.332 0.26082v-1.3076l-1.332-0.22143zm1.9458 0.32392v1.3248l2.2981 0.45013v-1.3936l-2.2981-0.38129zm2.8962 0.48149v1.4104l2.5493 0.49908v-1.4862l-2.5493-0.42336zm14.982 0.45242-2.0124 0.29104v1.4926l2.0124-0.26121v-1.5225zm-11.799 0.0765v1.5041l2.7027 0.52891v-1.5837l-2.7027-0.44936zm9.463 0.26082-2.544 0.36714s-0.13209 0.0119-0.30901 0.0268v1.4632c0.0074-1e-3 0.04283-6e-3 0.04283-6e-3l2.8101-0.36408v-1.4869zm-6.1075 0.28951v1.5814c0.44573 0.051 1.1892 0.12839 1.6479 0.12735 0.28922-5.2e-4 0.72152-0.0407 1.0739-0.0788v-1.485c-0.37164 0.0248-0.78671 0.0453-1.0746 0.036-0.45713-0.0148-1.1737-0.11166-1.6472-0.18089zm-11.381 0.25393v1.2689l1.332 0.26044v-1.3079l-1.332-0.22143zm1.9458 0.32355v1.3259l2.2981 0.45013v-1.3936zm2.8962 0.48148v1.4112l2.5493 0.49946v-1.4862l-2.5493-0.42451zm3.1834 0.53006v1.376h2.7027v-0.92665l-2.7027-0.44936zm9.463 0.26006-2.544 0.36714s-0.13209 0.0119-0.30901 0.0268v0.58589h2.853v-0.9798zm-6.1075 0.28989v1.2135h2.7218v-1.0689c-0.37164 0.0248-0.78671 0.0449-1.0746 0.0356-0.45713-0.0148-1.1737-0.11106-1.6472-0.18012zm-11.381 0.25432v1.2682l1.332 0.26044v-1.3072l-1.332-0.22143zm1.9458 0.32354v1.3248l2.2981 0.45051v-1.3936l-2.2981-0.38167zm2.8962 0.48149v1.4104l2.5493 0.49908v-1.4858l-2.5493-0.42374z" style="paint-order:stroke fill markers;stroke-linecap:square;stroke-width:1.1723"/><path d="m215.34 325.36h-9.7413v13.568l10.953 0.15383" style="fill:#e3823d;paint-order:stroke fill markers;stroke-linecap:square;stroke-width:1.1723"/><path d="m169.82 338.59v7.7489l25.079-6.72z" style="fill:#e3823d;paint-order:stroke fill markers;stroke-linecap:square;stroke-width:1.1723"/><path d="m169.82 338.59 16.123-1.5245 19.661 0.48041-10.704 2.0728-25.079-1.0288" style="paint-order:stroke fill markers;stroke-linecap:square;stroke-width:1.1723"/><path d="m82.407 347.27 10.38-0.86169 13.434 0.86169 0.0487 5.8874-20.732-1.0356" style="paint-order:stroke fill markers;stroke-linecap:square;stroke-width:1.1723"/><path d="m98.529 349.25-16.12-1.9856v10.905h16.5z" style="fill:#e3823d;paint-order:stroke fill markers;stroke-linecap:square;stroke-width:1.1723"/><path d="m83.311 351.02v2.1721l0.65101 0.1183v-2.1835zm1.1792 0.19309v2.1934l0.65101 0.11904v-2.2057zm1.3356 0.2198v2.2171l0.65101 0.11904v-2.2293zm1.1204 0.18394v2.2377l0.65101 0.1183v-2.2492zm1.5363 0.25262v2.2652l0.65026 0.11829v-2.2766zm1.1669 0.19155v2.2858l0.65101 0.11903v-2.298zm1.489 0.24423v2.3133l0.65101 0.1183v-2.324zm1.215 0.19996v2.3346l0.65026 0.1183v-2.3461zm1.66 0.27247v2.3644l0.65101 0.11904v-2.3766zm1.2074 0.19842v2.3865l0.65101 0.1183v-2.398zm1.6676 0.27398v2.4163l0.65026 0.1183v-2.4278z" style="paint-order:stroke fill markers;stroke-linecap:square;stroke-width:1.1723"/><path d="m237.56 297.43-15.313 1.9233v5.1836l-5.6942 0.55867v1.7142l-2.969 0.11904v40.218l38.586 0.62583v-40.461l-10.616-4.67-0.66476 0.0648v-3.2924z" style="paint-order:stroke fill markers;stroke-linecap:square;stroke-width:1.1723"/><path d="m243.31 303.42v43.893h0.86242v-43.515zm-2.3492 1.4234-24.404 2.2461v40.112l6.9596 0.11298h17.542zm8.577 1.3158v41.156h0.50523v-40.932z" style="fill:#9d5961;paint-order:stroke fill markers;stroke-linecap:square;stroke-width:1.1723"/><path d="m238.35 306.92-1.0601 0.10147v1.8477l1.0601-0.0802zm-2.6185 0.25034-1.0601 0.10146v1.7958l1.0601-0.0809zm2.6185 3.7901-1.0601 0.0764v1.7279l1.0601-0.0702zm-2.6185 0.18928-1.0601 0.0763v1.7103l1.0601-0.0694zm-5.5911 0.40296-1.0601 0.0764v1.6745l1.0601-0.0694zm-2.5903 0.18622-1.0601 0.0764v1.6584l1.0601-0.0703zm-5.3028 0.38237-1.0601 0.0763v1.6241l1.0601-0.0702zm-2.2286 0.16104-1.0601 0.0763v1.6088l1.0601-0.0694zm18.331 2.5537-1.0601 0.061v1.7157l1.0601-0.0504zm-2.6185 0.15034-1.0601 0.061v1.6913l1.0601-0.0504zm-5.5911 0.32208-1.0601 0.061v1.6386l1.0601-0.0511zm-2.5903 0.14958-1.0601 0.061v1.6134l1.0601-0.0511zm-5.3028 0.30529-1.0601 0.061v1.563l1.0601-0.0511zm-2.2286 0.12819-1.0601 0.061v1.5416l1.0601-0.0504zm18.331 2.8078-1.0601 0.0482v1.8454l1.0601-0.0352zm-2.6185 0.11978-1.0601 0.0489v1.8103l1.0601-0.0343zm-5.5911 0.25644-1.0601 0.0489v1.7378l1.0601-0.0351zm-2.5903 0.11904-1.0601 0.0481v1.7042l1.0601-0.0351zm-5.3028 0.2427-1.0601 0.0489v1.6348l1.0601-0.0351zm-2.2286 0.1022-1.0601 0.0489v1.605l1.0601-0.0344zm18.331 3.1002-1.0601 0.0289v1.8599l1.0601-0.0176zm-2.6185 0.0725-1.0601 0.029v1.8317l1.0601-0.0183zm-5.5911 0.15493-1.0601 0.0298v1.7691l1.0601-0.0176zm-2.5903 0.0718-1.0601 0.0298v1.7409l1.0601-0.0176zm-5.3028 0.14725-1.0601 0.029v1.6836l1.0601-0.0183zm-2.2286 0.0619-1.0601 0.0289v1.6592l1.0601-0.0183zm18.331 3.3817-1.0601 0.0133v1.9874l1.0601 9e-3zm-2.6185 0.0328-1.0601 0.0133v1.9324l1.0601 9e-3zm-5.5911 0.071-1.0601 0.0133v1.8142l1.0601 9e-3zm-2.5903 0.032-1.0601 0.0133v1.7592l1.0601 9e-3zm-5.3028 0.0672-1.0601 0.0133v1.6478l1.0601 9e-3zm-2.2286 0.0282-1.0601 0.0133v1.6004l1.0601 9e-3zm-1.0601 3.5856v1.6371l1.0601 0.0229v-1.6546zm2.2286 0.0103v1.6752l1.0601 0.0236v-1.6936zm5.3028 0.026v1.7668l1.0601 0.0229v-1.7851zm2.5903 0.0118v1.8119l1.0601 0.0229v-1.8294zm5.5914 0.0267v1.908l1.0601 0.0236v-1.9263zm2.6185 0.0133v1.953l1.0601 0.0236v-1.9721zm-18.331 3.632v1.518l1.0601 0.0366v-1.5402zm2.2286 0.0313v1.5638l1.0601 0.0366v-1.586zm5.3028 0.074v1.673l1.0601 0.0366v-1.6951zm2.5903 0.0359v1.7271l1.0601 0.0366v-1.7485zm5.5914 0.0786v1.8416l1.0601 0.0366v-1.8637zm2.6185 0.0359v1.8966l1.0601 0.0366v-1.9179zm-18.331 3.281v1.6203l1.0601 0.0405v-1.6325zm2.2286 0.058v1.647l1.0601 0.0397v-1.6592zm5.3028 0.13809v1.7096l1.0601 0.0397v-1.7218zm2.5903 0.0672v1.7401l1.0601 0.0397v-1.7523zm5.5914 0.14504v1.8065l1.0601 0.0397v-1.8187zm2.6185 0.0679v1.8378l1.0601 0.0397v-1.85z" style="paint-order:stroke fill markers;stroke-linecap:square;stroke-width:1.1723"/><path d="m106.98 331.37 7.1721 1.4722v4.6726l6.7166-2.204 21.169 1.8084v7.3278l10.334-1.0185 37.406 3.0523v23.252h-83.369" style="paint-order:stroke fill markers;stroke-width:.26042"/><path d="m99.996 331.37v5.3813l-1.9982-0.17133 7.65e-4 33.152h73.398l0.38284-14.761-15.11-12.929-5.1721 4.3158-2.0174-0.10976v1.3657l-7.438-0.77596v-9.7181l-17.565 1.4032-17.493-1.7076v-5.4448h-6.9879z" style="fill:#5a2421;paint-order:stroke fill markers;stroke-width:.26042"/><path d="m156.97 344.5c1.5537 0 2.8044 1.8093 2.8044 3.363v11.458h-5.6091v-12.017c0-1.5537 1.2508-2.8044 2.8044-2.8044z" style="paint-order:stroke fill markers;stroke-linecap:square;stroke-width:1.1723"/><path d="m142.52 349.5v2.2171l1.3852 0.17324v-2.2469zm2.9797 0.30833v2.2812l2.0744 0.25949v-2.3255zm4.0817 0.42281v2.369l2.3461 0.29307v-2.4194zm-7.0611 4.7312v3.1338l1.3852 0.23813v-3.2015zm2.9797 0.3671v3.2781l2.0744 0.35643v-3.3786zm4.0817 0.50372v3.4758l2.3461 0.40296v-3.5893z" style="paint-order:stroke fill markers;stroke-width:.26042"/><path d="m140.6 340.59-2.1431 0.23354v3.6948l2.1431-0.25566zm-3.188 0.34724-1.3822 0.15111v3.719l1.3822-0.16485zm-3.2901 0.35869-1.1356 0.12362v3.7513l1.1356-0.13587zm-3.181 0.34651-1.0059 0.10988v3.7817l1.0059-0.11977zm-2.3301 0.25414-2.6765 0.29154v3.8229l2.6765-0.31901zm11.989 3.8573-2.1431 0.2633v3.732l2.1431-0.30148zm-3.188 0.39228-1.3822 0.1702v3.7739l1.3822-0.19386zm-3.2901 0.40451-1.1356 0.14045v3.8284l1.1356-0.16027zm-3.181 0.39153-1.0059 0.12435v3.8817l1.0059-0.14119zm-2.3301 0.28695-2.6765 0.32971v3.9518l2.6765-0.37627zm11.989 3.9297-2.1431 0.3839v3.7221l2.1431-0.46859zm-3.188 0.57163-1.3822 0.24728v3.8174l1.3822-0.30224zm-3.2901 0.58919-1.1356 0.20377v3.9367l1.1356-0.24803zm-3.181 0.5701-1.0059 0.18012v4.0565l1.0059-0.21981zm-2.3301 0.41747-2.6765 0.47929v4.2138l2.6765-0.5846z" style="paint-order:stroke fill markers;stroke-width:.26042"/><path d="m111.96 340.85v3.6739l0.94867 0.1115v-3.6984zm4.1703 0.38083v3.7825l1.0983 0.1282v-3.8099zm4.0237 0.36786v3.8862l2.8513 0.33427v-3.9604zm-8.1937 4.9768v3.6747l0.94867 0.11135v-3.6992zm4.1703 0.38085v3.7825l1.0983 0.12894v-3.8106zm4.0237 0.36786v3.8862l2.8513 0.3343v-3.9604zm-8.1937 5.0151v3.6854l0.94867 0.11135v-3.7099zm4.1703 0.38083v3.794l1.0983 0.12819v-3.8213zm4.0237 0.36786v3.8968l2.8513 0.33427v-3.9711zm-8.1937 5.4226v3.6856l0.94867 0.11151v-3.7106zm4.1703 0.38086v3.794l1.0983 0.12893v-3.8221zm4.0237 0.36786v3.8976l2.2347 0.26177h0.61666v-3.8992z" style="paint-order:stroke fill markers;stroke-width:.26042"/><path d="m100.86 333.46v2.4987l1.0731 0.0313v-2.5247zm1.9218 9e-3v2.546l1.0731 0.0313v-2.5728zm2.0354 9e-3v2.5964l1.0731 0.0313v-2.6224zm-3.9573 6.8192v3.158l1.0731 0.11224v-3.1825zm1.9218 0.15798v3.2008l1.0731 0.11136v-3.2245zm2.0355 0.16639v3.2466l1.0731 0.1115v-3.2695zm2.414 0.19843v3.2994l1.37 0.14267v-3.3299zm-6.3713 4.5518v3.577l1.0731 0.12746v-3.6091zm1.9218 0.1702v3.6351l1.0731 0.12746v-3.6672zm2.0354 0.18087v3.6956l1.0731 0.12745v-3.7276zm2.414 0.21523v3.7664l1.37 0.16256v-3.8075zm-6.3713 4.3578v3.5237l1.0731 0.16868v-3.5528zm1.9218 0.24957v3.5758l1.0731 0.16866v-3.6047zm2.0354 0.26484v3.6304l1.0731 0.16791v-3.6588zm2.414 0.31367v3.6955l1.37 0.21446v-3.732zm-6.3713 4.2961v3.0916l1.0731 0.21217v-3.1536zm1.9218 0.26942v3.2015l1.0731 0.21217v-3.2627zm2.0354 0.2862v3.3177l1.0731 0.21217v-3.3786zm2.414 0.33888v3.4557l1.37 0.27015v-3.5328zm-6.3713 4.2031v1.5226l1.0731 0.24805v-1.5684zm1.9218 0.36174v1.6043l1.0731 0.24804v-1.6508zm2.0354 0.38237v1.692l1.0731 0.24804v-1.7378zm2.414 0.45411v1.7951l1.37 0.31672v-1.8538z" style="paint-order:stroke fill markers;stroke-width:.26042"/><path d="m62.582 356.4v1.9011l1.1557-0.20766v-1.5355z" style="paint-order:stroke fill markers;stroke-width:.26042"/><path d="m82.889 352.07-19.151 2.9555v3.071l-1.1569 0.20384v11.436h15.091l5.2168-1.3978v-16.268z" style="fill:#8f614a;paint-order:stroke fill markers;stroke-width:.26042"/><path d="m77.219 358.78-1.3378 0.22602v3.206l1.3378-0.28147v-3.1505zm-1.856 0.3136-1.3381 0.22679v3.2817l1.3381-0.28109zm-1.8556 0.3136-1.3378 0.22679v3.3582l1.3378-0.28109zm-2.3581 0.39926-1.3381 0.22679v3.4549l1.3381-0.28186v-3.3999zm-1.773 0.3006-1.6189 0.27344v3.5398l1.6189-0.34037v-3.4729zm-2.4399 0.41303-1.8196 0.30748v3.6473l1.8196-0.38243v-3.5724zm10.283 3.2251-1.3378 0.30022v2.6526l1.3378-0.35796v-2.5948zm-1.856 0.41686-1.3381 0.29983v2.7325l1.3381-0.35796v-2.6744zm-1.8556 0.41609-1.3378 0.29983v2.8132l1.3378-0.35796v-2.7551zm-2.3581 0.52891-1.3381 0.29983v2.9146l1.3381-0.35796v-2.8564zm-1.773 0.39735-1.6189 0.36332v3.0033l1.6189-0.43292zm-2.4399 0.54727-1.8196 0.40844v3.1169l1.8196-0.48607v-3.0392z" style="paint-order:stroke fill markers;stroke-width:.26042"/><path d="m77.764 356.15 10.262-2.1006 16.865 4.6349 12.903-2.6841 45.208-8.8216 8.6023 6.5937-28.393 6.8684-13.76-4.8677-11.658 0.2272v9.5468l-7.2148-2.1628 0.1371-3.3028-5.8255-1.397v5.508l-27.127-8.0424" style="paint-order:stroke fill markers;stroke-width:.26042"/><path d="m162.88 355.64-19.666 4.9958-13.759-4.868-11.658 0.22755v9.5464l-7.0774-2.1114v-3.3544l-5.8257-1.3967v5.5082l-27.127-8.0426v13.587h85.153l-0.0394-14.092z" style="fill:#ffa45f;paint-order:stroke fill markers;stroke-width:.26042"/><path d="m159.85 363.44-3.5957 1.1259v5.1717h3.5957zm-4.7705 1.4942-3.5368 1.1075v3.6959h3.5368z" style="paint-order:stroke fill markers;stroke-width:.26042"/><path d="m206.46 343.21-37.5 8.8676 1.023 17.654h88.403v-23.098l-51.926-3.424z" style="paint-order:stroke fill markers;stroke-width:.26042"/><path d="m205.34 336.27-45.708 10.777 2.9149 6.5523 43.916-10.384 51.925 3.4236v-8.2775l-53.049-2.0912z" style="fill:#d0c6c5;paint-order:stroke fill markers;stroke-width:.26042"/><path d="m159.63 347.04 0.12811 22.69h98.629v-4.5678l-24.183-2.6698v-1.5034l-35.632-4.4294v-1.4437l-25.3-3.0748v-3.2802l-13.642-1.7214z" style="fill:#c37e50;paint-order:stroke fill markers;stroke-width:.26042"/><path d="m164.85 358.52v6.8062l3.4002 0.6708v-6.9443l-3.4002-0.53273zm8.11 1.2708v7.1359l3.222 0.63561v-7.2663l-3.222-0.5052zm5.013 0.78591v7.339l3.3762 0.66659v-7.4763zm6.1389 0.96182v7.5891l3.087 0.60923h0.58704v-7.6231l-3.6741-0.57519zm6.4081 1.0047v7.1936h3.8278v-6.594l-3.8278-0.59966zm8.6186 1.3496v5.844h4.1923v-5.1866l-4.1923-0.65741zm11.265 1.7653v4.0787h4.9021v-3.31l-4.9021-0.76869zm10.344 1.6212v2.4575h4.9564v-1.6804l-4.9564-0.77711zm8.5054 1.3332v1.1244h5.5071v-0.26083l-5.5071-0.86354zm-64.403 0.92129v0.20308h0.98593z" style="paint-order:stroke fill markers;stroke-width:.26042"/><path d="m78.045 366.97-13.183 2.7677h22.958l-9.7759-2.7677z" style="paint-order:stroke fill markers;stroke-width:.26042"/></g></svg>
