<?xml version="1.0" encoding="UTF-8"?>
<svg width="300" height="200" version="1.1" viewBox="0 0 79.374 52.918" xml:space="preserve" xmlns="http://www.w3.org/2000/svg"><path d="m59.341 31.718c-1.0252 0.37021-1.9476 0.77534-3.6706 0.90789-0.85224 0.12506-1.3681 0.41599-3.3406-0.0113-1.3468-0.10631-2.6551-0.26847-3.718-0.78666l-3.3496 0.59828c-0.9213 0.23622-1.8554 0.0366-2.7875-0.0975-1.5153 0.50423-3.1084 0.53948-4.7108 0.51767-2.3267 0.64883-4.4984 0.43585-6.6851 0.3076-0.82482 0.22957-1.3413 0.56075-3.5164 0.34558-0.76284 0.0945-1.6428 0.0968-2.8165-0.13147-0.27536-0.0154-0.37012 0.0334-1.1285-0.15317-0.30895 0.0531-0.56549 0.17514-1.0901-0.0557-0.70215 0.19608-1.301 0.0118-1.9209-0.0949-0.71934 0.22971-1.159 0.15553-1.5015-0.0243-1.8643 0.50804-2.1517 0.13636-2.9891 0.0715-1.1932 0.31993-2.26 0.27455-3.2494 6e-3 -4.8602 0.36211-8.9163 0.81777-12.868 1.1547v18.646h79.377v-20.173c-0.93831 0.11953-1.9362 0.16317-3.1108-0.0183-0.80991 5e-3 -1.0376 0.22671-2.6979-0.0833-1.8127 0.21623-3.5005 0.0983-5.1185-0.20681-1.1393 0.25964-2.1852 0.58685-3.9007 0.42898-1.7975-0.12344-3.535-0.49832-5.207-1.1485z" style="fill:#32276a;paint-order:stroke fill markers;stroke-width:.10547"/></svg>
