<?xml version="1.0" encoding="UTF-8"?>
<svg width="300" height="200" version="1.1" viewBox="0 0 79.374 52.918" xml:space="preserve" xmlns="http://www.w3.org/2000/svg"><g transform="matrix(.61815 0 0 .63373 8.736 -1.5323)"><path d="m59.739 4.923c-0.39957-0.00229-0.78296 0.080301-1.1491 0.24793-0.36797 0.16846-0.68935 0.41312-0.9631 0.73377-0.27145 0.31702-0.47993 0.70511-0.62521 1.164-0.14226 0.45503-0.19143 0.96968-0.14856 1.5435 0.01372 0.18364 0.03882 0.36022 0.07175 0.53194l2.4319-0.35921c-0.04612-0.062015-0.07505-0.13832-0.08436-0.23059-0.0097-0.09091 0.0031-0.17027 0.0383-0.23802 0.03522-0.067722 0.08396-0.12122 0.14632-0.16057 0.06199-0.044106 0.13362-0.078824 0.21477-0.10398 0.08106-0.025135 0.16078-0.042976 0.23905-0.053642 0.08145-0.015467 0.15788-0.023681 0.22938-0.024638 0.07469-0.00577 0.1352-0.00897 0.18154-0.00955 0.25265-0.00321 0.51213 0.031818 0.77815 0.10481 0.26832 0.067975 0.52442 0.15508 0.76824 0.26112 0.01055-0.95525 0.02183-1.9105 0.0337-2.8657-0.16053-0.10027-0.32944-0.18429-0.5067-0.25184-0.17767-0.067691-0.36042-0.12355-0.5484-0.16764-0.18486-0.044167-0.37121-0.074051-0.55889-0.0896-0.18846-0.02035-0.37144-0.030991-0.54877-0.031948zm10.801 0.36842c-0.11315-2.279e-4 -0.2252 0.00183-0.33623 0.00614-0.21971 0.00447-0.43803 0.024975-0.6549 0.061421-0.21449 0.032201-0.42898 0.08266-0.64338 0.15149-0.21504 0.069041-0.43311 0.15865-0.65408 0.26904-9.11e-4 0.51807 0.0047 1.0319 0.01661 1.5415 1.3e-4 0.00559 0.0028 0.1193 0.0034 0.14748l4.88-0.72069c-0.10894-0.19738-0.23145-0.37701-0.37075-0.5349-0.2531-0.28683-0.54458-0.50595-0.87452-0.6568-0.32845-0.15579-0.66981-0.24155-1.0234-0.25678-0.11523-0.00497-0.22946-0.00762-0.3426-0.00789zm-16.154 0.018159c-1.0944 0.085624-2.1882 0.17678-3.2816 0.27327-0.22185 1.5053-0.4371 3.0109-0.64948 4.5169l2.6077-0.38503c0.01105-0.1404 0.02172-0.28083 0.03287-0.42124 0.03473 0.13368 0.06901 0.26739 0.10367 0.40108l2.4228-0.3578c-0.40896-1.3428-0.81931-2.6855-1.236-4.0272zm7.9662 0.018274c0.03704 0.99945 0.07428 1.9989 0.11169 2.9984l5.4355-0.80274c-0.01422-0.69802-0.0285-1.396-0.04253-2.0941-1.8336-0.051332-3.6685-0.084863-5.5046-0.10151zm-12.684 0.09573c-2.3349 0.070736-4.6701 0.16531-7.005 0.28188 0.11724 1.2472 0.23483 2.4943 0.3526 3.7417 0.64552-0.087062 1.2912-0.17246 1.9372-0.25606 0.06137 0.56468 0.12275 1.1293 0.18414 1.694l3.0104-0.44457c-0.01973-0.53499-0.04102-1.0699-0.06043-1.6049 0.60964-0.06325 1.2194-0.12487 1.8293-0.18486-0.08291-1.0757-0.16558-2.1514-0.24811-3.2272zm-7.6353 0.32845c-1.0484 0.019392-2.097 0.043197-3.1458 0.07121 0.24162 1.9593 0.48338 3.9184 0.72513 5.8775l3.1656-0.46746c-0.24843-1.8271-0.49572-3.6544-0.74516-5.4814zm40.579 0.30417-2.5333 0.41452c-0.01529 0.45166-0.0245 0.90112-0.02509 1.3473-6.84e-4 0.50816-0.0052 1.016-0.0139 1.5238-0.01156 0.96164-0.02166 1.9153-0.03039 2.8605-0.0088 0.94533-0.01618 1.8948-0.02229 2.8487 0.60656 0.0043 1.213 0.01093 1.8192 0.01991l0.03993-2.8703c0.20735 0.0036 0.41821-0.01294 0.63264-0.0494 0.21378-0.04042 0.4196-0.10514 0.61792-0.19417 0.20031-0.0927 0.38818-0.21392 0.56372-0.36348 0.17509-0.14914 0.32813-0.33324 0.45934-0.55233 0.13345-0.2185 0.24038-0.47645 0.32069-0.77385 0.0802-0.29705 0.1254-0.64046 0.13513-1.0305l-1.17e-4 -1.188e-4c0.0089-0.35793-0.01578-0.68206-0.07457-0.97285-0.05621-0.29489-0.13752-0.55986-0.24434-0.79484-0.10699-0.23538-0.23708-0.44056-0.39032-0.61564-0.15091-0.17932-0.31727-0.33183-0.49928-0.45731-0.17992-0.12561-0.37041-0.22164-0.57126-0.28789-0.06104-0.021377-0.12241-0.035501-0.18366-0.051993zm-50.923 0.087121c-0.13402 0.00114-0.26646 0.00657-0.3975 0.016381-0.93328 0.069891-1.7401 0.3223-2.4147 0.75676-0.67466 0.43748-1.2132 1.0067-1.6129 1.7065-0.40194 0.70367-0.6643 1.5082-0.78686 2.4124-0.11415 0.83038-0.10709 1.6989 0.01637 2.6035l3.7489-0.55363c-0.0088-0.04462-0.01809-0.08846-0.02509-0.13534-0.06841-0.45907-0.05166-0.86711 0.05066-1.2236 0.10723-0.35644 0.2737-0.66092 0.49928-0.91346 0.23-0.2523 0.50623-0.4485 0.8281-0.58828 0.31986-0.1449 0.66438-0.23458 1.033-0.26928 0.14404-0.013551 0.28913-0.018661 0.43507-0.01533 0.14571 0.00333 0.29305 0.0206 0.44216 0.051871-0.02672-1.1831-0.05229-2.3662-0.0767-3.5496-0.33092-0.14445-0.68337-0.2342-1.0573-0.26881-0.23155-0.021947-0.45911-0.031925-0.68248-0.029946zm5.8892 0.20018c-1.1557 0.011613-2.3119 0.028249-3.4682 0.04975 0.22759 2.0065 0.45786 4.0128 0.68685 6.0191l3.3003-0.48739c-0.17392-1.8604-0.34705-3.721-0.51908-5.5814zm47.385 0.24451c-0.12242 2.8188-0.24299 5.6377-0.36204 8.4565 0.54237 0.01492 1.0845 0.03179 1.6266 0.05057 0.04509-0.86706 0.09037-1.7341 0.13584-2.6012 0.27553 0.01531 0.55102 0.03109 0.82644 0.04739-0.02841 0.90924-0.057 1.8185-0.08553 2.7277 0.58143-0.02484 1.1632-0.04738 1.745-0.06767 0.08579-2.7697 0.17008-5.5394 0.25317-8.309-0.5459-0.084606-1.0921-0.16726-1.6388-0.24804-0.05822 1.5182-0.11635 3.0365-0.17448 4.5546-0.267-0.01868-0.53415-0.03695-0.80124-0.05471 0.08354-1.4177 0.16772-2.8355 0.2526-4.2532-0.59191-0.10319-1.1844-0.20419-1.7776-0.30297zm-59.295 0.16941c-2.5833 0.2282-5.1641 0.47784-7.7416 0.7465 0.36406 2.413 0.73053 4.8256 1.096 7.2381l6.2943-0.92958c-0.07542-0.80291-0.15072-1.6059-0.22561-2.4089-0.81256 0.09338-1.625 0.18888-2.4371 0.28637-0.03343-0.37343-0.06685-0.7469-0.10014-1.1204 1.1415-0.19485 2.284-0.38572 3.4274-0.57238-0.04269-0.54729-0.09239-1.0878-0.14903-1.6215-0.05664-0.5336-0.11137-1.073-0.16423-1.6184zm52.566 0.015217-2.915 0.477c-0.07616 0.097899-0.14945 0.2014-0.21842 0.31348-0.16074 0.2612-0.2976 0.55002-0.41035 0.86628-0.11 0.3169-0.19293 0.65686-0.24894 1.0197-0.05613 0.35877-0.081 0.72709-0.07504 1.1049 0.0061 0.38647 0.04404 0.75819 0.11358 1.1148 0.07237 0.3563 0.16894 0.6908 0.28899 1.0033 0.12266 0.30765 0.26737 0.58887 0.43377 0.84378 0.16879 0.24995 0.35473 0.46494 0.55773 0.64511 0.20236 0.17534 0.41725 0.31176 0.64491 0.40946 0.22967 0.09735 0.46907 0.14554 0.7183 0.14501 0.25655-4.55e-4 0.49808-0.05157 0.72525-0.1529 0.22637-0.10521 0.43438-0.2498 0.62465-0.43397 0.19241-0.1836 0.36457-0.4024 0.51649-0.65643 0.15426-0.25759 0.2845-0.54018 0.39077-0.84766 0.10879-0.3069 0.19255-0.63486 0.25083-0.98407 0.05824-0.35306 0.08831-0.71944 0.09036-1.0992 0.0032-0.60947-0.05734-1.1634-0.1832-1.6628-0.12335-0.50437-0.30156-0.93727-0.53522-1.2987-0.21205-0.33563-0.46975-0.60257-0.76942-0.80698zm11.411 0.087478c-0.16603 2.7852-0.33066 5.5702-0.494 8.3553 0.95848 8e-3 1.917 0.02229 2.8755 0.04291 0.0349-0.41082 0.07082-0.8196 0.1078-1.2263 0.03935-0.41024 0.07791-0.82238 0.11545-1.2363-0.19317-0.016-0.38643-0.03179-0.57962-0.04728-0.2755-0.02208-0.55119-0.04367-0.8268-0.06472 0.02583-0.2778 0.05185-0.55561 0.07776-0.83339 0.33484 0.0089 0.66972 0.0185 1.0046 0.02888 0.05777-0.58418 0.11561-1.1683 0.17377-1.7525-0.33342-0.0343-0.66696-0.06788-1.0006-0.10068 0.02403-0.23914 0.04823-0.47825 0.07234-0.71738 0.47628 0.00794 0.95249 0.017337 1.4289 0.028295 0.03875-0.3522 0.07403-0.70094 0.10579-1.0462 0.03178-0.3452 0.065-0.69389 0.09955-1.0462-1.0524-0.13536-2.106-0.26348-3.1606-0.38431zm-15.59 0.59631-2.161 0.35357c0.03811 0.041493 0.07414 0.086144 0.10521 0.13782 0.07301 0.11219 0.12808 0.24586 0.16529 0.40108 0.04025 0.1552 0.06254 0.32534 0.06692 0.51049 0.0052 0.2204-0.02534 0.40941-0.09131 0.56696-0.06301 0.15776-0.1479 0.28669-0.25483 0.38681-0.10406 0.10033-0.22401 0.17411-0.36015 0.2214-0.13335 0.04742-0.26617 0.07063-0.39821 0.06956-0.03691-2.28e-4 -0.07382-6.84e-4 -0.11074-9.12e-4 0.0011-0.71672 0.0023-1.4335 0.0037-2.1501l-2.1232 0.34743c6e-3 0.2527 0.01271 0.54176 0.01319 0.56305 0.01778 1.0285 0.03718 2.0528 0.05821 3.0728 0.02417 1.0201 0.0471 2.045 0.0688 3.0747 0.66028-0.02291 1.3204-0.04334 1.9804-0.06131 6.84e-4 -0.92608 0.0014-1.8522 0.0025-2.7783 0.18848-0.01017 0.37701-0.02016 0.56549-0.02995 0.25709 0.938 0.51177 1.8763 0.76388 2.8149 0.65358-0.20596 1.3085-0.40941 1.9647-0.61033-0.36141-0.92481-0.72661-1.8489-1.0955-2.7721 0.1889-0.17821 0.34944-0.36466 0.48174-0.55964 0.13202-0.1946 0.23872-0.40654 0.3202-0.63592 0.08138-0.22909 0.13914-0.48016 0.17294-0.75323 0.03666-0.27717 0.05225-0.58514 0.04677-0.92404-0.0075-0.46261-0.07104-0.87547-0.18496-1.2447zm-56.811 0.22918c-3.3557 0.36259-6.7051 0.75708-10.046 1.1777 0.24592 1.4902 0.49213 2.9803 0.73855 4.4704 0.92854-0.18604 1.8579-0.37013 2.7878-0.5521 0.19125 1.0337 0.38259 2.0674 0.57385 3.1012l4.2484-0.62731c-0.11045-1.0969-0.22289-2.1934-0.33235-3.2905 0.86891-0.15073 1.7383-0.2994 2.6083-0.44598-0.19306-1.2777-0.38592-2.5554-0.57857-3.8333zm65.048 0.76066c0.01408-8.44e-5 0.02785 4.556e-4 0.04159 0.00137 0.16467 0.011016 0.29658 0.095609 0.39537 0.25347 0.10132 0.15374 0.14932 0.363 0.14456 0.62791-0.0028 0.15485-0.02595 0.29417-0.06951 0.41805-0.04093 0.12004-0.09577 0.22509-0.16458 0.31512-0.06883 0.08605-0.14776 0.15119-0.23668 0.19547-0.08645 0.04448-0.17646 0.06432-0.27014 0.05942-0.0352-0.0018-0.07038-0.0037-0.10556-0.0055-0.03392-0.0018-0.06921-0.0077-0.10568-0.0178 0.02413-0.59824 0.04845-1.1964 0.0728-1.7947 0.05287-0.017087 0.10818-0.029834 0.16612-0.038316 0.04542-0.00931 0.08944-0.014146 0.13171-0.014396zm-15.221 0.15279-2.4437 0.39977c0.10105 2.0433 0.20208 4.0864 0.30325 6.1296 0.68426-0.08419 1.3688-0.16588 2.0535-0.245 0.0262-2.0948 0.05544-4.1896 0.08695-6.2845zm9.999 0.57368v1.185e-4c0.0083 3.9e-5 0.01643 2.279e-4 0.02474 6.836e-4 0.12986 0.00502 0.24422 0.052063 0.34295 0.14088 0.10138 0.084562 0.18566 0.1959 0.25317 0.3341 0.06743 0.13385 0.11792 0.2882 0.15174 0.46296 0.03659 0.17055 0.05492 0.34668 0.05537 0.52865 4.55e-4 0.18618-0.0185 0.36549-0.0569 0.53795-0.03842 0.17256-0.09349 0.32577-0.16518 0.45968-0.07178 0.12979-0.16048 0.23398-0.26577 0.31253-0.10272 0.07448-0.21946 0.11063-0.35071 0.10834-0.13152-0.0023-0.24814-0.04911-0.3499-0.14041-0.09909-0.09139-0.18307-0.21026-0.25201-0.35687-0.06899-0.14676-0.12138-0.3105-0.15692-0.49104-0.03556-0.18062-0.05413-0.36088-0.05573-0.54077-0.0017-0.18848 0.01684-0.3657 0.05537-0.53159 0.03847-0.17004 0.09415-0.31588 0.16729-0.43751 0.07587-0.12566 0.16617-0.22289 0.27085-0.29168 0.09144-0.060083 0.19379-0.091918 0.30702-0.095495 0.0081-2.278e-4 0.0164-4.556e-4 0.02462-4.556e-4zm-14.795 0.21103-4.4287 0.72459c0.10259 0.21166 0.21983 0.40408 0.3545 0.57331 0.20548 0.24908 0.44052 0.44072 0.70511 0.5752 0.26732 0.13391 0.5553 0.19441 0.86415 0.18214 0.05728-0.0023 0.11461-0.0044 0.17189-0.0067 0.07148-0.0028 0.1486-9.11e-4 0.23128 0.0055 0.08258 0.0064 0.16725 0.0199 0.25411 0.04056 0.08646 0.01586 0.16484 0.044 0.23492 0.08441 0.06971 0.0356 0.1277 0.08603 0.17436 0.15114 0.04635 0.06032 0.07232 0.13575 0.07823 0.22624 0.0085 0.13336-0.01481 0.23704-0.0701 0.311-0.05532 0.07404-0.12582 0.13199-0.21158 0.17401-0.08265 0.03715-0.17148 0.06264-0.2665 0.07652-0.09546 0.0091-0.17691 0.01529-0.24444 0.01839-0.35644 0.0164-0.726-0.02874-1.1094-0.1357-0.38202-0.11249-0.73774-0.28448-1.0671-0.51663-0.0067 1.0055-0.01281 2.011-0.01803 3.0164 0.16358 0.08643 0.34894 0.17857 0.55584 0.27646 0.20959 0.09254 0.42516 0.17976 0.6468 0.2616 0.22066 0.0768 0.43598 0.13942 0.64595 0.18792 0.21295 0.04813 0.4054 0.06639 0.57776 0.05483 0.44482-0.02985 0.85205-0.13744 1.2232-0.32267 0.37271-0.18448 0.68947-0.44475 0.95144-0.78105 0.26436-0.33516 0.46289-0.74582 0.59577-1.2322 0.13571-0.4901 0.18603-1.0561 0.14998-1.6985-0.02105-0.37522-0.08128-0.7165-0.18119-1.0242-0.09684-0.31287-0.22943-0.5806-0.39809-0.8032-0.12202-0.16445-0.26218-0.30405-0.41998-0.41946zm-5.7457 0.94009-2.4584 0.40226c0.09808 0.37986 0.19679 0.75963 0.29441 1.1396-0.28986 0.01686-0.57992 0.03412-0.8698 0.05175 0.02846-0.37052 0.05794-0.74102 0.08682-1.1115l-2.683 0.43904c-0.21374 1.5325-0.42434 3.0651-0.62852 4.5979 1.0162 0.0298 2.0313 0.0642 3.0449 0.10339 0.0456-0.57324 0.0917-1.1465 0.13832-1.7198 0.43707-0.03334 0.87411-0.06571 1.3111-0.09726 0.16111 0.55078 0.32158 1.1017 0.48148 1.6527 0.9033-0.23073 1.8079-0.45747 2.7138-0.68013-0.47134-1.5936-0.94874-3.1862-1.4312-4.778zm-7.7333 1.2652-2.9252 0.47852c0.16486 1.5163 0.32977 3.0328 0.4947 4.5491 0.86728-0.15161 1.735-0.30004 2.6031-0.44505-0.05959-1.5274-0.11559-3.0552-0.1726-4.5827zm-5.2477 0.8585-7.9953 1.3082c0.16506 1.4443 0.32868 2.8887 0.49445 4.3329 1.0452-0.14388 2.0904-0.28378 3.1357-0.41935-0.12311-1.1951-0.24576-2.3903-0.36828-3.5854 0.52781-0.05713 1.0557-0.11316 1.5836-0.16811 0.16581 1.2441 0.33142 2.4882 0.49705 3.7325 1.0925-0.20257 2.1857-0.40046 3.2793-0.59324-0.2079-1.5359-0.41789-3.0716-0.62652-4.6073zm-8.6633 1.4175-0.88558 0.14489c-0.04043 0.02266-0.07998 0.04667-0.12111 0.06826-0.18109 0.09508-0.36696 0.17679-0.55762 0.2451-0.19105 0.06846-0.37828 0.11381-0.56171 0.13606-0.24348 0.02953-0.4726 0.02319-0.68731-0.01933-0.08755-0.01734-0.17057-0.0431-0.25094-0.07368l-4.3782 0.71645c0.10555 0.28689 0.23059 0.56247 0.37713 0.82514 0.34573 0.60553 0.76469 1.1137 1.2555 1.5248 0.48862 0.40932 1.0323 0.70667 1.6301 0.89304 0.59407 0.18524 1.2057 0.23114 1.8359 0.13947 0.2173-0.0316 0.44147-0.08127 0.67248-0.1489 0.23036-0.06744 0.45815-0.14853 0.68343-0.24322 0.22388-0.10003 0.43869-0.2069 0.64479-0.3208 0.20961-0.11983 0.40057-0.24805 0.57267-0.38469-0.07722-1.1675-0.1535-2.3351-0.22927-3.5027zm-7.8114 1.4983c-0.46798 0.06326-0.93575 0.12726-1.4036 0.19194-0.67148 0.09282-1.343 0.1871-2.0142 0.28271-0.0044-0.04452-0.0088-0.08906-0.01332-0.13358l-3.7779 0.61814c0.21144 1.3946 0.42181 2.7896 0.63371 4.1841 2.3266-0.45942 4.6554-0.90356 6.9859-1.3301-0.07395-0.63525-0.14477-1.2679-0.21229-1.8978-0.06315-0.6362-0.12916-1.2747-0.19816-1.9156zm-10.758 1.5397-4.1016 0.67117c0.24969 1.3494 0.49931 2.699 0.74903 4.0484 1.2457-0.29877 2.4923-0.59393 3.7398-0.8849-0.13058-1.2778-0.25798-2.5563-0.38724-3.8345z" style="fill:#fff;paint-order:stroke fill markers;stroke-width:.22786"/><path d="m47.622 19.756q0 0.14714-0.02639 0.26787-0.02451 0.11884-0.07917 0.21882t-0.14137 0.18487-0.20923 0.16223l0.44862 0.79982-0.84824 0.166-0.29028-0.8036-0.23374 0.0075-0.03393 0.78474h-0.81054q0.0094-0.4301 0.01696-0.85642 0.0094-0.42634 0.02072-0.85642 0.0038-0.21694 0.0075-0.4301 0.0038-0.21317 0.01508-0.4301 0.13195-0.04905 0.26012-0.08112 0.12818-0.03207 0.25636-0.04904 0.13006-0.01886 0.26201-0.02452 0.13383-0.0075 0.27333-0.0075 0.21488 0 0.41469 0.06037 0.2017 0.05847 0.35626 0.17732 0.15457 0.11884 0.24693 0.29618 0.09425 0.17733 0.09425 0.41311zm-0.84447 0.06037q0-0.07923-0.02262-0.14526-0.02072-0.06602-0.06409-0.11318-0.04147-0.04904-0.10556-0.07545-0.06221-0.0283-0.14703-0.0283-0.0377 0-0.07352 0.0057-0.03582 0.0038-0.06974 0.0132l-0.03016 0.70174h0.04525q0.08105 0 0.164-0.02075 0.08483-0.02075 0.1508-0.06414 0.06786-0.04339 0.10932-0.1113 0.04335-0.06791 0.04335-0.16223zm3.3043 0.31313q0 0.17166-0.03958 0.33201-0.03958 0.15846-0.11499 0.29804-0.07352 0.13959-0.18096 0.25656-0.10556 0.11507-0.23939 0.19807-0.13195 0.083-0.28841 0.13016-0.15645 0.04527-0.33175 0.04527-0.16965 0-0.32422-0.04339-0.15268-0.04339-0.28652-0.12073-0.13383-0.07922-0.24316-0.18863-0.10744-0.11129-0.18472-0.24523-0.0754-0.13583-0.11875-0.2905-0.04147-0.15468-0.04147-0.32257 0-0.16411 0.03958-0.32067 0.03959-0.15846 0.1131-0.29804 0.0754-0.13959 0.18096-0.25656 0.10556-0.11696 0.23561-0.20185 0.13195-0.08489 0.28463-0.13205 0.15269-0.04716 0.32233-0.04716 0.27333 0 0.49762 0.08489 0.22619 0.08489 0.38454 0.24333 0.16022 0.15658 0.24693 0.38107 0.0886 0.2226 0.0886 0.498zm-0.83692 0.04904q0-0.08112-0.02451-0.15656-0.02262-0.07734-0.06786-0.13583-0.04525-0.06037-0.1131-0.09621-0.06597-0.03772-0.15268-0.03772-0.0886 0-0.15834 0.03207t-0.12064 0.08866q-0.04901 0.0547-0.0754 0.13016-0.02639 0.07357-0.02639 0.15658 0 0.07923 0.02262 0.15846 0.02262 0.07924 0.06786 0.14336 0.04525 0.06414 0.11122 0.10376 0.06786 0.03962 0.15645 0.03962 0.0886 0 0.15834-0.03395 0.07164-0.03584 0.12064-0.09432 0.04901-0.06037 0.0754-0.13771t0.02639-0.16034zm3.2347 1.2337-0.93496 0.12073-0.1131-0.42634h-0.42977l-0.09425 0.42634-0.96134-0.09432 0.75023-2.5126 1.048-0.05282zm-1.1159-0.88284-0.14326-0.65647-0.13949 0.65647zm3.4948 0.09054q0 0.21317-0.0056 0.42255-0.0038 0.2075-0.01319 0.41879l-1.0857-0.01887q0.05655-0.3339 0.09801-0.66591 0.04147-0.3339 0.04147-0.67344 0-0.02452-0.0018-0.07923-0.0018-0.0547-0.0075-0.12261-0.0056-0.06979-0.01696-0.14148-0.0094-0.07357-0.02827-0.13393-0.01698-0.06037-0.04335-0.09809-0.0245-0.03962-0.06031-0.03962-0.06409 0-0.10934 0.03772-0.04335 0.03772-0.07352 0.09809-0.02827 0.05847-0.04523 0.13205-0.01696 0.07357-0.02639 0.14714-0.0075 0.07357-0.01131 0.13959-0.0018 0.06414-0.0018 0.10564-0.0094 0.3339-0.01508 0.66402-0.0056 0.32822-0.01508 0.66402l-0.96134 0.0415q0.0377-0.66591 0.07162-1.3242 0.03582-0.65836 0.05655-1.3242l0.8897-0.04527-0.0075 0.30183q0.05278-0.06414 0.1131-0.12073 0.06221-0.05659 0.13195-0.09621 0.06974-0.0415 0.14703-0.06414 0.07917-0.02452 0.16588-0.02452 0.16022 0 0.28085 0.05282t0.20735 0.14336q0.0867 0.09054 0.14514 0.21505 0.05843 0.12261 0.09425 0.26221 0.03582 0.13959 0.05466 0.29239 0.01886 0.15091 0.02451 0.29804 0.0075 0.14714 0.0075 0.28484 0 0.13771 0 0.25088zm2.5069-0.49045q0 0.17166-0.03958 0.33201-0.03958 0.15846-0.11499 0.29804-0.07352 0.13959-0.18096 0.25656-0.10556 0.11507-0.23939 0.19807-0.13195 0.083-0.28841 0.13016-0.15645 0.04527-0.33175 0.04527-0.16965 0-0.32422-0.04339-0.15269-0.04339-0.28652-0.12073-0.13383-0.07922-0.24317-0.18863-0.10744-0.11129-0.18473-0.24523-0.0754-0.13583-0.11875-0.2905-0.04147-0.15468-0.04147-0.32257 0-0.16411 0.03958-0.32067 0.03958-0.15846 0.1131-0.29804 0.0754-0.13959 0.18096-0.25656 0.10556-0.11696 0.23561-0.20185 0.13195-0.08489 0.28463-0.13205t0.32233-0.04716q0.27333 0 0.49764 0.08489 0.22619 0.08489 0.38454 0.24333 0.16022 0.15658 0.24693 0.38107 0.0886 0.2226 0.0886 0.498zm-0.83692 0.04904q0-0.08112-0.02451-0.15658-0.02262-0.07734-0.06786-0.13583-0.04523-0.06037-0.1131-0.09621-0.06597-0.03772-0.15269-0.03772-0.0886 0-0.15834 0.03207t-0.12064 0.08866q-0.04901 0.05471-0.0754 0.13016-0.02639 0.07357-0.02639 0.15656 0 0.07924 0.02262 0.15846t0.06786 0.14336q0.04523 0.06414 0.11122 0.10374 0.06786 0.03962 0.15645 0.03962 0.0886 0 0.15834-0.03395 0.07162-0.03584 0.12064-0.09432 0.04901-0.06037 0.0754-0.13771t0.02639-0.16035zm3.2668-1.0413-0.83316 0.99224 0.76531 1.2978-0.87462 0.15468-0.57304-0.77719-0.03016 0.73946-0.78415 0.03019 0.06031-2.7014 0.8784 0.04905-0.06786 0.77719 0.54664-0.78852zm1.9623 0.91303q0 0.16411-0.02262 0.32822-0.32233 0.02075-0.64089 0.06791-0.31856 0.04527-0.63712 0.09054 0.04901 0.13583 0.15269 0.21694 0.10556 0.08112 0.25069 0.08112 0.0754 0 0.164-0.0283 0.09048-0.0283 0.17908-0.06979 0.0886-0.04339 0.16965-0.09244t0.13949-0.08866l-0.09048 0.85642q-0.07352 0.05659-0.16022 0.09621-0.08482 0.03962-0.17718 0.06414t-0.18661 0.03584q-0.09425 0.01131-0.18473 0.01131-0.18661 0-0.34118-0.05094-0.15457-0.05093-0.28085-0.14148-0.1244-0.09244-0.21866-0.21694-0.09425-0.12451-0.15645-0.27164-0.06221-0.14714-0.09425-0.31126-0.03204-0.16411-0.03204-0.33201 0-0.17543 0.03204-0.35086 0.03205-0.17543 0.09613-0.33766 0.06597-0.16223 0.164-0.29994 0.09991-0.13959 0.23186-0.24333 0.13195-0.10376 0.29782-0.16223 0.16776-0.05847 0.36945-0.05847 0.16776 0 0.30535 0.04716 0.13949 0.04527 0.24693 0.12828 0.10932 0.08112 0.18849 0.1943 0.08105 0.11318 0.13195 0.24901 0.05278 0.13393 0.07729 0.28484 0.02639 0.14903 0.02639 0.30371zm-0.75399-0.09809q0-0.05282-0.01131-0.10752-0.01131-0.05659-0.0377-0.10186-0.02451-0.04527-0.06597-0.07357-0.04147-0.03019-0.10367-0.03019-0.0754 0-0.13383 0.0415-0.05656 0.03962-0.09801 0.10186-0.04147 0.06037-0.06786 0.13205-0.02639 0.07169-0.03958 0.13204l0.55796-0.05282zm1.7115-1.4261-0.21112 1.1469-0.58058 0.01887-0.11687-1.1469zm1.9943 2.0825q0 0.25843-0.09048 0.44707-0.0886 0.18675-0.24505 0.30937-0.15457 0.12073-0.36381 0.1792-0.20735 0.05659-0.44674 0.05659-0.09236 0-0.20358-0.02452-0.10932-0.02452-0.22243-0.06037-0.1131-0.03772-0.21866-0.07924-0.10367-0.04339-0.18473-0.08112l0.08293-0.73946q0.16022 0.09621 0.35437 0.14714 0.19604 0.04905 0.38453 0.04905 0.03582 0 0.08671-0.0019 0.0509-0.0038 0.09613-0.01698 0.04713-0.01509 0.07917-0.04339 0.03205-0.0283 0.03205-0.08112 0-0.03584-0.02262-0.06037-0.02262-0.02642-0.05844-0.0415-0.03582-0.01697-0.08105-0.02452-0.04523-0.0094-0.0886-0.0132-0.04335-0.0038-0.08105-0.0038t-0.06032 0q-0.1621 0-0.29595-0.05094-0.13195-0.05093-0.22807-0.14336-0.09425-0.09432-0.14703-0.22637-0.05278-0.13393-0.05278-0.29618 0-0.2226 0.0886-0.39802 0.09048-0.17732 0.23939-0.29994 0.1508-0.12451 0.34494-0.19053t0.4015-0.06602q0.09236 0 0.19039 0.0075 0.09801 0.0057 0.19416 0.02264 0.09801 0.01697 0.19039 0.04339 0.09236 0.02642 0.1753 0.06602l-0.07162 0.76588q-0.12818-0.04339-0.26954-0.07169-0.13949-0.03019-0.27333-0.03019-0.02451 0-0.06409 0.0019-0.0377 0-0.08105 0.0057-0.04147 0.0038-0.08483 0.0132-0.04335 0.0094-0.07729 0.02642-0.03392 0.01509-0.05466 0.0415-0.02072 0.02642-0.01885 0.06225 0.0018 0.0415 0.03015 0.06414 0.03016 0.02264 0.0754 0.03395 0.04713 0.0094 0.10179 0.0094 0.05656 0 0.11122-0.0019 0.05466-0.0038 0.10179-0.0057 0.04713-0.0038 0.07729-0.0019 0.1508 0.0094 0.27144 0.06414 0.12064 0.0547 0.20358 0.14526 0.08482 0.09054 0.12818 0.21694 0.04525 0.12451 0.04525 0.2754zm2.8709-1.694-0.01886 0.79982-0.56172 0.02264-0.06786 1.7506-0.79547 0.0415-0.07162-1.7506-0.56172 0.03019 0.02262-0.89039zm2.1734 1.1356q0 0.16411-0.02262 0.32822-0.32233 0.02075-0.64089 0.06791-0.31856 0.04527-0.63712 0.09054 0.04901 0.13583 0.15269 0.21694 0.10556 0.08111 0.25069 0.08111 0.0754 0 0.164-0.0283 0.09048-0.0283 0.17907-0.06979 0.0886-0.04339 0.16965-0.09244t0.13949-0.08866l-0.09048 0.85642q-0.07352 0.05659-0.16022 0.09621-0.08482 0.03962-0.17718 0.06414t-0.18661 0.03584q-0.09425 0.01131-0.18473 0.01131-0.18661 0-0.34118-0.05094t-0.28085-0.14148q-0.1244-0.09244-0.21866-0.21693-0.09424-0.12451-0.15645-0.27164-0.06221-0.14714-0.09425-0.31126-0.03204-0.16411-0.03204-0.33201 0-0.17543 0.03204-0.35086 0.03205-0.17543 0.09613-0.33766 0.06597-0.16223 0.164-0.29994 0.09991-0.13959 0.23186-0.24333 0.13195-0.10376 0.29782-0.16223 0.16776-0.05847 0.36945-0.05847 0.16777 0 0.30536 0.04716 0.13949 0.04527 0.24693 0.12828 0.10932 0.08112 0.18849 0.1943 0.08105 0.11318 0.13195 0.24901 0.05278 0.13393 0.07728 0.28484 0.02639 0.14903 0.02639 0.30372zm-0.75399-0.09809q0-0.05282-0.01131-0.10753-0.01131-0.05659-0.0377-0.10186-0.02451-0.04527-0.06597-0.07357-0.04147-0.03018-0.10368-0.03018-0.0754 0-0.13383 0.0415-0.05654 0.03962-0.09801 0.10186-0.04147 0.06037-0.06786 0.13204-0.02639 0.07169-0.03958 0.13205l0.55796-0.05282zm2.6747-0.95451-0.06786 0.79606q-0.05466-0.01509-0.10744-0.02075-0.05278-0.0057-0.10744-0.0057-0.13383 0-0.25636 0.03395-0.12064 0.03395-0.21488 0.10376-0.09236 0.06979-0.14891 0.17732-0.05466 0.10564-0.05466 0.25088 0 0.10564 0.03016 0.18487 0.03204 0.07734 0.0886 0.13016 0.05843 0.05093 0.13949 0.07734 0.08293 0.02642 0.18284 0.02642 0.06974 0 0.14326-0.0132 0.07352-0.01509 0.14703-0.03962 0.07352-0.02452 0.14137-0.05659 0.06786-0.03207 0.1263-0.06791l-0.03016 0.8866q-0.07352 0.03772-0.15834 0.06791-0.08482 0.0283-0.1753 0.04904-0.0886 0.02264-0.17907 0.03395-0.0886 0.01131-0.16965 0.01131-0.26766 0-0.48822-0.09998-0.21866-0.09998-0.37699-0.27164-0.15645-0.17355-0.24318-0.4018-0.08671-0.22825-0.08671-0.48669 0-0.30937 0.08671-0.57724 0.0886-0.26787 0.25825-0.46406 0.17153-0.19807 0.42223-0.30937 0.25258-0.11318 0.5787-0.11318 0.13006 0 0.2639 0.02075t0.25637 0.07734zm2.4186 2.5013-0.94249 0.04527-0.0075-0.79606h-0.43355l-0.02639 0.82625h-0.84447l0.07162-2.6521 0.89726 0.0415-0.05655 1.3545h0.41847l0.0038-1.4186 0.85954 0.02264zm2.9292-2.5843-0.01886 0.79982-0.56172 0.02264-0.06786 1.7506-0.79547 0.0415-0.07164-1.7506-0.56172 0.03018 0.02262-0.89039zm2.2393 2.4976-0.93496 0.12073-0.1131-0.42634h-0.42977l-0.09425 0.42634-0.96134-0.09432 0.75023-2.5126 1.048-0.05282zm-1.1159-0.88284-0.14326-0.65647-0.13949 0.65647zm3.4723-1.3922-0.83316 0.99224 0.76531 1.2978-0.87462 0.15468-0.57304-0.77719-0.03016 0.73946-0.78414 0.03019 0.06032-2.7014 0.8784 0.04904-0.06786 0.77719 0.54664-0.78852zm1.9623 0.91303q0 0.16411-0.02262 0.32822-0.32233 0.02075-0.64089 0.06791-0.31856 0.04527-0.63712 0.09054 0.04901 0.13583 0.15268 0.21694 0.10556 0.08111 0.25069 0.08111 0.0754 0 0.164-0.0283 0.09048-0.0283 0.17908-0.06979 0.0886-0.04339 0.16965-0.09244t0.13949-0.08866l-0.09048 0.85642q-0.07352 0.05659-0.16022 0.09621-0.08483 0.03962-0.17719 0.06414t-0.18661 0.03584q-0.09425 0.01131-0.18473 0.01131-0.18661 0-0.34118-0.05094t-0.28088-0.14148q-0.1244-0.09244-0.21866-0.21694-0.09425-0.12451-0.15645-0.27164-0.06221-0.14715-0.09425-0.31126t-0.03204-0.33201q0-0.17543 0.03204-0.35086t0.09613-0.33766q0.06597-0.16223 0.164-0.29994 0.09991-0.13959 0.23186-0.24333 0.13195-0.10376 0.29782-0.16223 0.16777-0.05847 0.36945-0.05847 0.16776 0 0.30536 0.04716 0.13949 0.04527 0.24693 0.12828 0.10932 0.08112 0.18849 0.1943 0.08105 0.11319 0.13195 0.24901 0.05278 0.13393 0.07728 0.28484 0.02639 0.14903 0.02639 0.30372zm-0.75399-0.09809q0-0.05282-0.01131-0.10752-0.01131-0.05659-0.0377-0.10186-0.0245-0.04527-0.06597-0.07357-0.04147-0.03019-0.10367-0.03019-0.0754 0-0.13383 0.0415-0.05655 0.03962-0.09801 0.10186-0.04147 0.06037-0.06786 0.13205-0.02639 0.07169-0.03958 0.13204l0.55796-0.05282zm3.2064 0.17732q0 0.17166-0.03958 0.33201-0.03958 0.15846-0.11499 0.29804-0.07352 0.13959-0.18096 0.25656-0.10556 0.11506-0.23939 0.19807-0.13195 0.083-0.28841 0.13016-0.15645 0.04527-0.33175 0.04527-0.16965 0-0.32422-0.04339-0.15269-0.04339-0.28652-0.12073-0.13383-0.07924-0.24316-0.18863-0.10744-0.1113-0.18473-0.24523-0.0754-0.13582-0.11875-0.2905-0.04147-0.15468-0.04147-0.32257 0-0.16411 0.03958-0.32068 0.03958-0.15846 0.1131-0.29804 0.0754-0.13959 0.18096-0.25656 0.10556-0.11696 0.23561-0.20185 0.13195-0.08489 0.28463-0.13205 0.15269-0.04716 0.32233-0.04716 0.27333 0 0.49762 0.08489 0.22619 0.08489 0.38454 0.24333 0.16022 0.15656 0.24693 0.38105 0.0886 0.2226 0.0886 0.498zm-0.83692 0.04904q0-0.08112-0.02451-0.15658-0.02262-0.07734-0.06786-0.13582-0.04523-0.06037-0.1131-0.09621-0.06597-0.03772-0.15269-0.03772-0.0886 0-0.15834 0.03207t-0.12064 0.08866q-0.04901 0.0547-0.0754 0.13016-0.02639 0.07357-0.02639 0.15658 0 0.07922 0.02262 0.15846t0.06786 0.14336q0.04525 0.06414 0.11122 0.10376 0.06786 0.03962 0.15645 0.03962 0.0886 0 0.15834-0.03395 0.07162-0.03584 0.12063-0.09432 0.04901-0.06037 0.0754-0.13771t0.02639-0.16035zm3.21-1.2488-0.68989 2.5505-0.93496 0.05282-0.84824-2.4637 0.89347-0.083 0.36192 1.4336 0.3506-1.5468zm2.066 1.1205q0 0.16411-0.02262 0.32822-0.32233 0.02075-0.64089 0.06791-0.31857 0.04527-0.63712 0.09054 0.04901 0.13583 0.15269 0.21694 0.10556 0.08112 0.25069 0.08112 0.0754 0 0.164-0.0283 0.09048-0.0283 0.17907-0.06979 0.0886-0.04339 0.16965-0.09244t0.13949-0.08866l-0.09048 0.85642q-0.07352 0.05659-0.16022 0.09621-0.08483 0.03962-0.17718 0.06414-0.09236 0.02452-0.18661 0.03584-0.09425 0.01131-0.18473 0.01131-0.18661 0-0.34118-0.05094t-0.28085-0.14148q-0.1244-0.09244-0.21866-0.21694-0.09425-0.12451-0.15645-0.27164-0.06221-0.14714-0.09425-0.31126-0.03204-0.16411-0.03204-0.33201 0-0.17543 0.03204-0.35086t0.09613-0.33766q0.06597-0.16223 0.164-0.29994 0.09991-0.13959 0.23186-0.24333 0.13195-0.10376 0.29782-0.16223 0.16776-0.05847 0.36945-0.05847 0.16777 0 0.30536 0.04716 0.13949 0.04527 0.24693 0.12828 0.10934 0.08112 0.18849 0.1943 0.08105 0.11318 0.13195 0.24901 0.05278 0.13393 0.07728 0.28484 0.02639 0.14903 0.02639 0.30372zm-0.75399-0.09809q0-0.05282-0.01131-0.10753-0.01131-0.05659-0.0377-0.10186-0.0245-0.04527-0.06597-0.07357-0.04147-0.03018-0.10367-0.03018-0.0754 0-0.13383 0.0415-0.05656 0.03962-0.09802 0.10186-0.04147 0.06037-0.06786 0.13205-0.02639 0.07169-0.03958 0.13205l0.55796-0.05282zm3.0857-0.19618q0 0.14714-0.02639 0.26787-0.0245 0.11884-0.07917 0.21882-0.05466 0.09998-0.14138 0.18487-0.08671 0.08489-0.20923 0.16223l0.44862 0.79982-0.84824 0.166-0.29028-0.8036-0.23374 0.0075-0.03393 0.78474h-0.81054q0.0094-0.4301 0.01698-0.85642 0.0094-0.42634 0.02072-0.85642 0.0038-0.21694 0.0075-0.4301 0.0038-0.21316 0.01508-0.4301 0.13195-0.04904 0.26012-0.08112 0.12818-0.03207 0.25636-0.04904 0.13006-0.01887 0.26201-0.02452 0.13383-0.0075 0.27333-0.0075 0.21488 0 0.41469 0.06037 0.2017 0.05847 0.35626 0.17732 0.15457 0.11884 0.24693 0.29618 0.09425 0.17732 0.09425 0.41311zm-0.84447 0.06037q0-0.07924-0.02262-0.14526-0.02072-0.06602-0.06409-0.11318-0.04147-0.04904-0.10556-0.07545-0.06221-0.0283-0.14703-0.0283-0.0377 0-0.07352 0.0057-0.03582 0.0038-0.06974 0.0132l-0.03016 0.70174h0.04525q0.08105 0 0.164-0.02075 0.08482-0.02075 0.1508-0.06414 0.06786-0.04339 0.10932-0.1113 0.04335-0.06791 0.04335-0.16223z" style="fill:#fff;paint-order:stroke fill markers;stroke-linecap:square;stroke-width:1.9144"/></g></svg>
